<svg width="21" height="21" viewBox="0 0 21 21" fill="none" xmlns="http://www.w3.org/2000/svg">
<path d="M14.667 2.16663H6.33366C5.41318 2.16663 4.66699 2.91282 4.66699 3.83329V7.16663C4.66699 8.0871 5.41318 8.83329 6.33366 8.83329H14.667C15.5875 8.83329 16.3337 8.0871 16.3337 7.16663V3.83329C16.3337 2.91282 15.5875 2.16663 14.667 2.16663Z" stroke="white" stroke-width="1.5" stroke-linecap="round" stroke-linejoin="round"/>
<path d="M17.167 12.1666H3.83366C2.91318 12.1666 2.16699 12.9128 2.16699 13.8333V17.1666C2.16699 18.0871 2.91318 18.8333 3.83366 18.8333H17.167C18.0875 18.8333 18.8337 18.0871 18.8337 17.1666V13.8333C18.8337 12.9128 18.0875 12.1666 17.167 12.1666Z" stroke="white" stroke-width="1.5" stroke-linecap="round" stroke-linejoin="round"/>
<path d="M5.5 15.5H7.16667M10.5 15.5H15.5" stroke="white" stroke-width="1.5" stroke-linecap="round" stroke-linejoin="round"/>
</svg>
