<svg width="13" height="11" viewBox="0 0 13 11" fill="none" xmlns="http://www.w3.org/2000/svg">
<path d="M12.8188 1.66507C12.7376 1.57329 12.6067 1.5502 12.4993 1.60681C12.4325 1.64199 12.3069 1.68815 12.1579 1.73377C12.3459 1.47655 12.4972 1.18856 12.564 0.929694C12.5928 0.818124 12.5506 0.700508 12.4587 0.634005C12.3668 0.568052 12.2444 0.568052 12.1525 0.634005C12.0077 0.737881 11.3088 1.05006 10.8669 1.15119C9.86821 0.251478 8.70601 0.158044 7.49787 0.883527C6.51575 1.47326 6.30201 2.6725 6.34369 3.40348C4.09572 3.18089 2.69842 1.95966 1.91187 0.94893C1.85683 0.878031 1.76813 0.840658 1.68477 0.846154C1.59714 0.852749 1.51806 0.902763 1.47317 0.980258C1.10127 1.62605 0.998146 2.33999 1.17608 3.04514C1.27333 3.42986 1.44325 3.76897 1.64042 4.04377C1.54585 3.99596 1.45447 3.93605 1.36844 3.8646C1.28936 3.79755 1.17875 3.78491 1.08524 3.82943C0.992268 3.87504 0.932956 3.97177 0.932956 4.07785C0.932956 5.28864 1.66928 6.09656 2.35697 6.51866C2.24583 6.50492 2.12988 6.47964 2.01286 6.44281C1.9124 6.41148 1.8034 6.44281 1.73393 6.52415C1.66447 6.60495 1.6479 6.72037 1.69119 6.81874C2.07751 7.69757 2.80956 8.30214 3.71527 8.52143C2.92445 8.99904 1.86592 9.23317 0.896621 9.1183C0.771051 9.10017 0.651359 9.18206 0.611817 9.30627C0.572276 9.43048 0.624107 9.56678 0.734716 9.63054C2.20522 10.4797 3.53466 10.7831 4.6835 10.7831C6.35545 10.7831 7.64588 10.1411 8.43136 9.60416C10.549 8.15869 11.8688 5.56344 11.685 3.24135C12.0243 2.98358 12.5319 2.50762 12.8466 1.99593C12.9118 1.89261 12.9001 1.7563 12.8188 1.66507Z" fill="white"/>
</svg>
