<svg width="17" height="19" viewBox="0 0 17 19" fill="none" xmlns="http://www.w3.org/2000/svg">
<path d="M13.3535 8.16211L12.1523 8.66016C12.2174 8.92057 12.25 9.20052 12.25 9.5C12.25 9.79948 12.2174 10.0794 12.1523 10.3398L13.3535 10.8379L12.8848 11.9902L11.6738 11.4922C11.3743 11.9805 10.9805 12.3743 10.4922 12.6738L10.9902 13.8848L9.83789 14.3535L9.33984 13.1523C9.07943 13.2174 8.79948 13.25 8.5 13.25C8.20052 13.25 7.92057 13.2174 7.66016 13.1523L7.16211 14.3535L6.00977 13.8848L6.50781 12.6738C6.01953 12.3743 5.62565 11.9805 5.32617 11.4922L4.11523 11.9902L3.64648 10.8379L4.84766 10.3398C4.78255 10.0794 4.75 9.79948 4.75 9.5C4.75 9.20052 4.78255 8.92057 4.84766 8.66016L3.64648 8.16211L4.11523 7.00977L5.32617 7.50781C5.62565 7.01953 6.01953 6.62565 6.50781 6.32617L6.00977 5.11523L7.16211 4.64648L7.66016 5.84766C7.92057 5.78255 8.20052 5.75 8.5 5.75C8.79948 5.75 9.07943 5.78255 9.33984 5.84766L9.83789 4.64648L10.9902 5.11523L10.4922 6.32617C10.9805 6.62565 11.3743 7.01953 11.6738 7.50781L12.8848 7.00977L13.3535 8.16211ZM8.5 12C8.83854 12 9.16081 11.9349 9.4668 11.8047C9.77279 11.6745 10.0365 11.4954 10.2578 11.2676C10.4792 11.0397 10.6582 10.776 10.7949 10.4766C10.9316 10.1771 11 9.85156 11 9.5C11 9.16146 10.9349 8.83919 10.8047 8.5332C10.6745 8.22721 10.4954 7.96354 10.2676 7.74219C10.0397 7.52083 9.77279 7.3418 9.4668 7.20508C9.16081 7.06836 8.83854 7 8.5 7C8.15495 7 7.83268 7.0651 7.5332 7.19531C7.23372 7.32552 6.97005 7.50456 6.74219 7.73242C6.51432 7.96029 6.33529 8.22721 6.20508 8.5332C6.07487 8.83919 6.00651 9.16146 6 9.5C6 9.84505 6.0651 10.1673 6.19531 10.4668C6.32552 10.7663 6.50456 11.0299 6.73242 11.2578C6.96029 11.4857 7.22396 11.6647 7.52344 11.7949C7.82292 11.9251 8.14844 11.9935 8.5 12ZM16.1074 16.375L13.8613 18.6113L13.1387 17.8887L14.0176 17H1V12H2.25V15.75H14.0176L13.1387 14.8613L13.8613 14.1387L16.1074 16.375ZM3.13867 4.86133L0.892578 2.625L3.13867 0.388672L3.86133 1.11133L2.98242 2H16V7H14.75V3.25H2.98242L3.86133 4.13867L3.13867 4.86133Z" fill="white"/>
</svg>
