<svg width="13" height="13" viewBox="0 0 13 13" fill="none" xmlns="http://www.w3.org/2000/svg">
<path d="M2.08218 3.36749C2.90152 3.36749 3.56573 2.70328 3.56573 1.88394C3.56573 1.0646 2.90152 0.400391 2.08218 0.400391C1.26284 0.400391 0.598633 1.0646 0.598633 1.88394C0.598633 2.70328 1.26284 3.36749 2.08218 3.36749Z" fill="white"/>
<path d="M3.31847 4.3584H0.845891C0.709405 4.3584 0.598633 4.46917 0.598633 4.60566V12.0234C0.598633 12.1599 0.709405 12.2707 0.845891 12.2707H3.31847C3.45496 12.2707 3.56573 12.1599 3.56573 12.0234V4.60566C3.56573 4.46917 3.45496 4.3584 3.31847 4.3584Z" fill="white"/>
<path d="M10.6867 3.94679C9.62989 3.58481 8.30805 3.90278 7.51534 4.47296C7.48814 4.36664 7.39122 4.28751 7.27599 4.28751H4.80341C4.66692 4.28751 4.55615 4.39829 4.55615 4.53477V11.9525C4.55615 12.089 4.66692 12.1998 4.80341 12.1998H7.27599C7.41248 12.1998 7.52325 12.089 7.52325 11.9525V6.62163C7.92282 6.27745 8.43761 6.16767 8.85894 6.34668C9.26741 6.51927 9.50132 6.94059 9.50132 7.50187V11.9525C9.50132 12.089 9.61209 12.1998 9.74858 12.1998H12.2212C12.3576 12.1998 12.4684 12.089 12.4684 11.9525V7.00389C12.4402 4.97192 11.4843 4.21977 10.6867 3.94679Z" fill="white"/>
</svg>
