<svg width="21" height="21" viewBox="0 0 21 21" fill="none" xmlns="http://www.w3.org/2000/svg">
<path fill-rule="evenodd" clip-rule="evenodd" d="M17.0604 10.75L10.3662 17.415C9.47407 18.286 8.27413 18.7697 7.02727 18.7609C5.78042 18.7521 4.58745 18.2515 3.70769 17.3679C2.82793 16.4843 2.33251 15.2891 2.32912 14.0422C2.32573 12.7954 2.81464 11.5975 3.68958 10.7092L10.3837 4.04416C11.2759 3.1731 12.4759 2.68941 13.7227 2.69824C14.9696 2.70707 16.1625 3.20769 17.0423 4.09129C17.9221 4.97489 18.4175 6.17004 18.4209 7.41692C18.4243 8.6638 17.9353 9.86162 17.0604 10.75ZM15.8937 5.23499C15.3201 4.65965 14.5416 4.33545 13.7291 4.33357C12.9167 4.3317 12.1367 4.6523 11.5604 5.22499L4.86541 11.89C4.28934 12.4635 3.96469 13.2424 3.9629 14.0553C3.9611 14.8682 4.2823 15.6485 4.85583 16.2246C5.42936 16.8006 6.20824 17.1253 7.02113 17.1271C7.83403 17.1289 8.61434 16.8077 9.19041 16.2342L15.8846 9.56916C16.4602 8.99548 16.7845 8.2168 16.7864 7.40414C16.7883 6.59149 16.4675 5.81131 15.8946 5.23499H15.8937Z" fill="white"/>
<path fill-rule="evenodd" clip-rule="evenodd" d="M7.2645 7.60336C7.42077 7.44714 7.63269 7.35938 7.85366 7.35938C8.07463 7.35938 8.28656 7.44714 8.44283 7.60336L13.4845 12.645C13.6363 12.8022 13.7203 13.0127 13.7184 13.2312C13.7165 13.4497 13.6289 13.6587 13.4743 13.8132C13.3198 13.9677 13.1108 14.0554 12.8923 14.0573C12.6738 14.0592 12.4633 13.9752 12.3062 13.8234L7.2645 8.7817C7.10827 8.62542 7.02051 8.4135 7.02051 8.19253C7.02051 7.97156 7.10827 7.75964 7.2645 7.60336Z" fill="white"/>
</svg>
