<svg width="8" height="13" viewBox="0 0 8 13" fill="none" xmlns="http://www.w3.org/2000/svg">
<path d="M5.69183 2.42117H7.30021C7.44818 2.42117 7.56827 2.30801 7.56827 2.16858V0.652989C7.56827 0.513554 7.44818 0.400391 7.30021 0.400391H5.69183C4.0663 0.400391 2.74314 1.64671 2.74314 3.17897V4.94715H0.866696C0.718725 4.94715 0.598633 5.06032 0.598633 5.19975V6.71534C0.598633 6.85477 0.718725 6.96794 0.866696 6.96794H2.74314V12.2725C2.74314 12.4119 2.86323 12.5251 3.0112 12.5251H4.61958C4.76755 12.5251 4.88764 12.4119 4.88764 12.2725V6.96794H6.76408C6.87935 6.96794 6.98175 6.89822 7.01874 6.79516L7.55487 5.27957C7.58221 5.20278 7.56827 5.11791 7.51788 5.05173C7.46694 4.98605 7.38653 4.94715 7.30021 4.94715H4.88764V3.17897C4.88764 2.76117 5.24845 2.42117 5.69183 2.42117Z" fill="white"/>
</svg>
