<svg width="13" height="13" viewBox="0 0 13 13" fill="none" xmlns="http://www.w3.org/2000/svg">
<path d="M12.5714 3.91857C12.5805 4.24585 12.5873 4.53675 12.5918 4.7913C12.5964 5.04585 12.5986 5.5822 12.5986 6.40039C12.5986 7.21858 12.5964 7.75494 12.5918 8.00948C12.5873 8.26403 12.5805 8.55039 12.5714 8.86857C12.5532 9.19585 12.5191 9.47312 12.4691 9.70039C12.4191 9.92766 12.3577 10.1368 12.285 10.3277C12.2123 10.5277 12.1214 10.714 12.0123 10.8868C11.9032 11.0595 11.7623 11.2277 11.5895 11.3913C11.4259 11.564 11.2577 11.7049 11.085 11.814C10.9123 11.9231 10.7259 12.014 10.5259 12.0868C10.335 12.1595 10.1259 12.2208 9.89863 12.2708C9.67136 12.3208 9.39864 12.3549 9.08045 12.3731C8.75318 12.3822 8.46227 12.389 8.20773 12.3936C7.95318 12.3981 7.41682 12.4004 6.59863 12.4004C5.78045 12.4004 5.24409 12.3981 4.98954 12.3936C4.73499 12.389 4.44863 12.3822 4.13045 12.3731C3.80318 12.3549 3.52591 12.3208 3.29863 12.2708C3.07136 12.2208 2.86227 12.1595 2.67136 12.0868C2.47136 12.014 2.285 11.9231 2.11227 11.814C1.93954 11.7049 1.77136 11.564 1.60772 11.3913C1.435 11.2277 1.29409 11.0595 1.185 10.8868C1.07591 10.714 0.984997 10.5277 0.91227 10.3277C0.839542 10.1368 0.77818 9.92766 0.72818 9.70039C0.678179 9.47312 0.644086 9.20039 0.625904 8.88221C0.616814 8.55493 0.609995 8.26403 0.60545 8.00948C0.600904 7.75494 0.598633 7.21858 0.598633 6.40039C0.598633 5.5822 0.600904 5.04585 0.60545 4.7913C0.609995 4.53675 0.616814 4.25039 0.625904 3.93221C0.644086 3.60493 0.678179 3.32766 0.72818 3.10039C0.77818 2.87312 0.839542 2.66403 0.91227 2.47312C0.984997 2.27312 1.07591 2.08676 1.185 1.91403C1.29409 1.7413 1.435 1.57312 1.60772 1.40948C1.77136 1.23675 1.93954 1.09585 2.11227 0.986754C2.285 0.877663 2.47136 0.786755 2.67136 0.714027C2.86227 0.641299 3.07136 0.579936 3.29863 0.529936C3.52591 0.479936 3.79863 0.445845 4.11681 0.427663C4.44409 0.418572 4.73499 0.411754 4.98954 0.407209C5.24409 0.402663 5.78045 0.400391 6.59863 0.400391C7.41682 0.400391 7.95318 0.402663 8.20773 0.407209C8.46227 0.411754 8.74863 0.418572 9.06681 0.427663C9.39409 0.445845 9.67136 0.479936 9.89863 0.529936C10.1259 0.579936 10.335 0.641299 10.5259 0.714027C10.7259 0.786755 10.9123 0.877663 11.085 0.986754C11.2577 1.09585 11.4259 1.23675 11.5895 1.40948C11.7623 1.57312 11.9032 1.7413 12.0123 1.91403C12.1214 2.08676 12.2123 2.27312 12.285 2.47312C12.3577 2.66403 12.4191 2.87312 12.4691 3.10039C12.5191 3.32766 12.5532 3.60039 12.5714 3.91857ZM11.4805 8.82766C11.4986 8.50948 11.51 8.22539 11.5145 7.97539C11.5191 7.72539 11.5214 7.2004 11.5214 6.40039C11.5214 5.60039 11.5191 5.07539 11.5145 4.82539C11.51 4.57539 11.4986 4.2913 11.4805 3.97312C11.4714 3.68221 11.4464 3.45039 11.4054 3.27766C11.3645 3.10494 11.3214 2.96403 11.2759 2.85494C11.2214 2.71857 11.16 2.59585 11.0918 2.48675C11.0236 2.37766 10.935 2.27312 10.8259 2.17312C10.7259 2.06403 10.6214 1.97539 10.5123 1.90721C10.4032 1.83903 10.2805 1.77766 10.1441 1.72312C10.035 1.67766 9.89409 1.63448 9.72136 1.59357C9.54863 1.55266 9.31682 1.52766 9.02591 1.51857C8.70772 1.50039 8.42364 1.48903 8.17363 1.48448C7.92363 1.47994 7.39864 1.47766 6.59863 1.47766C5.79863 1.47766 5.27363 1.47994 5.02363 1.48448C4.77363 1.48903 4.48954 1.50039 4.17136 1.51857C3.88045 1.52766 3.64863 1.55266 3.47591 1.59357C3.30318 1.63448 3.16227 1.67766 3.05318 1.72312C2.91681 1.77766 2.79409 1.83903 2.685 1.90721C2.57591 1.97539 2.47136 2.06403 2.37136 2.17312C2.26227 2.27312 2.17363 2.37766 2.10545 2.48675C2.03727 2.59585 1.97591 2.71857 1.92136 2.85494C1.87591 2.96403 1.83273 3.10494 1.79182 3.27766C1.75091 3.45039 1.72591 3.68221 1.71682 3.97312C1.69863 4.2913 1.68727 4.57539 1.68272 4.82539C1.67818 5.07539 1.67591 5.60039 1.67591 6.40039C1.67591 7.2004 1.67818 7.72539 1.68272 7.97539C1.68727 8.22539 1.69863 8.50948 1.71682 8.82766C1.72591 9.11857 1.75091 9.35039 1.79182 9.52312C1.83273 9.69585 1.87591 9.83675 1.92136 9.94585C1.97591 10.0822 2.03727 10.2049 2.10545 10.314C2.17363 10.4231 2.26227 10.5277 2.37136 10.6277C2.47136 10.7368 2.57591 10.8254 2.685 10.8936C2.79409 10.9618 2.91681 11.0231 3.05318 11.0777C3.16227 11.1231 3.30318 11.1663 3.47591 11.2072C3.64863 11.2481 3.88045 11.2731 4.17136 11.2822C4.48954 11.3004 4.77363 11.3118 5.02363 11.3163C5.27363 11.3208 5.79863 11.3231 6.59863 11.3231C7.39864 11.3231 7.92363 11.3208 8.17363 11.3163C8.42364 11.3118 8.70772 11.3004 9.02591 11.2822C9.31682 11.2731 9.54863 11.2481 9.72136 11.2072C9.89409 11.1663 10.035 11.1231 10.1441 11.0777C10.2805 11.0231 10.4032 10.9618 10.5123 10.8936C10.6214 10.8254 10.7259 10.7368 10.8259 10.6277C10.935 10.5277 11.0236 10.4231 11.0918 10.314C11.16 10.2049 11.2214 10.0822 11.2759 9.94585C11.3214 9.83675 11.3645 9.69585 11.4054 9.52312C11.4464 9.35039 11.4714 9.11857 11.4805 8.82766ZM6.59863 3.31857C7.02591 3.31857 7.4259 3.40039 7.79863 3.56403C8.17136 3.71857 8.49863 3.93675 8.78045 4.21857C9.06227 4.50039 9.28045 4.82766 9.435 5.20039C9.59864 5.57312 9.68045 5.97312 9.68045 6.40039C9.68045 6.82767 9.59864 7.22766 9.435 7.60039C9.28045 7.97312 9.06227 8.30039 8.78045 8.58221C8.49863 8.86403 8.17136 9.08221 7.79863 9.23675C7.4259 9.40039 7.02591 9.48221 6.59863 9.48221C6.17136 9.48221 5.77136 9.40039 5.39863 9.23675C5.0259 9.08221 4.69864 8.86403 4.41682 8.58221C4.135 8.30039 3.91681 7.97312 3.76227 7.60039C3.59863 7.22766 3.51682 6.82767 3.51682 6.40039C3.51682 5.97312 3.59863 5.57312 3.76227 5.20039C3.91681 4.82766 4.135 4.50039 4.41682 4.21857C4.69864 3.93675 5.0259 3.71857 5.39863 3.56403C5.77136 3.40039 6.17136 3.31857 6.59863 3.31857ZM6.59863 8.40494C7.15318 8.40494 7.6259 8.20948 8.01682 7.81857C8.40773 7.42766 8.60318 6.95494 8.60318 6.40039C8.60318 5.84584 8.40773 5.37312 8.01682 4.98221C7.6259 4.5913 7.15318 4.39585 6.59863 4.39585C6.04409 4.39585 5.57136 4.5913 5.18045 4.98221C4.78954 5.37312 4.59409 5.84584 4.59409 6.40039C4.59409 6.95494 4.78954 7.42766 5.18045 7.81857C5.57136 8.20948 6.04409 8.40494 6.59863 8.40494ZM10.4986 3.03221C10.5441 3.22312 10.5145 3.40266 10.41 3.57085C10.3055 3.73903 10.1577 3.84585 9.96682 3.8913C9.77591 3.93675 9.59636 3.90721 9.42818 3.80266C9.25999 3.69812 9.15318 3.55039 9.10772 3.35948C9.06227 3.16857 9.09182 2.98903 9.19636 2.82085C9.30091 2.65266 9.44863 2.54585 9.63954 2.50039C9.83045 2.44584 10.01 2.47312 10.1782 2.58221C10.3464 2.6913 10.4532 2.8413 10.4986 3.03221Z" fill="white"/>
</svg>
