<svg width="21" height="21" viewBox="0 0 21 21" fill="none" xmlns="http://www.w3.org/2000/svg">
<path d="M15.5003 13V8C15.5003 5.64333 15.5003 4.46417 14.7678 3.7325C14.0362 3 12.857 3 10.5003 3H7.16699C4.81033 3 3.63116 3 2.89949 3.7325C2.16699 4.46417 2.16699 5.64333 2.16699 8V13C2.16699 15.3567 2.16699 16.5358 2.89949 17.2675C3.63116 18 4.81033 18 7.16699 18H17.167M5.50033 7.16667H12.167M5.50033 10.5H12.167M5.50033 13.8333H8.83366" stroke="white" stroke-width="1.5" stroke-linecap="round" stroke-linejoin="round"/>
<path d="M15.5 7.16663H16.3333C17.5117 7.16663 18.1008 7.16663 18.4667 7.53329C18.8333 7.89913 18.8333 8.48829 18.8333 9.66663V16.3333C18.8333 16.7753 18.6577 17.1992 18.3452 17.5118C18.0326 17.8244 17.6087 18 17.1667 18C16.7246 18 16.3007 17.8244 15.9882 17.5118C15.6756 17.1992 15.5 16.7753 15.5 16.3333V7.16663Z" stroke="white" stroke-width="1.5" stroke-linecap="round" stroke-linejoin="round"/>
</svg>
