<svg width="223" height="54" viewBox="0 0 223 54" fill="none" xmlns="http://www.w3.org/2000/svg">
<path d="M205.225 50.6945H200.827C199.841 50.6945 199.007 49.8638 199.007 48.882V41.1033C199.007 40.1215 199.841 39.2907 200.827 39.2907H205.149C205.832 39.2907 206.439 38.6866 206.439 38.0069V37.2516H198.022H197.87C195.898 37.4027 194.382 38.9886 194.382 40.9522V49.2596C194.382 51.2232 195.898 52.8091 197.87 52.9602H198.022H206.439V52.0539C206.514 51.2987 205.908 50.6945 205.225 50.6945Z" fill="#595959"/>
<path d="M191.652 37.2516H187.33V52.9602H191.652V37.2516Z" fill="#595959"/>
<path d="M208.183 37.2517V38.2334C208.183 38.8376 208.638 39.2907 209.244 39.2907H213.036V52.8847H217.358V39.2907H218.874H221.073C221.68 39.2907 222.135 38.8376 222.135 38.2334V37.1761H208.183V37.2517Z" fill="#595959"/>
<path d="M30.8023 22.5527H8.33939C8.33939 22.5527 0.5 22.5527 0.5 30.8443V52.8549H13.0129V30.9951C13.0129 29.186 14.5205 27.8292 16.1788 27.8292H22.8121C24.6212 27.8292 25.978 29.3367 25.978 30.9951V52.8549H38.4909V30.8443C38.6417 22.5527 30.8023 22.5527 30.8023 22.5527Z" fill="#49A942"/>
<path d="M126.835 22.5527H91.2559C91.2559 22.5527 83.4165 22.5527 83.4165 30.8443V52.8549H95.9294V30.9951C95.9294 29.186 97.437 27.8292 99.0953 27.8292H100.754C102.563 27.8292 103.92 29.3367 103.92 30.9951V52.8549H113.719V30.9951C113.719 29.186 115.226 27.8292 116.885 27.8292H118.543C120.352 27.8292 121.709 29.3367 121.709 30.9951V52.8549H134.674V30.8443C134.674 22.5527 126.835 22.5527 126.835 22.5527Z" fill="#49A942"/>
<path d="M147.187 53.3072H169.65C169.65 53.3072 177.489 53.3072 177.489 45.0155V22.8542H164.826V44.714C164.826 46.5231 163.318 47.8799 161.66 47.8799H155.026C153.217 47.8799 151.861 46.3723 151.861 44.714V22.8542H139.348V44.8648C139.348 53.3072 147.187 53.3072 147.187 53.3072Z" fill="#49A942"/>
<path d="M199.5 11.6981C199.5 17.8792 194.525 22.7034 188.495 22.7034C182.313 22.7034 177.489 17.7284 177.489 11.6981C177.489 5.51705 182.464 0.692802 188.495 0.692802C194.525 0.692802 199.5 5.6678 199.5 11.6981Z" fill="url(#paint0_radial_559_164)"/>
<path d="M70.9035 22.5527H46.4807H43.7671V25.2663C43.7671 26.7739 44.9732 27.9799 46.4807 27.9799H63.0641C64.4209 27.9799 66.0792 28.4322 66.0792 31.4473L51.7572 34.764C46.7822 36.2716 42.561 38.8345 42.561 43.9602C42.561 49.086 46.6315 53.1564 51.7572 53.1564H70.9035C70.9035 53.1564 78.7429 53.1564 78.7429 44.8648V30.8443C78.7429 22.5527 70.9035 22.5527 70.9035 22.5527ZM66.23 44.714C66.23 46.5231 64.7224 47.8799 63.0641 47.8799H56.7322C54.9232 47.8799 52.8126 46.6739 52.8126 43.508C52.8126 40.4928 54.9232 39.739 56.7322 39.2867L66.3807 37.1761V44.714H66.23Z" fill="#49A942"/>
<defs>
<radialGradient id="paint0_radial_559_164" cx="0" cy="0" r="1" gradientUnits="userSpaceOnUse" gradientTransform="translate(183.656 6.98301) scale(17.8943 17.8943)">
<stop stop-color="#7ED3F7"/>
<stop offset="1" stop-color="#0089CF"/>
</radialGradient>
</defs>
</svg>
