<svg width="200" height="49" viewBox="0 0 200 49" fill="none" xmlns="http://www.w3.org/2000/svg">
<path d="M27.5186 20.8496H7.80322C7.80322 20.8496 0.902832 20.8496 0.902832 28.1752V47.5088H11.8979V28.3263C11.8979 26.7403 13.187 25.4564 14.7794 25.4564H20.6182C22.2106 25.4564 23.4997 26.7403 23.4997 28.3263V47.5088H34.4948V28.1752C34.419 20.8496 27.5186 20.8496 27.5186 20.8496Z" fill="white"/>
<path d="M112.295 20.8496H80.9018C80.9018 20.8496 74.0015 20.8496 74.0015 28.1752V47.5088H84.9966V28.3263C84.9966 26.7403 86.2857 25.4564 87.8781 25.4564H89.3946C90.987 25.4564 92.2761 26.7403 92.2761 28.3263V47.5088H100.996V28.3263C100.996 26.7403 102.285 25.4564 103.878 25.4564H105.394C106.987 25.4564 108.276 26.7403 108.276 28.3263V47.5088H119.271V28.1752C119.195 20.8496 112.295 20.8496 112.295 20.8496Z" fill="white"/>
<path d="M130.19 47.8109H149.981C149.981 47.8109 156.882 47.8109 156.882 40.4853V21.0762H145.811V40.2587C145.811 41.8447 144.522 43.1285 142.929 43.1285H137.09C135.498 43.1285 134.209 41.8447 134.209 40.2587V21.0762H123.214V40.4853C123.29 47.8109 130.19 47.8109 130.19 47.8109Z" fill="white"/>
<path d="M176.37 11.4093C176.37 16.7714 171.972 21.1516 166.588 21.1516C161.204 21.1516 156.806 16.7714 156.806 11.4093C156.806 6.04726 161.204 1.66699 166.588 1.66699C172.048 1.66699 176.37 6.04726 176.37 11.4093Z" fill="white"/>
<path d="M183.043 45.6206H178.645C177.659 45.6206 176.825 44.7899 176.825 43.8081V36.0293C176.825 35.0476 177.659 34.2168 178.645 34.2168H182.967C183.649 34.2168 184.256 33.6126 184.256 32.933V32.1777H175.839H175.687C173.716 32.3288 172.199 33.9147 172.199 35.8783V44.1857C172.199 46.1493 173.716 47.7352 175.687 47.8863H175.839H184.256V46.98C184.332 46.2248 183.725 45.6206 183.043 45.6206Z" fill="white"/>
<path d="M169.469 32.1777H165.147V47.8863H169.469V32.1777Z" fill="white"/>
<path d="M186 32.1781V33.1598C186 33.764 186.455 34.2172 187.062 34.2172H190.853V47.8111H195.175V34.2172H196.692H198.891C199.497 34.2172 199.952 33.764 199.952 33.1598V32.1025H186V32.1781Z" fill="white"/>
<path d="M58.8359 40.3342C58.8359 41.9202 57.5468 43.2041 55.9544 43.2041H50.3431C48.7507 43.2041 46.9308 42.2223 46.9308 39.3525C46.9308 36.6337 48.8265 36.105 50.3431 35.5764L58.8359 33.7638V40.3342ZM63.0064 20.8496H41.3953H39.0447V23.1908C39.0447 24.4747 40.1062 25.532 41.3953 25.532H55.9544C57.1676 25.532 58.6084 25.9096 58.6084 28.5528L46.0967 31.6492C41.6986 32.9331 37.9072 35.2743 37.9072 39.8056C37.9072 44.2614 41.547 47.9619 46.0967 47.9619H62.9306C62.9306 47.9619 69.831 47.9619 69.831 40.6363V28.1752C69.9068 20.8496 63.0064 20.8496 63.0064 20.8496Z" fill="white"/>
</svg>
