<svg width="552" height="129" viewBox="0 0 552 129" fill="none" xmlns="http://www.w3.org/2000/svg">
<path d="M3.08 43.8701V1.51012H12.5V43.8701H3.08ZM10.34 43.8701V35.5901H31.28V43.8701H10.34ZM49.2041 44.5301C46.0441 44.5301 43.2241 43.8901 40.7441 42.6101C38.3041 41.2901 36.3841 39.4701 34.9841 37.1501C33.5841 34.8301 32.8841 32.2101 32.8841 29.2901C32.8841 26.3701 33.5641 23.7701 34.9241 21.4901C36.3241 19.1701 38.2041 17.3501 40.5641 16.0301C42.9241 14.7101 45.5841 14.0501 48.5441 14.0501C51.4241 14.0501 53.9641 14.6701 56.1641 15.9101C58.3641 17.1501 60.0841 18.8701 61.3241 21.0701C62.6041 23.2701 63.2441 25.7901 63.2441 28.6301C63.2441 29.1501 63.2041 29.7101 63.1241 30.3101C63.0841 30.8701 62.9841 31.5301 62.8241 32.2901L37.6841 32.3501V26.0501L58.9241 25.9901L54.9641 28.6301C54.9241 26.9501 54.6641 25.5701 54.1841 24.4901C53.7041 23.3701 52.9841 22.5301 52.0241 21.9701C51.1041 21.3701 49.9641 21.0701 48.6041 21.0701C47.1641 21.0701 45.9041 21.4101 44.8241 22.0901C43.7841 22.7301 42.9641 23.6501 42.3641 24.8501C41.8041 26.0501 41.5241 27.5101 41.5241 29.2301C41.5241 30.9501 41.8241 32.4301 42.4241 33.6701C43.0641 34.8701 43.9441 35.8101 45.0641 36.4901C46.2241 37.1301 47.5841 37.4501 49.1441 37.4501C50.5841 37.4501 51.8841 37.2101 53.0441 36.7301C54.2041 36.2101 55.2241 35.4501 56.1041 34.4501L61.1441 39.4901C59.7041 41.1701 57.9641 42.4301 55.9241 43.2701C53.8841 44.1101 51.6441 44.5301 49.2041 44.5301ZM70.5706 43.8701V2.65012H79.7506V43.8701H70.5706ZM63.9706 22.5101V14.7101H86.3506V22.5101H63.9706ZM90.6003 18.5501L94.9803 10.3301L97.6803 9.61011C97.4003 10.1701 97.0603 10.6501 96.6603 11.0501C96.2603 11.4501 95.8003 11.6501 95.2803 11.6501C94.1203 11.6501 93.0603 11.1701 92.1003 10.2101C91.1403 9.25011 90.6603 8.03011 90.6603 6.55011C90.6603 4.99012 91.1803 3.67012 92.2203 2.59012C93.3003 1.47012 94.6203 0.910116 96.1803 0.910116C97.6603 0.910116 98.9403 1.47012 100.02 2.59012C101.14 3.67012 101.7 4.99012 101.7 6.55011C101.7 7.19012 101.58 7.95012 101.34 8.83011C101.1 9.67012 100.62 10.7501 99.9003 12.0701L95.0403 20.9501L90.6003 18.5501ZM113.702 44.5901C111.982 44.5901 110.282 44.3701 108.602 43.9301C106.962 43.4901 105.422 42.8701 103.982 42.0701C102.582 41.2301 101.382 40.2701 100.382 39.1901L105.602 33.9101C106.562 34.9501 107.702 35.7701 109.022 36.3701C110.342 36.9301 111.782 37.2101 113.342 37.2101C114.422 37.2101 115.242 37.0501 115.802 36.7301C116.402 36.4101 116.702 35.9701 116.702 35.4101C116.702 34.6901 116.342 34.1501 115.622 33.7901C114.942 33.3901 114.062 33.0501 112.982 32.7701C111.902 32.4501 110.762 32.1101 109.562 31.7501C108.362 31.3901 107.222 30.8901 106.142 30.2501C105.062 29.6101 104.182 28.7301 103.502 27.6101C102.822 26.4501 102.482 24.9901 102.482 23.2301C102.482 21.3501 102.962 19.7301 103.922 18.3701C104.882 16.9701 106.242 15.8701 108.002 15.0701C109.762 14.2701 111.822 13.8701 114.182 13.8701C116.662 13.8701 118.942 14.3101 121.022 15.1901C123.142 16.0301 124.862 17.2901 126.182 18.9701L120.962 24.2501C120.042 23.1701 119.002 22.4101 117.842 21.9701C116.722 21.5301 115.622 21.3101 114.542 21.3101C113.502 21.3101 112.722 21.4701 112.202 21.7901C111.682 22.0701 111.422 22.4901 111.422 23.0501C111.422 23.6501 111.762 24.1301 112.442 24.4901C113.122 24.8501 114.002 25.1701 115.082 25.4501C116.162 25.7301 117.302 26.0701 118.502 26.4701C119.702 26.8701 120.842 27.4101 121.922 28.0901C123.002 28.7701 123.882 29.6901 124.562 30.8501C125.242 31.9701 125.582 33.4501 125.582 35.2901C125.582 38.1301 124.502 40.3901 122.342 42.0701C120.222 43.7501 117.342 44.5901 113.702 44.5901ZM161.728 44.5301C158.568 44.5301 155.628 43.9901 152.908 42.9101C150.228 41.7901 147.868 40.2301 145.828 38.2301C143.828 36.2301 142.268 33.9101 141.148 31.2701C140.028 28.5901 139.468 25.7101 139.468 22.6301C139.468 19.5501 140.028 16.6901 141.148 14.0501C142.268 11.3701 143.828 9.05012 145.828 7.09012C147.828 5.13011 150.168 3.61011 152.848 2.53012C155.568 1.41012 158.508 0.850117 161.668 0.850117C165.028 0.850117 168.008 1.39012 170.608 2.47011C173.248 3.55011 175.548 5.03011 177.508 6.91011L171.208 13.2701C170.088 12.0701 168.728 11.1301 167.128 10.4501C165.568 9.77012 163.748 9.43012 161.668 9.43012C159.828 9.43012 158.128 9.75012 156.568 10.3901C155.048 10.9901 153.728 11.8701 152.608 13.0301C151.528 14.1901 150.668 15.5901 150.028 17.2301C149.428 18.8701 149.128 20.6701 149.128 22.6301C149.128 24.6301 149.428 26.4501 150.028 28.0901C150.668 29.7301 151.528 31.1301 152.608 32.2901C153.728 33.4501 155.048 34.3501 156.568 34.9901C158.128 35.6301 159.828 35.9501 161.668 35.9501C163.828 35.9501 165.708 35.6101 167.308 34.9301C168.908 34.2501 170.288 33.3101 171.448 32.1101L177.808 38.4701C175.768 40.3501 173.428 41.8301 170.788 42.9101C168.188 43.9901 165.168 44.5301 161.728 44.5301ZM194.893 44.5301C191.893 44.5301 189.173 43.8701 186.733 42.5501C184.333 41.1901 182.433 39.3501 181.033 37.0301C179.633 34.7101 178.933 32.1101 178.933 29.2301C178.933 26.3501 179.633 23.7701 181.033 21.4901C182.433 19.2101 184.333 17.4101 186.733 16.0901C189.133 14.7301 191.853 14.0501 194.893 14.0501C197.933 14.0501 200.653 14.7101 203.053 16.0301C205.453 17.3501 207.353 19.1701 208.753 21.4901C210.153 23.7701 210.853 26.3501 210.853 29.2301C210.853 32.1101 210.153 34.7101 208.753 37.0301C207.353 39.3501 205.453 41.1901 203.053 42.5501C200.653 43.8701 197.933 44.5301 194.893 44.5301ZM194.893 36.1901C196.213 36.1901 197.373 35.9101 198.373 35.3501C199.373 34.7501 200.133 33.9301 200.653 32.8901C201.213 31.8101 201.493 30.5901 201.493 29.2301C201.493 27.8701 201.213 26.6901 200.653 25.6901C200.093 24.6501 199.313 23.8501 198.313 23.2901C197.353 22.6901 196.213 22.3901 194.893 22.3901C193.613 22.3901 192.473 22.6901 191.473 23.2901C190.473 23.8501 189.693 24.6501 189.133 25.6901C188.573 26.7301 188.293 27.9301 188.293 29.2901C188.293 30.6101 188.573 31.8101 189.133 32.8901C189.693 33.9301 190.473 34.7501 191.473 35.3501C192.473 35.9101 193.613 36.1901 194.893 36.1901ZM234.083 43.8701V27.2501C234.083 25.7301 233.603 24.5101 232.643 23.5901C231.723 22.6301 230.543 22.1501 229.103 22.1501C228.103 22.1501 227.223 22.3701 226.463 22.8101C225.703 23.2101 225.103 23.8101 224.663 24.6101C224.223 25.3701 224.003 26.2501 224.003 27.2501L220.463 25.5101C220.463 23.2301 220.963 21.2301 221.963 19.5101C222.963 17.7901 224.343 16.4701 226.103 15.5501C227.903 14.5901 229.923 14.1101 232.163 14.1101C234.323 14.1101 236.223 14.6301 237.863 15.6701C239.543 16.6701 240.863 18.0101 241.823 19.6901C242.783 21.3701 243.263 23.2101 243.263 25.2101V43.8701H234.083ZM214.823 43.8701V14.7101H224.003V43.8701H214.823ZM267.819 43.8701V27.2501C267.819 25.7301 267.339 24.5101 266.379 23.5901C265.459 22.6301 264.279 22.1501 262.839 22.1501C261.839 22.1501 260.959 22.3701 260.199 22.8101C259.439 23.2101 258.839 23.8101 258.399 24.6101C257.959 25.3701 257.739 26.2501 257.739 27.2501L254.199 25.5101C254.199 23.2301 254.699 21.2301 255.699 19.5101C256.699 17.7901 258.079 16.4701 259.839 15.5501C261.639 14.5901 263.659 14.1101 265.899 14.1101C268.059 14.1101 269.959 14.6301 271.599 15.6701C273.279 16.6701 274.599 18.0101 275.559 19.6901C276.519 21.3701 276.999 23.2101 276.999 25.2101V43.8701H267.819ZM248.559 43.8701V14.7101H257.739V43.8701H248.559ZM296.695 44.5301C293.535 44.5301 290.715 43.8901 288.235 42.6101C285.795 41.2901 283.875 39.4701 282.475 37.1501C281.075 34.8301 280.375 32.2101 280.375 29.2901C280.375 26.3701 281.055 23.7701 282.415 21.4901C283.815 19.1701 285.695 17.3501 288.055 16.0301C290.415 14.7101 293.075 14.0501 296.035 14.0501C298.915 14.0501 301.455 14.6701 303.655 15.9101C305.855 17.1501 307.575 18.8701 308.815 21.0701C310.095 23.2701 310.735 25.7901 310.735 28.6301C310.735 29.1501 310.695 29.7101 310.615 30.3101C310.575 30.8701 310.475 31.5301 310.315 32.2901L285.175 32.3501V26.0501L306.415 25.9901L302.455 28.6301C302.415 26.9501 302.155 25.5701 301.675 24.4901C301.195 23.3701 300.475 22.5301 299.515 21.9701C298.595 21.3701 297.455 21.0701 296.095 21.0701C294.655 21.0701 293.395 21.4101 292.315 22.0901C291.275 22.7301 290.455 23.6501 289.855 24.8501C289.295 26.0501 289.015 27.5101 289.015 29.2301C289.015 30.9501 289.315 32.4301 289.915 33.6701C290.555 34.8701 291.435 35.8101 292.555 36.4901C293.715 37.1301 295.075 37.4501 296.635 37.4501C298.075 37.4501 299.375 37.2101 300.535 36.7301C301.695 36.2101 302.715 35.4501 303.595 34.4501L308.635 39.4901C307.195 41.1701 305.455 42.4301 303.415 43.2701C301.375 44.1101 299.135 44.5301 296.695 44.5301ZM328.666 44.5301C325.666 44.5301 322.946 43.8701 320.506 42.5501C318.066 41.2301 316.146 39.4101 314.746 37.0901C313.346 34.7701 312.646 32.1701 312.646 29.2901C312.646 26.3701 313.346 23.7701 314.746 21.4901C316.186 19.1701 318.126 17.3501 320.566 16.0301C323.006 14.7101 325.746 14.0501 328.786 14.0501C331.066 14.0501 333.146 14.4501 335.026 15.2501C336.946 16.0101 338.646 17.1701 340.126 18.7301L334.246 24.6101C333.566 23.8501 332.766 23.2901 331.846 22.9301C330.966 22.5701 329.946 22.3901 328.786 22.3901C327.466 22.3901 326.286 22.6901 325.246 23.2901C324.246 23.8501 323.446 24.6501 322.846 25.6901C322.286 26.6901 322.006 27.8701 322.006 29.2301C322.006 30.5901 322.286 31.7901 322.846 32.8301C323.446 33.8701 324.266 34.6901 325.306 35.2901C326.346 35.8901 327.506 36.1901 328.786 36.1901C329.986 36.1901 331.046 35.9901 331.966 35.5901C332.926 35.1501 333.746 34.5501 334.426 33.7901L340.246 39.6701C338.726 41.2701 337.006 42.4901 335.086 43.3301C333.166 44.1301 331.026 44.5301 328.666 44.5301ZM347.403 43.8701V2.65012H356.583V43.8701H347.403ZM340.803 22.5101V14.7101H363.183V22.5101H340.803ZM404.753 43.8701L385.313 22.5101C383.793 20.8301 382.693 19.2501 382.013 17.7701C381.333 16.2501 380.993 14.5901 380.993 12.7901C380.993 10.6301 381.533 8.65012 382.613 6.85011C383.733 5.01011 385.233 3.55011 387.113 2.47011C389.033 1.35011 391.253 0.790114 393.773 0.790114C395.733 0.790114 397.473 1.09011 398.993 1.69012C400.513 2.25012 401.833 2.99012 402.953 3.91012C404.073 4.79011 404.933 5.73011 405.533 6.73012L399.413 12.5501C398.613 11.4701 397.773 10.6501 396.893 10.0901C396.053 9.53012 395.053 9.25012 393.893 9.25012C392.693 9.25012 391.693 9.61012 390.893 10.3301C390.133 11.0101 389.753 11.8701 389.753 12.9101C389.753 13.7901 389.933 14.5701 390.293 15.2501C390.693 15.9301 391.253 16.6901 391.973 17.5301L415.493 43.8701H404.753ZM390.833 44.5301C387.953 44.5301 385.433 43.9701 383.273 42.8501C381.153 41.6901 379.493 40.1301 378.293 38.1701C377.133 36.1701 376.553 33.9501 376.553 31.5101C376.553 28.8701 377.253 26.5301 378.653 24.4901C380.053 22.4101 382.153 20.7301 384.953 19.4501L388.853 25.3901C387.653 25.9501 386.753 26.6901 386.153 27.6101C385.553 28.5301 385.253 29.6301 385.253 30.9101C385.253 31.9501 385.473 32.8701 385.913 33.6701C386.393 34.4301 387.073 35.0301 387.953 35.4701C388.833 35.9101 389.873 36.1301 391.073 36.1301C392.433 36.1301 393.593 35.8501 394.553 35.2901C395.553 34.6901 396.393 33.8701 397.073 32.8301L403.253 39.1901C402.573 40.0701 401.593 40.9301 400.313 41.7701C399.073 42.5701 397.633 43.2301 395.993 43.7501C394.393 44.2701 392.673 44.5301 390.833 44.5301ZM13.46 115.87V74.1101H22.88V115.87H13.46ZM0.2 81.7301V73.5101H36.14V81.7301H0.2ZM34.1595 115.87V86.7101H43.3395V115.87H34.1595ZM43.3395 99.8501L39.4995 96.8501C40.2595 93.4501 41.5395 90.8101 43.3395 88.9301C45.1395 87.0501 47.6395 86.1101 50.8395 86.1101C52.2395 86.1101 53.4595 86.3301 54.4995 86.7701C55.5795 87.1701 56.5195 87.8101 57.3195 88.6901L51.8595 95.5901C51.4595 95.1501 50.9595 94.8101 50.3595 94.5701C49.7595 94.3301 49.0795 94.2101 48.3195 94.2101C46.7995 94.2101 45.5795 94.6901 44.6595 95.6501C43.7795 96.5701 43.3395 97.9701 43.3395 99.8501ZM70.5247 116.47C67.8447 116.47 65.4447 115.81 63.3247 114.49C61.2447 113.17 59.5847 111.37 58.3447 109.09C57.1447 106.81 56.5447 104.21 56.5447 101.29C56.5447 98.3701 57.1447 95.7701 58.3447 93.4901C59.5847 91.2101 61.2447 89.4101 63.3247 88.0901C65.4447 86.7701 67.8447 86.1101 70.5247 86.1101C72.4847 86.1101 74.2447 86.4901 75.8047 87.2501C77.4047 88.0101 78.7047 89.0701 79.7047 90.4301C80.7047 91.7501 81.2647 93.2701 81.3847 94.9901V107.59C81.2647 109.31 80.7047 110.85 79.7047 112.21C78.7447 113.53 77.4647 114.57 75.8647 115.33C74.2647 116.09 72.4847 116.47 70.5247 116.47ZM72.3847 108.19C74.3447 108.19 75.9247 107.55 77.1247 106.27C78.3247 104.95 78.9247 103.29 78.9247 101.29C78.9247 99.9301 78.6447 98.7301 78.0847 97.6901C77.5647 96.6501 76.8047 95.8501 75.8047 95.2901C74.8447 94.6901 73.7247 94.3901 72.4447 94.3901C71.1647 94.3901 70.0247 94.6901 69.0247 95.2901C68.0647 95.8501 67.2847 96.6501 66.6847 97.6901C66.1247 98.7301 65.8447 99.9301 65.8447 101.29C65.8447 102.61 66.1247 103.79 66.6847 104.83C67.2447 105.87 68.0247 106.69 69.0247 107.29C70.0247 107.89 71.1447 108.19 72.3847 108.19ZM78.5647 115.87V108.01L79.9447 100.93L78.5647 93.8501V86.7101H87.5647V115.87H78.5647ZM112.688 115.87V99.2501C112.688 97.7301 112.208 96.5101 111.248 95.5901C110.328 94.6301 109.148 94.1501 107.708 94.1501C106.708 94.1501 105.828 94.3701 105.068 94.8101C104.308 95.2101 103.708 95.8101 103.268 96.6101C102.828 97.3701 102.608 98.2501 102.608 99.2501L99.0683 97.5101C99.0683 95.2301 99.5683 93.2301 100.568 91.5101C101.568 89.7901 102.948 88.4701 104.708 87.5501C106.508 86.5901 108.528 86.1101 110.768 86.1101C112.928 86.1101 114.828 86.6301 116.468 87.6701C118.148 88.6701 119.468 90.0101 120.428 91.6901C121.388 93.3701 121.868 95.2101 121.868 97.2101V115.87H112.688ZM93.4283 115.87V86.7101H102.608V115.87H93.4283ZM137.784 116.59C136.064 116.59 134.364 116.37 132.684 115.93C131.044 115.49 129.504 114.87 128.064 114.07C126.664 113.23 125.464 112.27 124.464 111.19L129.684 105.91C130.644 106.95 131.784 107.77 133.104 108.37C134.424 108.93 135.864 109.21 137.424 109.21C138.504 109.21 139.324 109.05 139.884 108.73C140.484 108.41 140.784 107.97 140.784 107.41C140.784 106.69 140.424 106.15 139.704 105.79C139.024 105.39 138.144 105.05 137.064 104.77C135.984 104.45 134.844 104.11 133.644 103.75C132.444 103.39 131.304 102.89 130.224 102.25C129.144 101.61 128.264 100.73 127.584 99.6101C126.904 98.4501 126.564 96.9901 126.564 95.2301C126.564 93.3501 127.044 91.7301 128.004 90.3701C128.964 88.9701 130.324 87.8701 132.084 87.0701C133.844 86.2701 135.904 85.8701 138.264 85.8701C140.744 85.8701 143.024 86.3101 145.104 87.1901C147.224 88.0301 148.944 89.2901 150.264 90.9701L145.044 96.2501C144.124 95.1701 143.084 94.4101 141.924 93.9701C140.804 93.5301 139.704 93.3101 138.624 93.3101C137.584 93.3101 136.804 93.4701 136.284 93.7901C135.764 94.0701 135.504 94.4901 135.504 95.0501C135.504 95.6501 135.844 96.1301 136.524 96.4901C137.204 96.8501 138.084 97.1701 139.164 97.4501C140.244 97.7301 141.384 98.0701 142.584 98.4701C143.784 98.8701 144.924 99.4101 146.004 100.09C147.084 100.77 147.964 101.69 148.644 102.85C149.324 103.97 149.664 105.45 149.664 107.29C149.664 110.13 148.584 112.39 146.424 114.07C144.304 115.75 141.424 116.59 137.784 116.59ZM157.765 115.87V84.1901C157.765 81.8301 158.285 79.7101 159.325 77.8301C160.405 75.9101 161.905 74.4101 163.825 73.3301C165.745 72.2101 168.025 71.6501 170.665 71.6501C172.665 71.6501 174.405 71.9901 175.885 72.6701C177.405 73.3101 178.725 74.2101 179.845 75.3701L174.085 81.1301C173.685 80.7301 173.225 80.4301 172.705 80.2301C172.225 79.9901 171.645 79.8701 170.965 79.8701C169.725 79.8701 168.745 80.2301 168.025 80.9501C167.305 81.6701 166.945 82.6501 166.945 83.8901V115.87H157.765ZM151.345 94.5101V86.7101H175.345V94.5101H151.345ZM192.328 116.53C189.328 116.53 186.608 115.87 184.168 114.55C181.768 113.19 179.868 111.35 178.468 109.03C177.068 106.71 176.368 104.11 176.368 101.23C176.368 98.3501 177.068 95.7701 178.468 93.4901C179.868 91.2101 181.768 89.4101 184.168 88.0901C186.568 86.7301 189.288 86.0501 192.328 86.0501C195.368 86.0501 198.088 86.7101 200.488 88.0301C202.888 89.3501 204.788 91.1701 206.188 93.4901C207.588 95.7701 208.288 98.3501 208.288 101.23C208.288 104.11 207.588 106.71 206.188 109.03C204.788 111.35 202.888 113.19 200.488 114.55C198.088 115.87 195.368 116.53 192.328 116.53ZM192.328 108.19C193.648 108.19 194.808 107.91 195.808 107.35C196.808 106.75 197.568 105.93 198.088 104.89C198.648 103.81 198.928 102.59 198.928 101.23C198.928 99.8701 198.648 98.6901 198.088 97.6901C197.528 96.6501 196.748 95.8501 195.748 95.2901C194.788 94.6901 193.648 94.3901 192.328 94.3901C191.048 94.3901 189.908 94.6901 188.908 95.2901C187.908 95.8501 187.128 96.6501 186.568 97.6901C186.008 98.7301 185.728 99.9301 185.728 101.29C185.728 102.61 186.008 103.81 186.568 104.89C187.128 105.93 187.908 106.75 188.908 107.35C189.908 107.91 191.048 108.19 192.328 108.19ZM212.259 115.87V86.7101H221.439V115.87H212.259ZM221.439 99.8501L217.599 96.8501C218.359 93.4501 219.639 90.8101 221.439 88.9301C223.239 87.0501 225.739 86.1101 228.939 86.1101C230.339 86.1101 231.559 86.3301 232.599 86.7701C233.679 87.1701 234.619 87.8101 235.419 88.6901L229.959 95.5901C229.559 95.1501 229.059 94.8101 228.459 94.5701C227.859 94.3301 227.179 94.2101 226.419 94.2101C224.899 94.2101 223.679 94.6901 222.759 95.6501C221.879 96.5701 221.439 97.9701 221.439 99.8501ZM237.088 115.87V86.7101H246.268V115.87H237.088ZM255.748 115.87V98.8301C255.748 97.3501 255.288 96.2101 254.368 95.4101C253.488 94.5701 252.388 94.1501 251.068 94.1501C250.148 94.1501 249.328 94.3501 248.608 94.7501C247.888 95.1101 247.308 95.6301 246.868 96.3101C246.468 96.9901 246.268 97.8301 246.268 98.8301L242.728 97.2701C242.728 94.9501 243.228 92.9701 244.228 91.3301C245.228 89.6501 246.588 88.3701 248.308 87.4901C250.028 86.5701 251.968 86.1101 254.128 86.1101C256.168 86.1101 257.988 86.5701 259.588 87.4901C261.228 88.4101 262.528 89.6901 263.488 91.3301C264.448 92.9701 264.928 94.9301 264.928 97.2101V115.87H255.748ZM274.408 115.87V98.8301C274.408 97.3501 273.948 96.2101 273.028 95.4101C272.148 94.5701 271.048 94.1501 269.728 94.1501C268.808 94.1501 267.988 94.3501 267.268 94.7501C266.548 95.1101 265.968 95.6301 265.528 96.3101C265.128 96.9901 264.928 97.8301 264.928 98.8301L259.648 98.1101C259.728 95.6301 260.308 93.5101 261.388 91.7501C262.508 89.9501 263.968 88.5701 265.768 87.6101C267.608 86.6101 269.668 86.1101 271.948 86.1101C274.188 86.1101 276.168 86.5901 277.888 87.5501C279.648 88.4701 281.028 89.8101 282.028 91.5701C283.068 93.2901 283.588 95.3701 283.588 97.8101V115.87H274.408ZM309.98 115.87V74.1101H319.4V115.87H309.98ZM296.72 81.7301V73.5101H332.66V81.7301H296.72ZM343.547 116.53C340.547 116.53 337.827 115.87 335.387 114.55C332.987 113.19 331.087 111.35 329.687 109.03C328.287 106.71 327.587 104.11 327.587 101.23C327.587 98.3501 328.287 95.7701 329.687 93.4901C331.087 91.2101 332.987 89.4101 335.387 88.0901C337.787 86.7301 340.507 86.0501 343.547 86.0501C346.587 86.0501 349.307 86.7101 351.707 88.0301C354.107 89.3501 356.007 91.1701 357.407 93.4901C358.807 95.7701 359.507 98.3501 359.507 101.23C359.507 104.11 358.807 106.71 357.407 109.03C356.007 111.35 354.107 113.19 351.707 114.55C349.307 115.87 346.587 116.53 343.547 116.53ZM343.547 108.19C344.867 108.19 346.027 107.91 347.027 107.35C348.027 106.75 348.787 105.93 349.307 104.89C349.867 103.81 350.147 102.59 350.147 101.23C350.147 99.8701 349.867 98.6901 349.307 97.6901C348.747 96.6501 347.967 95.8501 346.967 95.2901C346.007 94.6901 344.867 94.3901 343.547 94.3901C342.267 94.3901 341.127 94.6901 340.127 95.2901C339.127 95.8501 338.347 96.6501 337.787 97.6901C337.227 98.7301 336.947 99.9301 336.947 101.29C336.947 102.61 337.227 103.81 337.787 104.89C338.347 105.93 339.127 106.75 340.127 107.35C341.127 107.91 342.267 108.19 343.547 108.19ZM375.837 128.95C372.637 128.95 369.817 128.39 367.377 127.27C364.977 126.19 363.077 124.65 361.677 122.65L367.317 117.01C368.357 118.25 369.517 119.19 370.797 119.83C372.117 120.47 373.697 120.79 375.537 120.79C377.817 120.79 379.597 120.23 380.877 119.11C382.197 117.99 382.857 116.41 382.857 114.37V106.93L384.417 100.57L383.037 94.2101V86.7101H392.037V114.13C392.037 117.13 391.337 119.73 389.937 121.93C388.537 124.13 386.617 125.85 384.177 127.09C381.737 128.33 378.957 128.95 375.837 128.95ZM375.417 114.97C372.737 114.97 370.357 114.33 368.277 113.05C366.197 111.77 364.557 110.03 363.357 107.83C362.157 105.63 361.557 103.19 361.557 100.51C361.557 97.7901 362.157 95.3501 363.357 93.1901C364.557 90.9901 366.197 89.2701 368.277 88.0301C370.357 86.7501 372.737 86.1101 375.417 86.1101C377.417 86.1101 379.197 86.4901 380.757 87.2501C382.357 87.9701 383.637 89.0101 384.597 90.3701C385.597 91.6901 386.157 93.2301 386.277 94.9901V106.09C386.157 107.81 385.597 109.35 384.597 110.71C383.637 112.03 382.357 113.07 380.757 113.83C379.157 114.59 377.377 114.97 375.417 114.97ZM377.157 106.81C378.437 106.81 379.537 106.53 380.457 105.97C381.417 105.41 382.137 104.67 382.617 103.75C383.137 102.79 383.397 101.71 383.397 100.51C383.397 99.3101 383.137 98.2301 382.617 97.2701C382.137 96.3101 381.417 95.5501 380.457 94.9901C379.537 94.4301 378.437 94.1501 377.157 94.1501C375.917 94.1501 374.817 94.4301 373.857 94.9901C372.897 95.5501 372.157 96.3101 371.637 97.2701C371.117 98.2301 370.857 99.3101 370.857 100.51C370.857 101.63 371.117 102.69 371.637 103.69C372.157 104.65 372.877 105.41 373.797 105.97C374.757 106.53 375.877 106.81 377.157 106.81ZM412.317 116.53C409.157 116.53 406.337 115.89 403.857 114.61C401.417 113.29 399.497 111.47 398.097 109.15C396.697 106.83 395.997 104.21 395.997 101.29C395.997 98.3701 396.677 95.7701 398.037 93.4901C399.437 91.1701 401.317 89.3501 403.677 88.0301C406.037 86.7101 408.697 86.0501 411.657 86.0501C414.537 86.0501 417.077 86.6701 419.277 87.9101C421.477 89.1501 423.197 90.8701 424.437 93.0701C425.717 95.2701 426.357 97.7901 426.357 100.63C426.357 101.15 426.317 101.71 426.237 102.31C426.197 102.87 426.097 103.53 425.937 104.29L400.797 104.35V98.0501L422.037 97.9901L418.077 100.63C418.037 98.9501 417.777 97.5701 417.297 96.4901C416.817 95.3701 416.097 94.5301 415.137 93.9701C414.217 93.3701 413.077 93.0701 411.717 93.0701C410.277 93.0701 409.017 93.4101 407.937 94.0901C406.897 94.7301 406.077 95.6501 405.477 96.8501C404.917 98.0501 404.637 99.5101 404.637 101.23C404.637 102.95 404.937 104.43 405.537 105.67C406.177 106.87 407.057 107.81 408.177 108.49C409.337 109.13 410.697 109.45 412.257 109.45C413.697 109.45 414.997 109.21 416.157 108.73C417.317 108.21 418.337 107.45 419.217 106.45L424.257 111.49C422.817 113.17 421.077 114.43 419.037 115.27C416.997 116.11 414.757 116.53 412.317 116.53ZM433.683 115.87V74.6501H442.863V115.87H433.683ZM427.083 94.5101V86.7101H449.463V94.5101H427.083ZM472.168 115.87V99.2501C472.168 97.7301 471.688 96.5101 470.728 95.5901C469.808 94.6301 468.628 94.1501 467.188 94.1501C466.188 94.1501 465.308 94.3701 464.548 94.8101C463.788 95.2101 463.188 95.8101 462.748 96.6101C462.308 97.3701 462.088 98.2501 462.088 99.2501L458.548 97.5101C458.548 95.2301 459.028 93.2301 459.988 91.5101C460.948 89.7901 462.288 88.4701 464.008 87.5501C465.728 86.5901 467.708 86.1101 469.948 86.1101C472.228 86.1101 474.228 86.5901 475.948 87.5501C477.668 88.4701 478.988 89.7701 479.908 91.4501C480.868 93.0901 481.348 95.0101 481.348 97.2101V115.87H472.168ZM452.908 115.87V72.3101H462.088V115.87H452.908ZM501.044 116.53C497.884 116.53 495.064 115.89 492.584 114.61C490.144 113.29 488.224 111.47 486.824 109.15C485.424 106.83 484.724 104.21 484.724 101.29C484.724 98.3701 485.404 95.7701 486.764 93.4901C488.164 91.1701 490.044 89.3501 492.404 88.0301C494.764 86.7101 497.424 86.0501 500.384 86.0501C503.264 86.0501 505.804 86.6701 508.004 87.9101C510.204 89.1501 511.924 90.8701 513.164 93.0701C514.444 95.2701 515.084 97.7901 515.084 100.63C515.084 101.15 515.044 101.71 514.964 102.31C514.924 102.87 514.824 103.53 514.664 104.29L489.524 104.35V98.0501L510.764 97.9901L506.804 100.63C506.764 98.9501 506.504 97.5701 506.024 96.4901C505.544 95.3701 504.824 94.5301 503.864 93.9701C502.944 93.3701 501.804 93.0701 500.444 93.0701C499.004 93.0701 497.744 93.4101 496.664 94.0901C495.624 94.7301 494.804 95.6501 494.204 96.8501C493.644 98.0501 493.364 99.5101 493.364 101.23C493.364 102.95 493.664 104.43 494.264 105.67C494.904 106.87 495.784 107.81 496.904 108.49C498.064 109.13 499.424 109.45 500.984 109.45C502.424 109.45 503.724 109.21 504.884 108.73C506.044 108.21 507.064 107.45 507.944 106.45L512.984 111.49C511.544 113.17 509.804 114.43 507.764 115.27C505.724 116.11 503.484 116.53 501.044 116.53ZM518.915 115.87V86.7101H528.095V115.87H518.915ZM528.095 99.8501L524.255 96.8501C525.015 93.4501 526.295 90.8101 528.095 88.9301C529.895 87.0501 532.395 86.1101 535.595 86.1101C536.995 86.1101 538.215 86.3301 539.255 86.7701C540.335 87.1701 541.275 87.8101 542.075 88.6901L536.615 95.5901C536.215 95.1501 535.715 94.8101 535.115 94.5701C534.515 94.3301 533.835 94.2101 533.075 94.2101C531.555 94.2101 530.335 94.6901 529.415 95.6501C528.535 96.5701 528.095 97.9701 528.095 99.8501ZM546.048 116.53C544.488 116.53 543.188 115.99 542.148 114.91C541.108 113.83 540.588 112.53 540.588 111.01C540.588 109.41 541.108 108.09 542.148 107.05C543.188 105.97 544.488 105.43 546.048 105.43C547.648 105.43 548.948 105.97 549.948 107.05C550.988 108.09 551.508 109.41 551.508 111.01C551.508 112.53 550.988 113.83 549.948 114.91C548.948 115.99 547.648 116.53 546.048 116.53Z" fill="white" fill-opacity="0.34"/>
</svg>
