<svg width="39" height="38" viewBox="0 0 39 38" fill="none" xmlns="http://www.w3.org/2000/svg">
<path d="M13.0725 13.9715C13.0722 12.5036 13.3611 11.0501 13.9226 9.69386C14.4841 8.33765 15.3073 7.10534 16.3451 6.06731C17.383 5.02928 18.6151 4.20586 19.9712 3.64407C21.3273 3.08228 22.7808 2.79313 24.2487 2.79313V0.55957C20.6916 0.55957 17.2803 1.9726 14.765 4.48782C12.2498 7.00304 10.8368 10.4144 10.8368 13.9715H13.0725ZM24.2487 6.14768C22.1737 6.14768 20.1837 6.97197 18.7164 8.43921C17.2492 9.90646 16.4249 11.8965 16.4249 13.9715H14.1871C14.1871 12.6503 14.4474 11.342 14.9531 10.1214C15.4587 8.90078 16.1999 7.79174 17.1342 6.85761C18.0685 5.92348 19.1777 5.18255 20.3984 4.67714C21.6192 4.17173 22.9275 3.91174 24.2487 3.91201V6.14768ZM24.2487 9.50012C23.0632 9.50124 21.9265 9.97269 21.0882 10.811C20.2499 11.6493 19.7785 12.7859 19.7773 13.9715H17.5417C17.5414 13.0906 17.7147 12.2183 18.0517 11.4045C18.3886 10.5906 18.8826 9.85113 19.5055 9.22828C20.1284 8.60542 20.8678 8.11139 21.6817 7.77443C22.4955 7.43747 23.3678 7.26418 24.2487 7.26446V9.50012ZM14.1892 25.1477C11.2251 25.1477 8.3824 23.9702 6.28645 21.8742C4.1905 19.7783 3.01301 16.9356 3.01301 13.9715H0.777344C0.777904 17.5281 2.19118 20.939 4.70634 23.4537C7.2215 25.9685 10.6325 27.3812 14.1892 27.3812V25.1477ZM6.36545 13.9715C6.36601 16.0461 7.19055 18.0356 8.65773 19.5023C10.1249 20.9691 12.1146 21.7931 14.1892 21.7931V24.0309C11.5213 24.0309 8.96264 22.9711 7.07613 21.0846C5.18962 19.198 4.12979 16.6394 4.12979 13.9715H6.36545ZM9.7179 13.9715C9.71958 15.1566 10.1913 16.2927 11.0295 17.1306C11.8677 17.9684 13.0041 18.4396 14.1892 18.4407V20.6763C13.3086 20.6766 12.4365 20.5034 11.6227 20.1666C10.809 19.8297 10.0696 19.3359 9.4468 18.7133C8.82397 18.0906 8.3299 17.3514 7.99281 16.5378C7.65573 15.7242 7.48223 14.8521 7.48223 13.9715H9.7179ZM25.3655 12.8526C28.3296 12.8526 31.1723 14.0301 33.2682 16.126C35.3642 18.222 36.5417 21.0647 36.5417 24.0288H38.7773C38.7773 20.4717 37.3643 17.0604 34.8491 14.5452C32.3339 12.0299 28.9225 10.6169 25.3655 10.6169V12.8526ZM33.1892 24.0288C33.1892 21.9538 32.3649 19.9638 30.8977 18.4965C29.4305 17.0293 27.4405 16.205 25.3655 16.205V13.9715C28.033 13.9715 30.5914 15.031 32.4778 16.9171C34.3643 18.8031 35.4243 21.3612 35.4249 24.0288H33.1892ZM29.8368 24.0288C29.8351 22.8436 29.3634 21.7075 28.5252 20.8697C27.687 20.0318 26.5506 19.5607 25.3655 19.5596V17.3218C26.2461 17.3218 27.1182 17.4953 27.9318 17.8324C28.7454 18.1695 29.4846 18.6635 30.1073 19.2864C30.7299 19.9092 31.2237 20.6486 31.5606 21.4623C31.8974 22.276 32.0706 23.1481 32.0703 24.0288H29.8368ZM18.6606 24.0288C18.6608 24.6161 18.5454 25.1976 18.3208 25.7402C18.0962 26.2828 17.7668 26.7759 17.3516 27.1911C16.9363 27.6064 16.4433 27.9357 15.9007 28.1603C15.3581 28.3849 14.7765 28.5004 14.1892 28.5001V30.7358C15.9677 30.7352 17.6731 30.0284 18.9304 28.7706C20.1878 27.5129 20.8941 25.8072 20.8941 24.0288H18.6606ZM22.013 24.0288C22.013 26.1038 21.1887 28.0938 19.7215 29.561C18.2542 31.0283 16.2642 31.8526 14.1892 31.8526V34.0882C15.5103 34.0882 16.8183 33.828 18.0388 33.3225C19.2593 32.817 20.3682 32.076 21.3023 31.1419C22.2364 30.2078 22.9774 29.0988 23.4829 27.8784C23.9885 26.6579 24.2487 25.3498 24.2487 24.0288H22.013ZM14.1892 35.205C15.6569 35.205 17.1102 34.9159 18.4662 34.3543C19.8222 33.7926 21.0542 32.9694 22.092 31.9316C23.1298 30.8938 23.9531 29.6617 24.5147 28.3057C25.0764 26.9498 25.3655 25.4965 25.3655 24.0288H27.6011C27.6011 27.5858 26.1881 30.9972 23.6729 33.5124C21.1577 36.0276 17.7463 37.4407 14.1892 37.4407V35.205Z" fill="white"/>
</svg>
