<svg width="28" height="28" viewBox="0 0 28 28" fill="none" xmlns="http://www.w3.org/2000/svg">
<path d="M26.4437 5.85706C26.4437 6.45113 26.1161 7.03939 25.4795 7.58825C24.8429 8.1371 23.9099 8.6358 22.7337 9.05588C21.5575 9.47595 20.1611 9.80917 18.6243 10.0365C17.0876 10.2639 15.4404 10.3809 13.777 10.3809C10.4176 10.3809 7.19579 9.90425 4.82033 9.05588C2.44487 8.2075 1.11035 7.05685 1.11035 5.85706C1.11035 5.26298 1.43798 4.67473 2.07454 4.12587C2.7111 3.57702 3.64412 3.07832 4.82033 2.65824C5.99654 2.23817 7.3929 1.90495 8.92969 1.67761C10.4665 1.45026 12.1136 1.33325 13.777 1.33325C15.4404 1.33325 17.0876 1.45026 18.6243 1.67761C20.1611 1.90495 21.5575 2.23817 22.7337 2.65824C23.9099 3.07832 24.8429 3.57702 25.4795 4.12587C26.1161 4.67473 26.4437 5.26298 26.4437 5.85706Z" stroke="white" stroke-width="2" stroke-linecap="round" stroke-linejoin="round"/>
<path d="M26.4437 22.1428C26.4437 22.9369 25.8584 23.717 24.7467 24.4047C23.6349 25.0924 22.0359 25.6635 20.1104 26.0606C18.1848 26.4576 16.0005 26.6666 13.777 26.6666C11.5536 26.6666 9.36926 26.4576 7.44368 26.0606C5.51811 25.6635 3.91909 25.0924 2.80736 24.4047C1.69563 23.717 1.11035 22.9369 1.11035 22.1428" stroke="white" stroke-width="2" stroke-linecap="round" stroke-linejoin="round"/>
<path d="M26.4437 16.7141C26.4437 17.5082 25.8584 18.2883 24.7467 18.976C23.6349 19.6637 22.0359 20.2348 20.1104 20.6318C18.1848 21.0289 16.0005 21.2379 13.777 21.2379C11.5536 21.2379 9.36926 21.0289 7.44368 20.6318C5.51811 20.2348 3.9191 19.6637 2.80736 18.976C1.69563 18.2883 1.11035 17.5082 1.11035 16.7141" stroke="white" stroke-width="2" stroke-linecap="round" stroke-linejoin="round"/>
<path d="M26.4437 11.2856C26.4437 12.0797 25.8584 12.8598 24.7467 13.5475C23.6349 14.2353 22.0359 14.8063 20.1104 15.2034C18.1848 15.6004 16.0005 15.8095 13.777 15.8095C11.5536 15.8095 9.36926 15.6004 7.44368 15.2034C5.51811 14.8063 3.91909 14.2353 2.80736 13.5475C1.69563 12.8598 1.11035 12.0797 1.11035 11.2856" stroke="white" stroke-width="2" stroke-linecap="round" stroke-linejoin="round"/>
<path d="M1.11035 5.85718V22.1429" stroke="white" stroke-width="2" stroke-linecap="round" stroke-linejoin="round"/>
<path d="M26.4434 5.85718V22.1429" stroke="white" stroke-width="2" stroke-linecap="round" stroke-linejoin="round"/>
</svg>
