<svg width="12" height="14" viewBox="0 0 12 14" fill="none" xmlns="http://www.w3.org/2000/svg">
<path d="M6.48525 0.610924C6.342 0.467717 6.14774 0.387268 5.94518 0.387268C5.74262 0.387268 5.54836 0.467717 5.40511 0.610924L1.08379 4.93225C1.01083 5.00271 0.952638 5.087 0.912604 5.1802C0.872569 5.2734 0.851496 5.37364 0.850615 5.47506C0.849733 5.57649 0.869061 5.67708 0.90747 5.77096C0.945879 5.86484 1.0026 5.95013 1.07432 6.02185C1.14605 6.09358 1.23134 6.1503 1.32522 6.18871C1.4191 6.22712 1.51968 6.24644 1.62111 6.24556C1.72254 6.24468 1.82278 6.22361 1.91598 6.18357C2.00917 6.14354 2.09346 6.08534 2.16393 6.01238L5.18129 2.99502L5.18129 13.1112C5.18129 13.3138 5.26177 13.5081 5.40503 13.6514C5.54829 13.7946 5.74258 13.8751 5.94518 13.8751C6.14778 13.8751 6.34207 13.7946 6.48533 13.6514C6.62859 13.5081 6.70907 13.3138 6.70907 13.1112L6.70907 2.99502L9.72643 6.01238C9.8705 6.15153 10.0635 6.22853 10.2638 6.22679C10.464 6.22505 10.6556 6.14471 10.7973 6.00308C10.9389 5.86145 11.0192 5.66985 11.021 5.46956C11.0227 5.26928 10.9457 5.07632 10.8066 4.93225L6.48525 0.610924Z" fill="white"/>
</svg>
