<svg width="26" height="26" viewBox="0 0 26 26" fill="none" xmlns="http://www.w3.org/2000/svg">
<path d="M2.66902 25.6666C1.93963 25.6666 1.3311 25.4228 0.843435 24.9351C0.355768 24.4474 0.111407 23.8384 0.110352 23.1079V2.89192C0.110352 2.16253 0.354712 1.554 0.843435 1.06634C1.33216 0.578668 1.94069 0.334308 2.66902 0.333252H22.8866C23.6149 0.333252 24.2235 0.577613 24.7122 1.06634C25.2009 1.55506 25.4447 2.16359 25.4437 2.89192V23.1095C25.4437 23.8378 25.1999 24.4464 24.7122 24.9351C24.2245 25.4238 23.6155 25.6676 22.885 25.6666H2.66902ZM1.69368 8.24675H23.8604V2.89192C23.8604 2.64809 23.759 2.42431 23.5564 2.22059C23.3537 2.01686 23.1299 1.91553 22.885 1.91659H2.66902C2.42519 1.91659 2.20141 2.01792 1.99768 2.22059C1.79396 2.42325 1.69263 2.64703 1.69368 2.89192V8.24675ZM1.69368 16.1698H23.8604V9.83009H1.69368V16.1698ZM2.66902 24.0833H22.8866C23.1294 24.0833 23.3526 23.9819 23.5564 23.7793C23.7601 23.5766 23.8614 23.3528 23.8604 23.1079V17.7531H1.69368V23.1079C1.69368 23.3518 1.79502 23.5755 1.99768 23.7793C2.20035 23.983 2.4236 24.0843 2.66743 24.0833M5.76919 6.35625C5.40607 6.35625 5.10313 6.23328 4.86035 5.98734C4.61757 5.74034 4.49618 5.43528 4.49618 5.07217C4.49618 4.70906 4.61969 4.40559 4.86669 4.16175C5.11369 3.91792 5.41821 3.79653 5.78027 3.79759C6.14232 3.79864 6.4458 3.92214 6.69069 4.16809C6.93557 4.41403 7.05696 4.71856 7.05485 5.08167C7.05274 5.44478 6.92924 5.74825 6.68435 5.99209C6.43946 6.23592 6.13441 6.35731 5.76919 6.35625ZM5.76919 14.2793C5.40607 14.2793 5.10313 14.1558 4.86035 13.9088C4.61757 13.6618 4.49618 13.3572 4.49618 12.9952C4.49618 12.6331 4.61916 12.3296 4.8651 12.0848C5.11105 11.8399 5.4161 11.7185 5.78027 11.7206C6.14443 11.7227 6.44791 11.8457 6.69069 12.0895C6.93346 12.3333 7.05485 12.6384 7.05485 13.0047C7.05485 13.3709 6.93135 13.6744 6.68435 13.9151C6.43735 14.1558 6.1323 14.2771 5.76919 14.2793ZM5.76919 22.2007C5.40607 22.2007 5.10313 22.0777 4.86035 21.8318C4.61757 21.5858 4.49566 21.2808 4.4946 20.9166C4.49355 20.5524 4.61652 20.2495 4.86352 20.0078C5.11052 19.766 5.41557 19.6446 5.77869 19.6436C6.1418 19.6425 6.44527 19.7655 6.6891 20.0125C6.93293 20.2595 7.05432 20.5646 7.05327 20.9277C7.05221 21.2908 6.92871 21.5943 6.68277 21.8381C6.43682 22.0819 6.13177 22.2033 5.7676 22.2023" fill="white"/>
</svg>
