<svg width="437" height="106" viewBox="0 0 437 106" fill="none" xmlns="http://www.w3.org/2000/svg">
<path d="M5.15859 80.8699V27.6949H14.5336L18.5836 38.5699V80.8699H5.15859ZM41.8336 80.8699L10.7836 41.4199L14.5336 27.6949L45.6586 67.1449L41.8336 80.8699ZM41.8336 80.8699L38.3836 69.6949V27.6949H51.8086V80.8699H41.8336ZM57.3621 80.8699L77.9871 27.6949H90.9621L111.362 80.8699H97.3371L81.9621 36.1699H86.8371L71.0871 80.8699H57.3621ZM69.8871 71.5699V60.9199H99.2121V71.5699H69.8871ZM116.34 80.8699V27.6949H126.015L146.415 58.5199H141.84L162.165 27.6949H171.84V80.8699H158.565V49.8949L160.665 50.4949L148.44 68.8699H139.74L127.59 50.4949L129.69 49.8949V80.8699H116.34ZM203.206 81.6949C198.706 81.6949 194.731 80.7699 191.281 78.9199C187.881 77.0199 185.231 74.3949 183.331 71.0449C181.431 67.6949 180.481 63.8949 180.481 59.6449V27.6949H193.831V60.6199C193.831 62.5199 194.231 64.1699 195.031 65.5699C195.881 66.9199 197.006 67.9699 198.406 68.7199C199.856 69.4199 201.456 69.7699 203.206 69.7699C205.006 69.7699 206.581 69.4199 207.931 68.7199C209.281 67.9699 210.356 66.9199 211.156 65.5699C211.956 64.2199 212.356 62.5949 212.356 60.6949V27.6949H225.856V59.7199C225.856 63.9699 224.906 67.7699 223.006 71.1199C221.106 74.4199 218.456 77.0199 215.056 78.9199C211.706 80.7699 207.756 81.6949 203.206 81.6949ZM243.276 80.8699V52.5099H250.436V80.8699H243.276ZM269.223 81.3099C267.063 81.3099 265.063 80.9499 263.223 80.2299C261.383 79.4832 259.77 78.4565 258.383 77.1499C257.023 75.8165 255.957 74.2565 255.183 72.4699C254.437 70.6832 254.063 68.7499 254.063 66.6699C254.063 64.5632 254.437 62.6299 255.183 60.8699C255.957 59.0832 257.023 57.5365 258.383 56.2299C259.77 54.9232 261.37 53.8965 263.183 53.1499C265.023 52.4032 267.01 52.0299 269.143 52.0299C271.383 52.0299 273.397 52.3899 275.183 53.1099C276.97 53.8032 278.543 54.7765 279.903 56.0299L275.103 60.8299C274.437 60.0832 273.61 59.4965 272.623 59.0699C271.637 58.6432 270.477 58.4299 269.143 58.4299C267.997 58.4299 266.943 58.6165 265.983 58.9899C265.05 59.3632 264.237 59.9232 263.543 60.6699C262.85 61.3899 262.303 62.2565 261.903 63.2699C261.53 64.2832 261.343 65.4165 261.343 66.6699C261.343 67.9232 261.53 69.0565 261.903 70.0699C262.303 71.0832 262.85 71.9632 263.543 72.7099C264.237 73.4299 265.05 73.9899 265.983 74.3899C266.943 74.7632 267.997 74.9499 269.143 74.9499C270.477 74.9499 271.65 74.7499 272.663 74.3499C273.677 73.9232 274.543 73.3232 275.263 72.5499L280.063 77.3499C278.677 78.6032 277.103 79.5765 275.343 80.2699C273.61 80.9632 271.57 81.3099 269.223 81.3099ZM289.648 80.8699V52.7099H296.808V80.8699H289.648ZM280.968 58.6699V52.5099H305.488V58.6699H280.968ZM346.891 42.2242C343.293 51.5163 332.119 57.8063 324.327 59.6409L322.85 56.9963C331.094 55.3761 345.199 46.9893 345.223 36.1009V31.288H348.487V36.1009C348.463 46.894 362.759 55.3761 371.026 56.9963L369.478 59.6409C361.71 57.8302 350.488 51.4925 346.891 42.2242ZM348.439 59.7362V74.8896H374.148V77.701H320.11V74.8896H345.294V59.7362H348.439ZM424.823 62.643V26.8802H428.039V62.643H424.823ZM397.995 42.7722C395.565 50.6585 389.441 56.8056 382.579 59.7601L380.816 57.2107C389.036 53.8751 396.327 45.3692 396.375 35.5767V29.787H399.52V35.5767C399.496 44.9403 407.025 52.9458 415.221 56.0432L413.482 58.6641C406.667 55.8764 400.496 50.182 397.995 42.7722ZM424.823 68.6233H388.917V65.8595H428.039V85.921H424.823V68.6233Z" fill="#020407"/>
<path d="M245.937 14.1699C245.937 18.2699 242.637 21.4699 238.637 21.4699C234.537 21.5699 231.237 18.2699 231.237 14.1699C231.237 10.1699 234.537 6.86987 238.537 6.86987C242.637 6.86987 245.937 10.1699 245.937 14.1699Z" fill="url(#paint0_radial_559_360)"/>
<defs>
<radialGradient id="paint0_radial_559_360" cx="0" cy="0" r="1" gradientUnits="userSpaceOnUse" gradientTransform="translate(235.404 11.0423) scale(11.8696)">
<stop stop-color="#7ED3F7"/>
<stop offset="1" stop-color="#0089CF"/>
</radialGradient>
</defs>
</svg>
