<svg width="566" height="127" viewBox="0 0 566 127" fill="none" xmlns="http://www.w3.org/2000/svg">
<mask id="path-1-outside-1_180_308" maskUnits="userSpaceOnUse" x="-0.222656" y="0" width="566" height="127" fill="black">
<rect fill="white" x="-0.222656" width="566" height="127"/>
<path d="M17.4659 124V103.188H48.2539C56.0513 103.188 62.8739 101.583 68.7219 98.372C74.5699 95.0467 79.0993 90.4027 82.3099 84.44C85.6353 78.4773 87.2979 71.4253 87.2979 63.284C87.2979 55.372 85.6353 48.492 82.3099 42.644C78.9846 36.6813 74.3979 32.0947 68.5499 28.884C62.7019 25.5587 55.9366 23.896 48.2539 23.896H16.9499V3.084H48.5979C57.5419 3.084 65.7979 4.57466 73.3659 7.55599C81.0486 10.5373 87.6993 14.78 93.3179 20.284C99.0513 25.6733 103.466 32.0373 106.562 39.376C109.773 46.7147 111.378 54.7413 111.378 63.456C111.378 72.1707 109.773 80.2547 106.562 87.708C103.466 95.0467 99.1086 101.468 93.4899 106.972C87.8713 112.361 81.2206 116.547 73.5379 119.528C65.9699 122.509 57.7713 124 48.9419 124H17.4659ZM1.46994 124V3.084H24.8619V124H1.46994ZM167.29 125.72C158.575 125.72 150.835 123.885 144.07 120.216C137.305 116.432 131.915 111.272 127.902 104.736C124.003 98.2 122.054 90.7467 122.054 82.376C122.054 74.12 123.946 66.7813 127.73 60.36C131.629 53.824 136.903 48.664 143.554 44.88C150.205 40.9813 157.601 39.032 165.742 39.032C173.769 39.032 180.821 40.8667 186.898 44.536C193.09 48.0907 197.906 53.0213 201.346 59.328C204.901 65.52 206.678 72.572 206.678 80.484C206.678 81.9747 206.563 83.5227 206.334 85.128C206.219 86.6187 205.933 88.3387 205.474 90.288L135.642 90.46V73.604L194.982 73.432L185.866 80.484C185.637 75.5533 184.719 71.4253 183.114 68.1C181.623 64.7747 179.387 62.252 176.406 60.532C173.539 58.6973 169.985 57.78 165.742 57.78C161.27 57.78 157.371 58.812 154.046 60.876C150.721 62.8253 148.141 65.6347 146.306 69.304C144.586 72.8587 143.726 77.1013 143.726 82.032C143.726 87.0773 144.643 91.492 146.478 95.276C148.427 98.9453 151.179 101.812 154.734 103.876C158.289 105.825 162.417 106.8 167.118 106.8C171.361 106.8 175.202 106.112 178.642 104.736C182.082 103.245 185.063 101.067 187.586 98.2L200.83 111.444C196.817 116.145 191.886 119.7 186.038 122.108C180.305 124.516 174.055 125.72 167.29 125.72ZM220.613 124V40.924H243.317V124H220.613ZM231.965 27.508C228.295 27.508 225.257 26.304 222.849 23.896C220.441 21.3733 219.237 18.2773 219.237 14.608C219.237 11.0533 220.441 8.01466 222.849 5.492C225.257 2.96933 228.295 1.708 231.965 1.708C235.749 1.708 238.787 2.96933 241.081 5.492C243.489 8.01466 244.693 11.0533 244.693 14.608C244.693 18.2773 243.489 21.3733 241.081 23.896C238.787 26.304 235.749 27.508 231.965 27.508ZM265.685 124V3.084H282.025L289.077 26.476V124H265.685ZM349.277 124L277.553 31.12L282.025 3.084L353.749 95.964L349.277 124ZM349.277 124L342.569 101.296V3.084H366.133V124H349.277ZM427.29 125.72C418.919 125.72 411.351 123.828 404.586 120.044C397.935 116.145 392.603 110.928 388.59 104.392C384.691 97.7413 382.742 90.3453 382.742 82.204C382.742 74.0627 384.691 66.7813 388.59 60.36C392.488 53.824 397.82 48.664 404.586 44.88C411.351 40.9813 418.862 39.032 427.118 39.032C435.603 39.032 443.171 40.9813 449.822 44.88C456.587 48.664 461.919 53.824 465.818 60.36C469.716 66.7813 471.666 74.0627 471.666 82.204C471.666 90.3453 469.716 97.7413 465.818 104.392C461.919 110.928 456.587 116.145 449.822 120.044C443.171 123.828 435.66 125.72 427.29 125.72ZM427.118 104.736C431.36 104.736 435.087 103.819 438.298 101.984C441.623 100.035 444.146 97.3973 445.866 94.072C447.7 90.632 448.618 86.7333 448.618 82.376C448.618 78.0187 447.7 74.1773 445.866 70.852C444.031 67.5267 441.508 64.9467 438.298 63.112C435.087 61.1627 431.36 60.188 427.118 60.188C422.99 60.188 419.32 61.1627 416.11 63.112C412.899 64.9467 410.376 67.5267 408.542 70.852C406.707 74.1773 405.79 78.0187 405.79 82.376C405.79 86.7333 406.707 90.632 408.542 94.072C410.376 97.3973 412.899 100.035 416.11 101.984C419.32 103.819 422.99 104.736 427.118 104.736ZM542.071 124V76.356C542.071 71.4253 540.523 67.412 537.427 64.316C534.331 61.22 530.318 59.672 525.387 59.672C522.177 59.672 519.31 60.36 516.787 61.736C514.265 63.112 512.258 65.0613 510.767 67.584C509.391 70.1067 508.703 73.0307 508.703 76.356L499.931 71.884C499.931 65.348 501.307 59.672 504.059 54.856C506.926 49.9253 510.825 46.084 515.755 43.332C520.801 40.58 526.477 39.204 532.783 39.204C538.861 39.204 544.307 40.752 549.123 43.848C553.939 46.8293 557.723 50.7853 560.475 55.716C563.227 60.532 564.603 65.7493 564.603 71.368V124H542.071ZM486.171 124V40.924H508.703V124H486.171Z"/>
</mask>
<path d="M17.4659 124H16.4659V125H17.4659V124ZM17.4659 103.188V102.188H16.4659V103.188H17.4659ZM68.7219 98.372L69.2032 99.2486L69.2098 99.245L69.2162 99.2413L68.7219 98.372ZM82.3099 84.44L81.4366 83.9529L81.433 83.9594L81.4295 83.9659L82.3099 84.44ZM82.3099 42.644L81.4365 43.1311L81.4407 43.1383L82.3099 42.644ZM68.5499 28.884L68.0557 29.7533L68.0621 29.757L68.0687 29.7606L68.5499 28.884ZM16.95 23.896H15.95V24.896H16.95V23.896ZM16.95 3.084V2.084H15.95V3.084H16.95ZM73.366 7.55599L72.9994 8.48641L73.0042 8.48826L73.366 7.55599ZM93.3179 20.284L92.6182 20.9984L92.6255 21.0056L92.6331 21.0126L93.3179 20.284ZM106.562 39.376L105.641 39.7647L105.646 39.7768L106.562 39.376ZM106.562 87.708L105.643 87.3124L105.641 87.3193L106.562 87.708ZM93.4899 106.972L94.1822 107.694L94.1897 107.686L93.4899 106.972ZM73.538 119.528L73.1761 118.596L73.1714 118.598L73.538 119.528ZM1.46991 124H0.46991V125H1.46991V124ZM1.46991 3.084V2.084H0.46991V3.084H1.46991ZM24.8619 3.084H25.8619V2.084H24.8619V3.084ZM24.8619 124V125H25.8619V124H24.8619ZM17.4659 124H18.4659V103.188H17.4659H16.4659V124H17.4659ZM17.4659 103.188V104.188H48.254V103.188V102.188H17.4659V103.188ZM48.254 103.188V104.188C56.191 104.188 63.1846 102.553 69.2032 99.2486L68.7219 98.372L68.2407 97.4954C62.5633 100.612 55.9116 102.188 48.254 102.188V103.188ZM68.7219 98.372L69.2162 99.2413C75.2287 95.8225 79.8913 91.041 83.1904 84.9141L82.3099 84.44L81.4295 83.9659C78.3073 89.7644 73.9112 94.2709 68.2277 97.5027L68.7219 98.372ZM82.3099 84.44L83.1833 84.9271C86.6063 78.7892 88.298 71.563 88.298 63.284H87.298H86.298C86.298 71.2877 84.6642 78.1654 81.4366 83.9529L82.3099 84.44ZM87.298 63.284H88.298C88.298 55.2294 86.6042 48.173 83.1793 42.1497L82.3099 42.644L81.4407 43.1383C84.6663 48.811 86.298 55.5146 86.298 63.284H87.298ZM82.3099 42.644L83.1833 42.1569C79.7687 36.0342 75.0479 31.3107 69.0312 28.0074L68.5499 28.884L68.0687 29.7606C73.748 32.8786 78.2005 37.3284 81.4366 43.1311L82.3099 42.644ZM68.5499 28.884L69.0443 28.0147C63.0253 24.5922 56.085 22.896 48.254 22.896V23.896V24.896C55.7883 24.896 62.3786 26.5252 68.0557 29.7533L68.5499 28.884ZM48.254 23.896V22.896H16.95V23.896V24.896H48.254V23.896ZM16.95 23.896H17.95V3.084H16.95H15.95V23.896H16.95ZM16.95 3.084V4.084H48.598V3.084V2.084H16.95V3.084ZM48.598 3.084V4.084C57.429 4.084 65.5593 5.55543 72.9994 8.4864L73.366 7.55599L73.7325 6.62558C66.0366 3.5939 57.6549 2.084 48.598 2.084V3.084ZM73.366 7.55599L73.0042 8.48826C80.5667 11.423 87.1008 15.5936 92.6182 20.9984L93.3179 20.284L94.0177 19.5696C88.2977 13.9664 81.5305 9.65168 73.7277 6.62373L73.366 7.55599ZM93.3179 20.284L92.6331 21.0126C98.2634 26.3052 102.598 32.553 105.641 39.7647L106.562 39.376L107.483 38.9873C104.334 31.5217 99.8391 25.0415 94.0029 19.5554L93.3179 20.284ZM106.562 39.376L105.646 39.7768C108.796 46.9783 110.378 54.867 110.378 63.456H111.378H112.378C112.378 54.6156 110.749 46.451 107.478 38.9752L106.562 39.376ZM111.378 63.456H110.378C110.378 72.0448 108.797 79.993 105.644 87.3124L106.562 87.708L107.48 88.1036C110.749 80.5163 112.378 72.2965 112.378 63.456H111.378ZM106.562 87.708L105.641 87.3193C102.595 94.5374 98.3129 100.848 92.7902 106.258L93.4899 106.972L94.1897 107.686C99.9044 102.088 104.336 95.5559 107.483 88.0967L106.562 87.708ZM93.4899 106.972L92.7977 106.25C87.2797 111.543 80.7432 115.659 73.1761 118.596L73.538 119.528L73.8997 120.46C81.6981 117.434 88.4628 113.18 94.1822 107.694L93.4899 106.972ZM73.538 119.528L73.1714 118.598C65.7298 121.529 57.6566 123 48.942 123V124V125C57.8859 125 66.2101 123.49 73.9045 120.458L73.538 119.528ZM48.942 124V123H17.4659V124V125H48.942V124ZM1.46991 124H2.46991V3.084H1.46991H0.46991V124H1.46991ZM1.46991 3.084V4.084H24.8619V3.084V2.084H1.46991V3.084ZM24.8619 3.084H23.8619V124H24.8619H25.8619V3.084H24.8619ZM24.8619 124V123H1.46991V124V125H24.8619V124ZM144.07 120.216L143.582 121.089L143.593 121.095L144.07 120.216ZM127.902 104.736L127.043 105.248L127.05 105.259L127.902 104.736ZM127.73 60.36L126.871 59.8477L126.868 59.8523L127.73 60.36ZM143.554 44.88L144.049 45.7492L144.06 45.7427L143.554 44.88ZM186.898 44.536L186.381 45.3921L186.391 45.3978L186.4 45.4033L186.898 44.536ZM201.346 59.328L200.468 59.8068L200.473 59.8164L200.479 59.8259L201.346 59.328ZM206.334 85.128L205.344 84.9866L205.339 85.0188L205.337 85.0513L206.334 85.128ZM205.474 90.288L205.476 91.288L206.266 91.286L206.448 90.517L205.474 90.288ZM135.642 90.46H134.642V91.4625L135.644 91.46L135.642 90.46ZM135.642 73.604L135.639 72.604L134.642 72.6069V73.604H135.642ZM194.982 73.432L195.594 74.223L197.92 72.4235L194.979 72.432L194.982 73.432ZM185.866 80.484L184.867 80.5305L184.957 82.4519L186.478 81.275L185.866 80.484ZM183.114 68.1L182.202 68.5091L182.207 68.522L182.214 68.5347L183.114 68.1ZM176.406 60.532L175.867 61.3743L175.886 61.3867L175.906 61.3982L176.406 60.532ZM154.046 60.876L154.552 61.7387L154.563 61.7323L154.573 61.7256L154.046 60.876ZM146.306 69.304L145.411 68.8567L145.406 68.8684L146.306 69.304ZM146.478 95.276L145.578 95.7123L145.586 95.7289L145.595 95.7452L146.478 95.276ZM154.734 103.876L154.232 104.741L154.242 104.747L154.253 104.753L154.734 103.876ZM178.642 104.736L179.013 105.664L179.027 105.659L179.04 105.654L178.642 104.736ZM187.586 98.2L188.293 97.4929L187.539 96.7392L186.835 97.5394L187.586 98.2ZM200.83 111.444L201.591 112.093L202.191 111.39L201.537 110.737L200.83 111.444ZM186.038 122.108L185.657 121.183L185.651 121.186L186.038 122.108ZM167.29 125.72V124.72C158.72 124.72 151.147 122.917 144.547 119.337L144.07 120.216L143.593 121.095C150.523 124.854 158.431 126.72 167.29 126.72V125.72ZM144.07 120.216L144.558 119.343C137.94 115.642 132.677 110.601 128.754 104.213L127.902 104.736L127.05 105.259C131.154 111.943 136.669 117.222 143.582 121.089L144.07 120.216ZM127.902 104.736L128.761 104.224C124.964 97.8578 123.054 90.5849 123.054 82.376H122.054H121.054C121.054 90.9085 123.043 98.5422 127.043 105.248L127.902 104.736ZM122.054 82.376H123.054C123.054 74.2788 124.908 67.119 128.592 60.8677L127.73 60.36L126.868 59.8523C122.984 66.4436 121.054 73.9612 121.054 82.376H122.054ZM127.73 60.36L128.589 60.8723C132.398 54.4856 137.547 49.4482 144.049 45.7492L143.554 44.88L143.06 44.0108C136.259 47.8798 130.859 53.1624 126.871 59.8477L127.73 60.36ZM143.554 44.88L144.06 45.7427C150.548 41.939 157.768 40.032 165.742 40.032V39.032V38.032C157.433 38.032 149.861 40.0236 143.048 44.0173L143.554 44.88ZM165.742 39.032V40.032C173.611 40.032 180.479 41.8287 186.381 45.3921L186.898 44.536L187.415 43.6799C181.162 39.9046 173.927 38.032 165.742 38.032V39.032ZM186.898 44.536L186.4 45.4033C192.431 48.8654 197.116 53.6612 200.468 59.8068L201.346 59.328L202.224 58.8491C198.696 52.3815 193.749 47.3159 187.396 43.6687L186.898 44.536ZM201.346 59.328L200.479 59.8259C203.937 65.8504 205.678 72.7273 205.678 80.484H206.678H207.678C207.678 72.4166 205.864 65.1896 202.213 58.8301L201.346 59.328ZM206.678 80.484H205.678C205.678 81.9234 205.567 83.424 205.344 84.9866L206.334 85.128L207.324 85.2694C207.559 83.6213 207.678 82.0259 207.678 80.484H206.678ZM206.334 85.128L205.337 85.0513C205.227 86.4768 204.951 88.1441 204.501 90.059L205.474 90.288L206.448 90.517C206.914 88.5333 207.211 86.7605 207.331 85.2047L206.334 85.128ZM205.474 90.288L205.472 89.288L135.64 89.46L135.642 90.46L135.644 91.46L205.476 91.288L205.474 90.288ZM135.642 90.46H136.642V73.604H135.642H134.642V90.46H135.642ZM135.642 73.604L135.645 74.604L194.985 74.432L194.982 73.432L194.979 72.432L135.639 72.604L135.642 73.604ZM194.982 73.432L194.37 72.641L185.254 79.693L185.866 80.484L186.478 81.275L195.594 74.223L194.982 73.432ZM185.866 80.484L186.865 80.4375C186.631 75.415 185.695 71.1455 184.015 67.6652L183.114 68.1L182.214 68.5347C183.744 71.7051 184.642 75.6916 184.867 80.5305L185.866 80.484ZM183.114 68.1L184.026 67.6909C182.455 64.1856 180.08 61.4973 176.906 59.6658L176.406 60.532L175.906 61.3982C178.694 63.0067 180.792 65.3637 182.202 68.5091L183.114 68.1ZM176.406 60.532L176.945 59.6897C173.882 57.7293 170.129 56.78 165.742 56.78V57.78V58.78C169.841 58.78 173.197 59.6653 175.867 61.3743L176.406 60.532ZM165.742 57.78V56.78C161.111 56.78 157.024 57.8507 153.519 60.0264L154.046 60.876L154.573 61.7256C157.719 59.7733 161.429 58.78 165.742 58.78V57.78ZM154.046 60.876L153.54 60.0133C150.037 62.067 147.327 65.0259 145.412 68.8568L146.306 69.304L147.2 69.7512C148.954 66.2434 151.404 63.5837 154.552 61.7387L154.046 60.876ZM146.306 69.304L145.406 68.8684C143.606 72.5884 142.726 76.987 142.726 82.032H143.726H144.726C144.726 77.2156 145.566 73.129 147.206 69.7396L146.306 69.304ZM143.726 82.032H142.726C142.726 87.1986 143.666 91.7678 145.578 95.7123L146.478 95.276L147.378 94.8397C145.621 91.2162 144.726 86.956 144.726 82.032H143.726ZM146.478 95.276L145.595 95.7452C147.631 99.5774 150.514 102.582 154.232 104.741L154.734 103.876L155.236 103.011C151.845 101.042 149.224 98.3132 147.361 94.8068L146.478 95.276ZM154.734 103.876L154.253 104.753C157.977 106.795 162.276 107.8 167.118 107.8V106.8V105.8C162.558 105.8 158.6 104.856 155.215 102.999L154.734 103.876ZM167.118 106.8V107.8C171.47 107.8 175.439 107.094 179.013 105.664L178.642 104.736L178.271 103.808C174.965 105.13 171.252 105.8 167.118 105.8V106.8ZM178.642 104.736L179.04 105.654C182.617 104.103 185.719 101.836 188.337 98.8606L187.586 98.2L186.835 97.5394C184.408 100.298 181.547 102.387 178.244 103.818L178.642 104.736ZM187.586 98.2L186.879 98.9071L200.123 112.151L200.83 111.444L201.537 110.737L188.293 97.4929L187.586 98.2ZM200.83 111.444L200.069 110.795C196.161 115.373 191.362 118.834 185.657 121.183L186.038 122.108L186.419 123.033C192.41 120.566 197.472 116.918 201.591 112.093L200.83 111.444ZM186.038 122.108L185.651 121.186C180.051 123.538 173.934 124.72 167.29 124.72V125.72V126.72C174.177 126.72 180.559 125.494 186.425 123.03L186.038 122.108ZM220.613 124H219.613V125H220.613V124ZM220.613 40.924V39.924H219.613V40.924H220.613ZM243.317 40.924H244.317V39.924H243.317V40.924ZM243.317 124V125H244.317V124H243.317ZM222.849 23.896L222.125 24.5865L222.133 24.5949L222.142 24.6031L222.849 23.896ZM222.849 5.492L223.572 6.18248V6.18247L222.849 5.492ZM241.081 5.492L240.341 6.16467L240.349 6.17368L240.357 6.18248L241.081 5.492ZM241.081 23.896L240.357 23.2055L240.357 23.2063L241.081 23.896ZM220.613 124H221.613V40.924H220.613H219.613V124H220.613ZM220.613 40.924V41.924H243.317V40.924V39.924H220.613V40.924ZM243.317 40.924H242.317V124H243.317H244.317V40.924H243.317ZM243.317 124V123H220.613V124V125H243.317V124ZM231.965 27.508V26.508C228.538 26.508 225.761 25.3939 223.556 23.1889L222.849 23.896L222.142 24.6031C224.753 27.2141 228.053 28.508 231.965 28.508V27.508ZM222.849 23.896L223.572 23.2055C221.352 20.8793 220.237 18.035 220.237 14.608H219.237H218.237C218.237 18.5197 219.53 21.8673 222.125 24.5865L222.849 23.896ZM219.237 14.608H220.237C220.237 11.305 221.345 8.51516 223.572 6.18248L222.849 5.492L222.125 4.80152C219.536 7.51416 218.237 10.8017 218.237 14.608H219.237ZM222.849 5.492L223.572 6.18247C225.781 3.86875 228.553 2.708 231.965 2.708V1.708V0.707996C228.038 0.707996 224.733 2.06991 222.125 4.80152L222.849 5.492ZM231.965 1.708V2.708C235.501 2.708 238.259 3.87468 240.341 6.16467L241.081 5.492L241.821 4.81933C239.316 2.06398 235.996 0.707996 231.965 0.707996V1.708ZM241.081 5.492L240.357 6.18248C242.584 8.51516 243.693 11.305 243.693 14.608H244.693H245.693C245.693 10.8017 244.393 7.51416 241.804 4.80152L241.081 5.492ZM244.693 14.608H243.693C243.693 18.035 242.578 20.8793 240.357 23.2055L241.081 23.896L241.804 24.5865C244.4 21.8673 245.693 18.5197 245.693 14.608H244.693ZM241.081 23.896L240.357 23.2063C238.279 25.3881 235.516 26.508 231.965 26.508V27.508V28.508C235.981 28.508 239.296 27.2199 241.805 24.5857L241.081 23.896ZM265.685 124H264.685V125H265.685V124ZM265.685 3.084V2.084H264.685V3.084H265.685ZM282.025 3.084L282.982 2.79536L282.768 2.084H282.025V3.084ZM289.077 26.476H290.077V26.3285L290.034 26.1874L289.077 26.476ZM289.077 124V125H290.077V124H289.077ZM349.277 124L348.485 124.611L349.9 126.443L350.264 124.158L349.277 124ZM277.553 31.12L276.565 30.9625L276.497 31.3892L276.761 31.7312L277.553 31.12ZM282.025 3.084L282.816 2.4728L281.402 0.641127L281.037 2.92648L282.025 3.084ZM353.749 95.964L354.736 96.1215L354.804 95.6948L354.54 95.3528L353.749 95.964ZM349.277 124L348.318 124.283L348.53 125H349.277V124ZM342.569 101.296H341.569V101.441L341.61 101.579L342.569 101.296ZM342.569 3.084V2.084H341.569V3.084H342.569ZM366.133 3.084H367.133V2.084H366.133V3.084ZM366.133 124V125H367.133V124H366.133ZM265.685 124H266.685V3.084H265.685H264.685V124H265.685ZM265.685 3.084V4.084H282.025V3.084V2.084H265.685V3.084ZM282.025 3.084L281.067 3.37264L288.119 26.7646L289.077 26.476L290.034 26.1874L282.982 2.79536L282.025 3.084ZM289.077 26.476H288.077V124H289.077H290.077V26.476H289.077ZM289.077 124V123H265.685V124V125H289.077V124ZM349.277 124L350.068 123.389L278.344 30.5088L277.553 31.12L276.761 31.7312L348.485 124.611L349.277 124ZM277.553 31.12L278.54 31.2775L283.012 3.24152L282.025 3.084L281.037 2.92648L276.565 30.9625L277.553 31.12ZM282.025 3.084L281.233 3.6952L352.957 96.5752L353.749 95.964L354.54 95.3528L282.816 2.4728L282.025 3.084ZM353.749 95.964L352.761 95.8065L348.289 123.842L349.277 124L350.264 124.158L354.736 96.1215L353.749 95.964ZM349.277 124L350.236 123.717L343.528 101.013L342.569 101.296L341.61 101.579L348.318 124.283L349.277 124ZM342.569 101.296H343.569V3.084H342.569H341.569V101.296H342.569ZM342.569 3.084V4.084H366.133V3.084V2.084H342.569V3.084ZM366.133 3.084H365.133V124H366.133H367.133V3.084H366.133ZM366.133 124V123H349.277V124V125H366.133V124ZM404.586 120.044L404.08 120.907L404.089 120.912L404.097 120.917L404.586 120.044ZM388.589 104.392L387.727 104.898L387.732 104.907L387.737 104.915L388.589 104.392ZM388.589 60.36L389.444 60.879L389.448 60.8723L388.589 60.36ZM404.586 44.88L405.074 45.7528L405.085 45.7464L404.586 44.88ZM449.822 44.88L449.316 45.7427L449.325 45.7478L449.333 45.7528L449.822 44.88ZM465.818 60.36L464.959 60.8723L464.963 60.879L465.818 60.36ZM465.818 104.392L466.676 104.904L466.68 104.898L465.818 104.392ZM449.822 120.044L450.316 120.913L450.321 120.91L449.822 120.044ZM438.297 101.984L438.794 102.852L438.803 102.847L438.297 101.984ZM445.865 94.072L444.983 93.6014L444.977 93.6126L445.865 94.072ZM438.297 63.112L437.779 63.9668L437.79 63.9737L437.801 63.9802L438.297 63.112ZM416.109 63.112L416.606 63.9802L416.617 63.9737L416.629 63.9668L416.109 63.112ZM408.542 70.852L409.417 71.3351L408.542 70.852ZM408.542 94.072L407.659 94.5426L407.662 94.5489L407.666 94.5551L408.542 94.072ZM416.109 101.984L415.591 102.839L415.602 102.846L415.613 102.852L416.109 101.984ZM427.29 125.72V124.72C419.076 124.72 411.678 122.865 405.074 119.171L404.586 120.044L404.097 120.917C411.024 124.791 418.762 126.72 427.29 126.72V125.72ZM404.586 120.044L405.091 119.181C398.581 115.365 393.369 110.264 389.442 103.869L388.589 104.392L387.737 104.915C391.837 111.592 397.288 116.925 404.08 120.907L404.586 120.044ZM388.589 104.392L389.452 103.886C385.649 97.3977 383.742 90.1779 383.742 82.204H382.742H381.742C381.742 90.5127 383.733 98.085 387.727 104.898L388.589 104.392ZM382.742 82.204H383.742C383.742 74.2298 385.649 67.1308 389.444 60.879L388.589 60.36L387.735 59.841C383.733 66.4318 381.742 73.8955 381.742 82.204H382.742ZM388.589 60.36L389.448 60.8723C393.255 54.4898 398.458 49.4528 405.074 45.7528L404.586 44.88L404.097 44.0072C397.182 47.8752 391.721 53.1582 387.731 59.8477L388.589 60.36ZM404.586 44.88L405.085 45.7464C411.69 41.9403 419.026 40.032 427.118 40.032V39.032V38.032C418.697 38.032 411.012 40.0223 404.086 44.0136L404.586 44.88ZM427.118 39.032V40.032C435.443 40.032 442.834 41.9428 449.316 45.7427L449.822 44.88L450.327 44.0173C443.508 40.0199 435.762 38.032 427.118 38.032V39.032ZM449.822 44.88L449.333 45.7528C455.949 49.4528 461.152 54.4898 464.959 60.8723L465.818 60.36L466.676 59.8477C462.686 53.1582 457.225 47.8752 450.31 44.0072L449.822 44.88ZM465.818 60.36L464.963 60.879C468.759 67.1308 470.666 74.2298 470.666 82.204H471.666H472.666C472.666 73.8955 470.674 66.4318 466.672 59.841L465.818 60.36ZM471.666 82.204H470.666C470.666 90.1779 468.759 97.3977 464.955 103.886L465.818 104.392L466.68 104.898C470.674 98.085 472.666 90.5127 472.666 82.204H471.666ZM465.818 104.392L464.959 103.88C461.15 110.265 455.943 115.362 449.322 119.178L449.822 120.044L450.321 120.91C457.23 116.929 462.688 111.591 466.676 104.904L465.818 104.392ZM449.822 120.044L449.327 119.175C442.841 122.865 435.504 124.72 427.29 124.72V125.72V126.72C435.817 126.72 443.501 124.791 450.316 120.913L449.822 120.044ZM427.118 104.736V105.736C431.508 105.736 435.411 104.785 438.794 102.852L438.297 101.984L437.801 101.116C434.763 102.852 431.212 103.736 427.118 103.736V104.736ZM438.297 101.984L438.803 102.847C442.286 100.805 444.944 98.0298 446.754 94.5314L445.865 94.072L444.977 93.6126C443.347 96.7649 440.959 99.2646 437.792 101.121L438.297 101.984ZM445.865 94.072L446.748 94.5426C448.669 90.9414 449.618 86.8779 449.618 82.376H448.618H447.618C447.618 86.5888 446.732 90.3226 444.983 93.6014L445.865 94.072ZM448.618 82.376H449.618C449.618 77.8749 448.669 73.8628 446.741 70.3689L445.865 70.852L444.99 71.3351C446.732 74.4919 447.618 78.1625 447.618 82.376H448.618ZM445.865 70.852L446.741 70.3689C444.82 66.8874 442.168 64.1721 438.794 62.2438L438.297 63.112L437.801 63.9802C440.848 65.7212 443.241 68.166 444.99 71.3351L445.865 70.852ZM438.297 63.112L438.817 62.2572C435.43 60.201 431.519 59.188 427.118 59.188V60.188V61.188C431.201 61.188 434.744 62.1243 437.779 63.9668L438.297 63.112ZM427.118 60.188V59.188C422.825 59.188 418.973 60.2036 415.591 62.2572L416.109 63.112L416.629 63.9668C419.667 62.1217 423.154 61.188 427.118 61.188V60.188ZM416.109 63.112L415.613 62.2438C412.239 64.1721 409.587 66.8874 407.666 70.3689L408.542 70.852L409.417 71.3351C411.166 68.166 413.559 65.7212 416.606 63.9802L416.109 63.112ZM408.542 70.852L407.666 70.3689C405.738 73.8628 404.79 77.8749 404.79 82.376H405.79H406.79C406.79 78.1625 407.675 74.4919 409.417 71.3351L408.542 70.852ZM405.79 82.376H404.79C404.79 86.8779 405.739 90.9414 407.659 94.5426L408.542 94.072L409.424 93.6014C407.675 90.3226 406.79 86.5888 406.79 82.376H405.79ZM408.542 94.072L407.666 94.5551C409.584 98.0315 412.229 100.798 415.591 102.839L416.109 101.984L416.629 101.129C413.569 99.2716 411.168 96.7631 409.417 93.5889L408.542 94.072ZM416.109 101.984L415.613 102.852C418.992 104.783 422.836 105.736 427.118 105.736V104.736V103.736C423.143 103.736 419.648 102.854 416.606 101.116L416.109 101.984ZM542.071 124H541.071V125H542.071V124ZM537.427 64.316L536.72 65.0231L537.427 64.316ZM516.787 61.736L517.266 62.6139L516.787 61.736ZM510.767 67.584L509.906 67.0753L509.898 67.0901L509.889 67.1051L510.767 67.584ZM508.703 76.356L508.249 77.2469L509.703 77.9883V76.356H508.703ZM499.931 71.884H498.931V72.4967L499.477 72.7749L499.931 71.884ZM504.059 54.856L503.195 54.3534L503.191 54.3599L504.059 54.856ZM515.755 43.332L515.276 42.4541L515.268 42.4588L515.755 43.332ZM549.123 43.848L548.583 44.6892L548.59 44.6938L548.597 44.6983L549.123 43.848ZM560.475 55.716L559.602 56.2034L559.607 56.2121L560.475 55.716ZM564.603 124V125H565.603V124H564.603ZM486.171 124H485.171V125H486.171V124ZM486.171 40.924V39.924H485.171V40.924H486.171ZM508.703 40.924H509.703V39.924H508.703V40.924ZM508.703 124V125H509.703V124H508.703ZM542.071 124H543.071V76.356H542.071H541.071V124H542.071ZM542.071 76.356H543.071C543.071 71.1966 541.442 66.9168 538.134 63.6089L537.427 64.316L536.72 65.0231C539.604 67.9072 541.071 71.654 541.071 76.356H542.071ZM537.427 64.316L538.134 63.6089C534.827 60.301 530.547 58.672 525.387 58.672V59.672V60.672C530.089 60.672 533.836 62.139 536.72 65.0231L537.427 64.316ZM525.387 59.672V58.672C522.029 58.672 518.995 59.3929 516.308 60.8581L516.787 61.736L517.266 62.6139C519.625 61.3271 522.324 60.672 525.387 60.672V59.672ZM516.787 61.736L516.308 60.8581C513.624 62.3222 511.487 64.4006 509.906 67.0753L510.767 67.584L511.628 68.0927C513.029 65.7221 514.905 63.9018 517.266 62.6139L516.787 61.736ZM510.767 67.584L509.889 67.1051C508.422 69.7963 507.703 72.8898 507.703 76.356H508.703H509.703C509.703 73.1715 510.361 70.417 511.645 68.0629L510.767 67.584ZM508.703 76.356L509.157 75.4651L500.385 70.9931L499.931 71.884L499.477 72.7749L508.249 77.2469L508.703 76.356ZM499.931 71.884H500.931C500.931 65.4908 502.276 59.9921 504.928 55.3521L504.059 54.856L503.191 54.3599C500.339 59.3519 498.931 65.2052 498.931 71.884H499.931ZM504.059 54.856L504.924 55.3586C507.701 50.5814 511.47 46.8688 516.243 44.2052L515.755 43.332L515.268 42.4588C510.179 45.2992 506.151 49.2692 503.195 54.3534L504.059 54.856ZM515.755 43.332L516.234 44.2099C521.119 41.5456 526.627 40.204 532.783 40.204V39.204V38.204C526.326 38.204 520.483 39.6144 515.276 42.4541L515.755 43.332ZM532.783 39.204V40.204C538.681 40.204 543.938 41.7033 548.583 44.6892L549.123 43.848L549.664 43.0068C544.677 39.8006 539.04 38.204 532.783 38.204V39.204ZM549.123 43.848L548.597 44.6983C553.269 47.5904 556.933 51.4217 559.602 56.2034L560.475 55.716L561.349 55.2286C558.513 50.149 554.61 46.0683 549.65 42.9977L549.123 43.848ZM560.475 55.716L559.607 56.2121C562.272 60.875 563.603 65.921 563.603 71.368H564.603H565.603C565.603 65.5777 564.183 60.189 561.344 55.2199L560.475 55.716ZM564.603 71.368H563.603V124H564.603H565.603V71.368H564.603ZM564.603 124V123H542.071V124V125H564.603V124ZM486.171 124H487.171V40.924H486.171H485.171V124H486.171ZM486.171 40.924V41.924H508.703V40.924V39.924H486.171V40.924ZM508.703 40.924H507.703V124H508.703H509.703V40.924H508.703ZM508.703 124V123H486.171V124V125H508.703V124Z" fill="white" mask="url(#path-1-outside-1_180_308)"/>
</svg>
