<svg width="647" height="154" viewBox="0 0 647 154" fill="none" xmlns="http://www.w3.org/2000/svg">
<g style="mix-blend-mode:luminosity" opacity="0.06">
<path d="M597.482 145.928H584.646C581.769 145.928 579.335 143.504 579.335 140.639V117.937C579.335 115.071 581.769 112.647 584.646 112.647H597.26C599.252 112.647 601.022 110.884 601.022 108.9V106.696H576.458H576.015C570.261 107.137 565.835 111.765 565.835 117.496V141.741C565.835 147.471 570.261 152.1 576.015 152.541H576.458H601.022V149.896C601.244 147.692 599.473 145.928 597.482 145.928Z" fill="#595959"/>
<path d="M557.869 106.696H545.254V152.541H557.869V106.696Z" fill="#595959"/>
<path d="M606.113 106.696V109.561C606.113 111.324 607.441 112.647 609.211 112.647H620.276V152.32H632.89V112.647H637.316H643.734C645.505 112.647 646.832 111.324 646.832 109.561V106.475H606.113V106.696Z" fill="#595959"/>
<path d="M88.4358 63.7974H22.8789C22.8789 63.7974 0 63.7974 0 87.9962V152.233H36.5183V88.4362C36.5183 83.1565 40.9181 79.1966 45.7578 79.1966H65.1169C70.3967 79.1966 74.3565 83.5964 74.3565 88.4362V152.233H110.875V87.9962C111.315 63.7974 88.4358 63.7974 88.4358 63.7974Z" fill="#49A942"/>
<path d="M368.703 63.7974H264.868C264.868 63.7974 241.989 63.7974 241.989 87.9962V152.233H278.508V88.4362C278.508 83.1565 282.907 79.1966 287.747 79.1966H292.587C297.867 79.1966 301.826 83.5964 301.826 88.4362V152.233H330.425V88.4362C330.425 83.1565 334.825 79.1966 339.665 79.1966H344.504C349.784 79.1966 353.744 83.5964 353.744 88.4362V152.233H391.582V87.9962C391.582 63.7974 368.703 63.7974 368.703 63.7974Z" fill="#49A942"/>
<path d="M428.101 153.553H493.658C493.658 153.553 516.537 153.553 516.537 129.354V64.6772H479.579V128.474C479.579 133.754 475.179 137.714 470.339 137.714H450.98C445.7 137.714 441.74 133.314 441.74 128.474V64.6772H405.222V128.914C405.222 153.553 428.101 153.553 428.101 153.553Z" fill="#49A942"/>
<path d="M580.773 32.1185C580.773 50.1577 566.253 64.237 548.654 64.237C530.615 64.237 516.536 49.7177 516.536 32.1185C516.536 14.0794 531.055 0 548.654 0C566.253 0 580.773 14.5193 580.773 32.1185Z" fill="url(#paint0_radial_1276_2972)"/>
<path d="M205.471 63.7974H134.194H126.275V71.717C126.275 76.1168 129.795 79.6366 134.194 79.6366H182.592C186.552 79.6366 191.392 80.9566 191.392 89.7562L149.594 99.4357C135.074 103.836 122.755 111.315 122.755 126.274C122.755 141.234 134.634 153.113 149.594 153.113H205.471C205.471 153.113 228.35 153.113 228.35 128.914V87.9962C228.35 63.7974 205.471 63.7974 205.471 63.7974ZM191.832 128.474C191.832 133.754 187.432 137.714 182.592 137.714H164.113C158.833 137.714 152.673 134.194 152.673 124.955C152.673 116.155 158.833 113.955 164.113 112.635L192.272 106.475V128.474H191.832Z" fill="#49A942"/>
</g>
<defs>
<radialGradient id="paint0_radial_1276_2972" cx="0" cy="0" r="1" gradientUnits="userSpaceOnUse" gradientTransform="translate(534.534 18.3577) scale(52.2238 52.2238)">
<stop stop-color="#7ED3F7"/>
<stop offset="1" stop-color="#0089CF"/>
</radialGradient>
</defs>
</svg>
