<svg width="41" height="40" viewBox="0 0 41 40" fill="none" xmlns="http://www.w3.org/2000/svg">
<path d="M12.375 20C15.4816 20 18 17.4816 18 14.375C18 11.2684 15.4816 8.75 12.375 8.75C9.2684 8.75 6.75 11.2684 6.75 14.375C6.75 17.4816 9.2684 20 12.375 20Z" fill="#49A942"/>
<path d="M18.7812 23.125C16.5813 22.0078 14.1531 21.5625 12.375 21.5625C8.89219 21.5625 1.75 23.6984 1.75 27.9688V31.25H13.4688V29.9945C13.4688 28.5102 14.0938 27.0219 15.1875 25.7812C16.0602 24.7906 17.282 23.8711 18.7812 23.125Z" fill="#49A942"/>
<path d="M27.0625 22.5C22.9945 22.5 14.875 25.0125 14.875 30V33.75H39.25V30C39.25 25.0125 31.1305 22.5 27.0625 22.5Z" fill="#49A942"/>
<path d="M27.0625 20C30.8595 20 33.9375 16.922 33.9375 13.125C33.9375 9.32804 30.8595 6.25 27.0625 6.25C23.2655 6.25 20.1875 9.32804 20.1875 13.125C20.1875 16.922 23.2655 20 27.0625 20Z" fill="#49A942"/>
</svg>
