<svg width="21" height="20" viewBox="0 0 21 20" fill="none" xmlns="http://www.w3.org/2000/svg">
<path fill-rule="evenodd" clip-rule="evenodd" d="M8.38329 2.80164C10.835 0.454141 14.8 0.454141 17.2525 2.80164C19.72 5.16331 19.72 9.00498 17.2525 11.3675L10.6291 17.7075C8.88746 19.3741 6.07412 19.3741 4.33246 17.7075C3.91627 17.3156 3.58464 16.8427 3.35797 16.3179C3.13129 15.7931 3.01436 15.2275 3.01436 14.6558C3.01436 14.0841 3.13129 13.5185 3.35797 12.9937C3.58464 12.4689 3.91627 11.996 4.33246 11.6041L10.8608 5.35581C11.364 4.88035 12.0301 4.61546 12.7225 4.61546C13.4148 4.61546 14.0809 4.88035 14.5841 5.35581C14.8322 5.58953 15.0298 5.87151 15.1649 6.18442C15.3 6.49733 15.3697 6.83456 15.3697 7.17539C15.3697 7.51622 15.3 7.85345 15.1649 8.16636C15.0298 8.47927 14.8322 8.76125 14.5841 8.99498L8.00912 15.29C7.94981 15.3468 7.87989 15.3913 7.80336 15.4211C7.72682 15.4509 7.64517 15.4653 7.56307 15.4635C7.48097 15.4617 7.40002 15.4438 7.32485 15.4107C7.24968 15.3777 7.18175 15.3301 7.12496 15.2708C7.06816 15.2115 7.0236 15.1416 6.99383 15.065C6.96405 14.9885 6.94964 14.9069 6.95142 14.8248C6.9532 14.7427 6.97114 14.6617 7.0042 14.5865C7.03726 14.5114 7.08481 14.4434 7.14412 14.3866L13.7191 8.09247C13.845 7.97527 13.9454 7.83339 14.014 7.67568C14.0827 7.51797 14.1181 7.34781 14.1181 7.17581C14.1181 7.00381 14.0827 6.83365 14.014 6.67594C13.9454 6.51823 13.845 6.37635 13.7191 6.25914C13.4486 6.00648 13.0922 5.86595 12.722 5.86595C12.3519 5.86595 11.9955 6.00648 11.725 6.25914L5.19662 12.5075C4.90243 12.7827 4.66789 13.1153 4.50754 13.4849C4.34719 13.8544 4.26445 14.253 4.26445 14.6558C4.26445 15.0586 4.34719 15.4572 4.50754 15.8267C4.66789 16.1963 4.90243 16.529 5.19662 16.8041C6.45496 18.0083 8.50662 18.0083 9.76496 16.8041L16.3883 10.4641C18.3416 8.59414 18.3416 5.57414 16.3883 3.70414C14.4191 1.81997 11.2166 1.81997 9.24662 3.70414L3.91079 8.81248C3.79111 8.92729 3.63072 8.98986 3.46491 8.98643C3.2991 8.98299 3.14144 8.91382 3.02662 8.79414C2.91181 8.67446 2.84924 8.51407 2.85267 8.34826C2.85611 8.18245 2.92528 8.02479 3.04496 7.90998L8.38329 2.80164Z" fill="black"/>
</svg>
