<svg width="22" height="28" viewBox="0 0 22 28" fill="none" xmlns="http://www.w3.org/2000/svg">
<path d="M14.7044 12.3483C12.7875 13.2864 10.3812 16.0598 9.93251 18.5885C9.76937 19.6489 9.85095 20.5054 10.1772 20.9132C10.3404 21.1172 10.5443 21.2395 10.8298 21.2803C11.4824 21.3619 11.931 20.8724 12.4204 20.3015C12.9506 19.7305 13.5216 19.0779 14.4189 19.0779C14.582 19.0779 14.7452 19.0779 14.9083 19.1187C15.5201 19.2818 15.9279 19.8528 16.0095 20.6277C16.1726 22.3407 14.1334 26.093 8.79053 27.6836C14.3781 27.6836 19.2315 24.2576 21.0261 20.5054C23.4732 15.448 20.7814 12.593 18.7421 11.9813C18.2935 11.8589 17.8041 11.7773 17.2739 11.7773C16.4174 11.7773 15.5609 11.9405 14.7044 12.3483Z" fill="url(#paint0_linear_747_33390)"/>
<path d="M2.67251 11.4916C0.225395 15.3661 -0.590309 19.3631 0.429321 22.3812C1.08188 24.3389 2.4278 25.7664 4.3447 26.5005C5.7314 27.0307 8.09694 27.3162 10.177 26.2558C12.7057 24.9915 13.8884 22.7075 14.1739 21.4839C14.2147 21.2392 14.2147 21.0761 14.1739 21.0761C14.0924 21.0353 14.0108 21.1576 13.6845 21.5247C13.3582 21.8918 12.4202 22.9522 11.4005 23.1561C9.93228 23.4416 8.83107 22.7891 8.26008 21.5247C7.6483 20.138 7.32202 16.5489 10.9111 12.3888C13.5214 9.37072 14.7041 6.31184 14.2963 3.49766C14.0516 1.86625 13.3582 0.765044 13.032 0.316406C8.74951 3.86472 4.79334 8.10638 2.67251 11.4916Z" fill="url(#paint1_linear_747_33390)"/>
<path d="M16.988 10.1866C17.3959 10.1866 17.7629 10.0234 18.0484 9.73793C18.2524 9.534 18.4563 9.20772 18.4563 8.7183C18.4563 7.86181 17.8853 6.88297 16.7433 5.7002C16.5802 6.35276 16.2947 6.80139 16.0908 7.20924C15.8053 7.73945 15.5605 8.14731 15.5605 8.75909C15.5605 9.77872 16.4578 10.1866 16.988 10.1866Z" fill="#382577"/>
<defs>
<linearGradient id="paint0_linear_747_33390" x1="13.5161" y1="23.9953" x2="18.7978" y2="11.518" gradientUnits="userSpaceOnUse">
<stop stop-color="#E62B84"/>
<stop offset="1" stop-color="#1D2088"/>
</linearGradient>
<linearGradient id="paint1_linear_747_33390" x1="11.9741" y1="7.90947" x2="4.6884" y2="25.0662" gradientUnits="userSpaceOnUse">
<stop stop-color="#891080"/>
<stop offset="0.8384" stop-color="#1D2088"/>
</linearGradient>
</defs>
</svg>
