<svg width="41" height="40" viewBox="0 0 41 40" fill="none" xmlns="http://www.w3.org/2000/svg">
<path d="M38.9215 20.0001C38.9215 16.3567 37.8411 12.7951 35.817 9.7658C33.7928 6.73644 30.9158 4.37535 27.5498 2.98109C24.1838 1.58684 20.4799 1.22204 16.9065 1.93283C13.3332 2.64361 10.0508 4.39807 7.47458 6.97432C4.89864 9.55024 3.14429 12.8321 2.43333 16.405C1.72237 19.9778 2.08672 23.6813 3.48032 27.0471C4.87392 30.4129 7.23419 33.2899 10.2627 35.3145C13.2913 37.339 16.8521 38.4202 20.495 38.4212L20.5003 38.4216C20.5041 38.4216 20.508 38.4212 20.5118 38.4211C25.3954 38.4181 30.078 36.476 33.5301 33.0217C36.9823 29.5674 38.9215 24.8837 38.9215 20.0001ZM6.53839 13.0779L15.6102 14.7342L6.09119 25.9402C5.25052 23.8869 4.85566 21.6784 4.93276 19.461C5.00986 17.2436 5.55715 15.0679 6.53839 13.0779ZM34.9095 14.0599C35.7501 16.1132 36.145 18.3217 36.0679 20.5391C35.9908 22.7565 35.4435 24.9322 34.4622 26.9222L25.3905 25.266L34.9095 14.0599ZM33.4785 11.3669L27.5057 18.3981L22.5604 4.5511C24.7607 4.84412 26.873 5.60378 28.7559 6.77922C30.6388 7.95467 32.2489 9.51878 33.4785 11.3669ZM19.514 4.44715L22.6158 13.1322L8.15385 10.4919C8.56249 9.95955 9.00495 9.454 9.4785 8.97841C12.1547 6.28826 15.7263 4.67559 19.514 4.44715ZM7.52217 28.6333L13.4949 21.602L18.4403 35.449C16.24 35.156 14.1277 34.3964 12.2447 33.2209C10.3618 32.0455 8.75169 30.4814 7.52217 28.6333ZM21.4866 35.553L18.3849 26.868L22.4733 27.6144L22.4814 27.6158L32.8468 29.5082C32.4382 30.0406 31.9957 30.5461 31.5221 31.0217C28.846 33.7119 25.2743 35.3245 21.4866 35.553Z" fill="#49A942"/>
<path d="M6.53843 13.0436L15.6102 14.6999L6.09123 25.9059C5.25056 23.8526 4.8557 21.6441 4.9328 19.4267C5.0099 17.2093 5.55719 15.0336 6.53843 13.0436ZM34.9095 14.0256C35.7502 16.0789 36.145 18.2874 36.0679 20.5048C35.9908 22.7222 35.4435 24.8979 34.4623 26.8879L25.3905 25.2317L34.9095 14.0256ZM33.4785 11.3326L27.5058 18.3638L22.5604 4.5168C24.7607 4.80982 26.873 5.56947 28.7559 6.74492C30.6389 7.92036 32.249 9.48447 33.4785 11.3326ZM19.5141 4.41284L22.6158 13.0979L8.15389 10.4576C8.56253 9.92525 9.00499 9.41969 9.47854 8.94411C12.1547 6.25396 15.7263 4.64129 19.5141 4.41284ZM7.52221 28.599L13.4949 21.5677L18.4403 35.4147C16.24 35.1217 14.1277 34.3621 12.2448 33.1866C10.3618 32.0112 8.75173 30.447 7.52221 28.599ZM21.4867 35.5187L18.3849 26.8337L22.4734 27.5801L22.4815 27.5815L32.8468 29.4739C32.4382 30.0063 31.9957 30.5118 31.5222 30.9874C28.846 33.6776 25.2744 35.2902 21.4867 35.5187Z" fill="white"/>
</svg>
