<svg width="7" height="11" viewBox="0 0 7 11" fill="none" xmlns="http://www.w3.org/2000/svg">
<path d="M4.24186 5.30365L0.222858 1.29265C0.152229 1.2224 0.0961805 1.13888 0.0579348 1.04689C0.019689 0.954905 0 0.856268 0 0.756649C0 0.657029 0.019689 0.558392 0.0579348 0.466406C0.0961805 0.374421 0.152229 0.290901 0.222858 0.220648C0.366035 0.0792737 0.559147 0 0.760359 0C0.961571 0 1.15468 0.0792737 1.29786 0.220648L5.85086 4.77065C5.98875 4.90869 6.06802 5.09465 6.07212 5.28973C6.07622 5.48481 6.00483 5.67393 5.87286 5.81765L1.30086 10.3986C1.1587 10.5412 0.96574 10.6214 0.76442 10.6217C0.563099 10.622 0.369913 10.5423 0.227359 10.4001C0.084805 10.258 0.00456044 10.065 0.00427914 9.86371C0.00399783 9.66239 0.0837027 9.4692 0.225859 9.32665L4.24186 5.30365Z" fill="white"/>
</svg>
