<svg xmlns="http://www.w3.org/2000/svg" width="20" height="20" viewBox="0 0 20 20">
  <g id="MDI_dock-window" data-name="MDI / dock-window" transform="translate(-0.442 0.005)">
    <rect id="Boundary" width="20" height="20" transform="translate(0.442 -0.005)" fill="#fff" opacity="0"/>
    <path id="Path_dock-window" data-name="Path / dock-window" d="M13.333,11.667v1.667H1.667A1.667,1.667,0,0,1,0,11.667V3.333H1.667v8.333m15-10V8.333A1.667,1.667,0,0,1,15,10H5A1.667,1.667,0,0,1,3.333,8.333V1.667A1.667,1.667,0,0,1,5,0H15a1.667,1.667,0,0,1,1.667,1.667M15,1.667H5V8.333H15Z" transform="translate(18.775 16.661) rotate(180)" fill="#fff"/>
  </g>
</svg>
