<svg width="24" height="24" viewBox="0 0 24 24" fill="none" xmlns="http://www.w3.org/2000/svg">
<path d="M11.5924 15.8525C11.4647 15.8525 11.3449 15.8327 11.2331 15.7931C11.1213 15.7534 11.0174 15.6854 10.9216 15.5889L7.47161 12.1389C7.27995 11.9473 7.18795 11.7237 7.19561 11.4681C7.20328 11.2125 7.29528 10.9889 7.47161 10.7973C7.66328 10.6056 7.89105 10.5059 8.15491 10.4983C8.41877 10.4906 8.64621 10.5823 8.83724 10.7733L10.6341 12.5702V5.7181C10.6341 5.44657 10.7261 5.21913 10.9101 5.03577C11.0941 4.85241 11.3216 4.76041 11.5924 4.75977C11.8633 4.75913 12.0911 4.85113 12.2757 5.03577C12.4604 5.22041 12.5521 5.44785 12.5508 5.7181V12.5702L14.3477 10.7733C14.5393 10.5816 14.7671 10.4896 15.0309 10.4973C15.2948 10.505 15.5223 10.605 15.7133 10.7973C15.889 10.9889 15.981 11.2125 15.9893 11.4681C15.9976 11.7237 15.9056 11.9473 15.7133 12.1389L12.2633 15.5889C12.1674 15.6848 12.0636 15.7528 11.9518 15.7931C11.84 15.8333 11.7202 15.8531 11.5924 15.8525ZM5.84245 20.0931C5.31536 20.0931 4.86431 19.9056 4.48928 19.5306C4.11425 19.1555 3.92642 18.7042 3.92578 18.1764V16.2598C3.92578 15.9882 4.01778 15.7608 4.20178 15.5774C4.38578 15.3941 4.61323 15.3021 4.88411 15.3014C5.155 15.3008 5.38277 15.3928 5.56741 15.5774C5.75205 15.7621 5.84373 15.9895 5.84245 16.2598V18.1764H17.3424V16.2598C17.3424 15.9882 17.4344 15.7608 17.6184 15.5774C17.8024 15.3941 18.0299 15.3021 18.3008 15.3014C18.5717 15.3008 18.7994 15.3928 18.9841 15.5774C19.1687 15.7621 19.2604 15.9895 19.2591 16.2598V18.1764C19.2591 18.7035 19.0716 19.1549 18.6966 19.5306C18.3215 19.9062 17.8702 20.0937 17.3424 20.0931H5.84245Z" fill="#020407"/>
</svg>
