<svg width="21" height="21" viewBox="0 0 21 21" fill="none" xmlns="http://www.w3.org/2000/svg">
<path d="M1.49707 10.4688C1.49707 8.40866 1.49707 7.37906 1.96507 6.52586C2.43127 5.67176 3.28537 5.14256 4.99267 4.08236L6.79267 2.96546C8.59717 1.84496 9.49987 1.28516 10.4971 1.28516C11.4943 1.28516 12.3961 1.84496 14.2015 2.96546L16.0015 4.08236C17.7088 5.14256 18.5629 5.67176 19.03 6.52586C19.4971 7.37996 19.4971 8.40866 19.4971 10.4679V11.8377C19.4971 15.3477 19.4971 17.1036 18.4423 18.1944C17.3875 19.2852 15.691 19.2852 12.2971 19.2852H8.69707C5.30317 19.2852 3.60577 19.2852 2.55187 18.1944C1.49797 17.1036 1.49707 15.3486 1.49707 11.8377V10.4688Z" stroke="white" stroke-width="1.5"/>
<path d="M10.4971 12.9847V15.6847" stroke="white" stroke-width="1.5" stroke-linecap="round"/>
</svg>
