<svg width="15" height="14" viewBox="0 0 15 14" fill="none" xmlns="http://www.w3.org/2000/svg">
<path d="M4.05566 8.32812H10.2783C11.1637 8.32818 12.0126 8.67969 12.6387 9.30566C13.2648 9.93183 13.6172 10.7815 13.6172 11.667C13.6171 12.1398 13.4291 12.5934 13.0947 12.9277C12.7604 13.2621 12.3068 13.4501 11.834 13.4502H2.5C2.02715 13.4501 1.57362 13.2621 1.23926 12.9277C0.904895 12.5934 0.716883 12.1398 0.716797 11.667C0.716797 10.7815 1.06915 9.93183 1.69531 9.30566C2.3214 8.67969 3.17032 8.32818 4.05566 8.32812ZM7.16699 0.549805C7.84606 0.549805 8.49727 0.819741 8.97754 1.2998C9.45784 1.78011 9.72852 2.43208 9.72852 3.11133C9.72846 3.7905 9.45779 4.44162 8.97754 4.92188C8.49725 5.40211 7.84619 5.67188 7.16699 5.67188C6.48779 5.67188 5.83674 5.40211 5.35645 4.92188C4.8762 4.44162 4.60553 3.7905 4.60547 3.11133C4.60547 2.43208 4.87614 1.78011 5.35645 1.2998C5.77671 0.879715 6.32786 0.620656 6.91406 0.5625L7.16699 0.549805Z" stroke="#666666" stroke-width="1.1"/>
</svg>
