<svg width="41" height="40" viewBox="0 0 41 40" fill="none" xmlns="http://www.w3.org/2000/svg">
<path d="M35.1223 8.10879H36.455C36.9528 8.10879 37.4302 8.30654 37.7822 8.65854C38.1342 9.01054 38.3319 9.48795 38.3319 9.98574V23.1244C38.3319 23.6222 38.1342 24.0996 37.7822 24.4516C37.4302 24.8036 36.9528 25.0013 36.455 25.0013H32.7011L24.8742 14.0475C24.4189 13.4105 23.776 12.9318 23.0352 12.6784C22.2944 12.425 21.493 12.4095 20.743 12.6341L16.0769 14.0343C15.4278 14.2286 14.7382 14.2436 14.0813 14.0778C13.4243 13.9119 12.8246 13.5713 12.3455 13.0921L11.7956 12.5422C11.5992 12.3458 11.4489 12.1084 11.3554 11.847C11.2619 11.5856 11.2275 11.3066 11.2548 11.0303C11.2821 10.754 11.3703 10.4872 11.5132 10.2491C11.656 10.0111 11.8499 9.80763 12.0809 9.65352L22.2183 2.8965C22.8234 2.49279 23.5329 2.27361 24.2603 2.26561C24.9877 2.25761 25.7018 2.46114 26.3157 2.85145L34.1163 7.81599C34.4165 8.00677 34.7666 8.10831 35.1223 8.10879ZM8.3495 23.6781L5.31635 26.3321C5.10905 26.5138 4.94432 26.739 4.83388 26.9916C4.72344 27.2442 4.66999 27.518 4.67733 27.7935C4.68468 28.0691 4.75264 28.3397 4.87638 28.586C5.00013 28.8324 5.17661 29.0484 5.3933 29.2189L15.0408 36.8017C15.2529 36.9687 15.4985 37.0879 15.7609 37.1513C16.0232 37.2147 16.2962 37.2208 16.5611 37.1692C16.826 37.1175 17.0766 37.0093 17.2959 36.852C17.5153 36.6946 17.698 36.4918 17.8319 36.2574L19.1532 33.945C19.5467 33.2564 19.712 32.4608 19.6253 31.6725C19.5387 30.8841 19.2045 30.1434 18.6708 29.5567L13.5993 23.9784C12.938 23.2507 12.0175 22.8116 11.0358 22.7555C10.0541 22.6993 9.08953 23.0306 8.3495 23.6781ZM12.1391 6.23184H4.54492C4.04712 6.23184 3.56971 6.42959 3.21771 6.78159C2.86572 7.13359 2.66797 7.61099 2.66797 8.10879V22.216C2.66807 22.973 2.89707 23.7123 3.3249 24.3369L3.4638 24.213L6.49507 21.559C7.79015 20.4258 9.47821 19.8459 11.1963 19.9442C12.9144 20.0425 14.5253 20.811 15.6827 22.0846L20.7543 27.6629C21.6876 28.6893 22.2721 29.9849 22.4238 31.364C22.5755 32.7431 22.2868 34.1347 21.5989 35.3396L20.3695 37.4906C20.8999 37.6917 21.469 37.77 22.034 37.7196C22.599 37.6692 23.1452 37.4915 23.6316 37.1996L31.909 32.2332C32.1309 32.0999 32.3229 31.9221 32.4728 31.7109C32.6226 31.4998 32.7272 31.26 32.7799 31.0065C32.8327 30.753 32.8323 30.4913 32.779 30.2379C32.7257 29.9846 32.6206 29.745 32.4702 29.5342L22.5843 15.6842C22.4705 15.5251 22.3098 15.4056 22.1247 15.3423C21.9396 15.2791 21.7394 15.2752 21.552 15.3313L16.8859 16.7296C15.7499 17.0704 14.5429 17.0973 13.3929 16.8075C12.2429 16.5177 11.1929 15.922 10.3541 15.0835L9.80413 14.5336C9.3131 14.0428 8.93708 13.4492 8.70319 12.7955C8.4693 12.1419 8.38337 11.4444 8.4516 10.7536C8.51983 10.0627 8.74051 9.39553 9.09773 8.80024C9.45496 8.20495 9.93983 7.69634 10.5174 7.31109L12.1391 6.23184Z" fill="#49A942"/>
</svg>
