<svg xmlns="http://www.w3.org/2000/svg" width="67" height="59" viewBox="0 0 67 59">
  <g id="ico-photo" transform="translate(-908.7 -1143)">
    <path id="패스_23335" data-name="패스 23335" d="M3251.768,3257.3a6.281,6.281,0,1,0,6.281-6.32A6.3,6.3,0,0,0,3251.768,3257.3Z" transform="translate(-2328.538 -2097.646)" fill="#ddd" fill-rule="evenodd"/>
    <path id="패스_23336" data-name="패스 23336" d="M3233.942,3289.086h50.25v-8.43l-14.656-25.285-16.75,21.07H3248.6l-14.656-12.645Z" transform="translate(-2316.866 -2095.718)" fill="#ddd" fill-rule="evenodd"/>
    <path id="패스_23334" data-name="패스 23334" d="M3223.852,3231.016c0,.005-.01.005-.01.005v50.555a.011.011,0,0,0,.01.01h58.61s.006,0,.006-.01v-50.555l-.006-.005Zm-.01-4.215h58.626a4.215,4.215,0,0,1,4.187,4.215v50.57a4.211,4.211,0,0,1-4.187,4.215h-58.626a4.214,4.214,0,0,1-4.187-4.215v-50.57a4.212,4.212,0,0,1,4.187-4.215Z" transform="translate(-2310.954 -2083.8)" fill="#ddd" fill-rule="evenodd"/>
  </g>
</svg>
