<svg width="22" height="22" viewBox="0 0 22 22" fill="none" xmlns="http://www.w3.org/2000/svg">
<path d="M15.1453 15.1458C15.9102 14.3809 16.5169 13.4728 16.9309 12.4734C17.3448 11.474 17.5579 10.4029 17.5579 9.32119C17.5579 8.23946 17.3448 7.16833 16.9309 6.16895C16.5169 5.16956 15.9102 4.2615 15.1453 3.49661C14.3804 2.73171 13.4723 2.12496 12.4729 1.711C11.4736 1.29705 10.4024 1.08398 9.3207 1.08398C8.23898 1.08398 7.16784 1.29705 6.16846 1.711C5.16908 2.12496 4.26101 2.73171 3.49612 3.49661C1.95134 5.04138 1.0835 7.13655 1.0835 9.32119C1.0835 11.5058 1.95134 13.601 3.49612 15.1458C5.04089 16.6905 7.13606 17.5584 9.3207 17.5584C11.5053 17.5584 13.6005 16.6905 15.1453 15.1458ZM15.1453 15.1458L20.3335 20.3339" stroke="black" stroke-width="1.5" stroke-linecap="round" stroke-linejoin="round"/>
</svg>
