<svg xmlns="http://www.w3.org/2000/svg" width="49" height="64.328" viewBox="0 0 49 64.328">
  <g id="ico-board" transform="translate(-1028 -1111)">
    <path id="패스_23337" data-name="패스 23337" d="M109.448,18.141,91.859.552A1.885,1.885,0,0,0,90.526,0H67.91A6.918,6.918,0,0,0,61,6.91V57.418a6.918,6.918,0,0,0,6.91,6.91H103.09a6.918,6.918,0,0,0,6.91-6.91V19.474a1.885,1.885,0,0,0-.552-1.333ZM92.41,6.434,103.566,17.59H93.038a.628.628,0,0,1-.628-.628ZM103.09,60.559H67.91a3.141,3.141,0,0,1-3.141-3.141V6.91A3.141,3.141,0,0,1,67.91,3.769H88.641V16.962a4.4,4.4,0,0,0,4.4,4.4h13.192V57.418a3.141,3.141,0,0,1-3.141,3.141Z" transform="translate(967 1111)" fill="#ddd"/>
    <path id="패스_23338" data-name="패스 23338" d="M183.01,312H162.887a1.946,1.946,0,0,0,0,3.89H183.01a1.946,1.946,0,0,0,0-3.89Z" transform="translate(879.577 839.454)" fill="#ddd"/>
    <path id="패스_23339" data-name="패스 23339" d="M162.887,245.89h12.577a1.946,1.946,0,0,0,0-3.89H162.887a1.946,1.946,0,0,0,0,3.89Z" transform="translate(879.577 900.378)" fill="#ddd"/>
    <path id="패스_23340" data-name="패스 23340" d="M183.01,382H162.887a1.946,1.946,0,0,0,0,3.89H183.01a1.946,1.946,0,0,0,0-3.89Z" transform="translate(879.577 778.531)" fill="#ddd"/>
  </g>
</svg>
