<svg width="40" height="40" viewBox="0 0 40 40" fill="none" xmlns="http://www.w3.org/2000/svg">
<path fill-rule="evenodd" clip-rule="evenodd" d="M19.5836 2.08325C19.252 2.08325 18.9341 2.21495 18.6997 2.44937C18.4653 2.68379 18.3336 3.00173 18.3336 3.33325V11.8749H15.6044L12.6419 8.91242C12.9677 8.11067 13.0061 7.22091 12.7507 6.39405C12.4953 5.56719 11.9618 4.85411 11.2406 4.37574C10.5194 3.89738 9.65498 3.68317 8.79388 3.76945C7.93279 3.85573 7.12803 4.23718 6.5161 4.84912C5.90416 5.46105 5.52271 6.26581 5.43643 7.1269C5.35015 7.988 5.56436 8.85244 6.04272 9.57362C6.52109 10.2948 7.23417 10.8283 8.06103 11.0837C8.88789 11.3391 9.77765 11.3007 10.5794 10.9749L13.9694 14.3641C14.2427 14.6376 14.6135 14.7914 15.0002 14.7916H18.3336V18.5416H8.45607C8.1195 17.744 7.51744 17.0875 6.752 16.6832C5.98655 16.279 5.10484 16.1519 4.2564 16.3236C3.40796 16.4953 2.64502 16.9552 2.09697 17.6252C1.54892 18.2953 1.24951 19.1343 1.24951 19.9999C1.24951 20.8656 1.54892 21.7045 2.09697 22.3746C2.64502 23.0447 3.40796 23.5045 4.2564 23.6762C5.10484 23.8479 5.98655 23.7209 6.752 23.3166C7.51744 22.9123 8.1195 22.2558 8.45607 21.4582H18.3336V26.0416H14.1669C13.7802 26.0416 13.4086 26.1949 13.1361 26.4691L9.74606 29.8582C8.94431 29.5325 8.05456 29.494 7.2277 29.7494C6.40083 30.0048 5.68776 30.5384 5.20939 31.2595C4.73102 31.9807 4.51682 32.8452 4.6031 33.7063C4.68937 34.5674 5.07083 35.3721 5.68276 35.984C6.2947 36.596 7.09945 36.9774 7.96055 37.0637C8.82165 37.15 9.68609 36.9358 10.4073 36.4574C11.1284 35.979 11.662 35.266 11.9174 34.4391C12.1728 33.6122 12.1343 32.7225 11.8086 31.9207L14.7711 28.9582H18.3336V37.3891C18.3336 37.7206 18.4653 38.0385 18.6997 38.273C18.9341 38.5074 19.252 38.6391 19.5836 38.6391H26.6669C26.9984 38.6391 27.3164 38.5074 27.5508 38.273C27.7852 38.0385 27.9169 37.7206 27.9169 37.3891V34.2582L30.3486 34.6691C30.8601 34.7554 31.3839 34.7347 31.887 34.6082C32.3901 34.4817 32.8614 34.2522 33.2713 33.9342C33.6811 33.6162 34.0206 33.2167 34.2681 32.7608C34.5156 32.3049 34.6659 31.8027 34.7094 31.2857L35.1127 26.4891C36.1281 26.1921 37.0965 25.7533 37.9894 25.1857C39.3552 24.3024 39.3644 22.6182 38.6369 21.5407L35.3711 16.7074C34.7544 8.52825 27.9219 2.08325 19.5836 2.08325Z" fill="#49A942"/>
</svg>
