<svg width="15" height="15" viewBox="0 0 15 15" fill="none" xmlns="http://www.w3.org/2000/svg">
<g clip-path="url(#clip0_457_3716)">
<path d="M11.5688 7.96875V13.4438H1.55625V3.19687H7.03125H7.18125V3.04688V2.10938V1.95937H7.03125H0.46875H0.31875V2.10938V14.5312V14.6812H0.46875H12.6562H12.8062V14.5312V7.96875V7.81875H12.6562H11.7188H11.5688V7.96875Z" fill="#222222" stroke="#222222" stroke-width="0.3"/>
<path d="M8.53456 0.31875H8.38456V0.46875V1.40625V1.55625H8.53456H12.197L5.05018 8.70312L4.94412 8.80919L5.05018 8.91526L5.71306 9.57813L5.81912 9.68419L5.92519 9.57813L13.0721 2.43128V6.09375V6.24375H13.2221H14.1596H14.3096V6.09375V0.46875V0.31875H14.1596H8.53456Z" fill="#222222" stroke="#222222" stroke-width="0.3"/>
</g>
<defs>
<clipPath id="clip0_457_3716">
<rect width="15" height="15" fill="white"/>
</clipPath>
</defs>
</svg>
