<svg width="430" height="422" viewBox="0 0 430 422" fill="none" xmlns="http://www.w3.org/2000/svg">
<path d="M270.905 185.106C241.591 199.22 204.135 242.104 197.621 281.189C194.907 297.474 195.993 310.502 201.421 317.016C203.593 320.273 206.85 321.902 211.192 322.444C220.963 323.53 228.02 315.93 235.62 307.245C243.763 298.017 252.448 288.246 266.019 288.246C268.19 288.246 270.905 288.788 273.076 289.331C282.304 291.503 288.818 300.188 289.904 312.673C292.618 339.272 261.133 396.813 178.622 421.241C264.933 421.241 339.845 368.586 366.987 311.045C404.443 232.876 363.73 189.449 331.702 179.678C324.645 177.507 317.046 176.421 308.903 176.421C297.504 175.878 283.933 178.592 270.905 185.106Z" fill="url(#paint0_linear_1199_24570)"/>
<path d="M85.7957 172.08C48.3398 231.792 35.3117 293.133 51.054 339.817C60.8251 369.673 81.9958 391.386 111.309 402.786C132.48 410.928 169.393 415.271 201.42 398.986C240.504 379.444 258.418 344.702 262.761 325.703C263.846 321.903 263.304 319.189 262.761 319.189C261.675 318.646 260.047 320.274 255.161 326.246C250.276 332.217 235.619 347.959 219.877 351.216C197.62 355.559 180.249 345.788 171.564 326.246C161.793 304.532 157.45 249.705 212.277 185.65C252.447 138.966 270.361 92.2824 264.389 48.8554C260.589 23.342 249.733 6.51406 245.39 0C179.707 54.2838 118.909 119.424 85.7957 172.08Z" fill="url(#paint1_linear_1199_24570)"/>
<path d="M306.188 151.996C312.159 151.996 318.13 149.824 322.473 145.482C325.187 142.767 328.987 137.339 328.987 129.739C328.987 116.711 320.302 100.969 302.388 83.0552C299.674 92.8263 295.874 99.8832 292.074 106.397C287.732 114.54 283.932 120.511 283.932 129.739C284.474 145.482 298.045 151.453 306.188 151.996Z" fill="#382577"/>
<path d="M341.418 385.556C341.418 385.556 342.061 404.031 344.083 406.053C346.105 408.075 346.841 410.924 344.819 412.671C342.797 414.417 334.8 414.601 330.939 413.406C326.987 412.211 325.976 408.626 321.104 387.118L341.418 385.556Z" fill="#001650"/>
<path d="M341.418 385.556C341.418 385.556 342.061 404.031 344.083 406.053C346.105 408.075 346.841 410.924 344.819 412.671C342.797 414.417 334.8 414.601 330.939 413.406C326.987 412.211 325.976 408.626 321.104 387.118L341.418 385.556Z" stroke="#001650" stroke-width="8" stroke-miterlimit="10" stroke-linecap="round" stroke-linejoin="round"/>
<path d="M343.072 402.927C343.348 404.489 343.715 405.592 344.175 406.052C346.197 408.074 346.933 410.923 344.91 412.67C342.888 414.508 334.892 414.6 331.031 413.405C328.458 412.67 327.079 410.74 325.057 403.203C332.594 403.754 339.028 403.386 343.072 402.927Z" fill="#001650"/>
<path d="M343.072 402.927C343.348 404.489 343.715 405.592 344.175 406.052C346.197 408.074 346.933 410.923 344.91 412.67C342.888 414.508 334.892 414.6 331.031 413.405C328.458 412.67 327.079 410.74 325.057 403.203C332.594 403.754 339.028 403.386 343.072 402.927Z" stroke="#001650" stroke-width="8" stroke-miterlimit="10" stroke-linecap="round" stroke-linejoin="round"/>
<path d="M342.797 405.868C342.797 405.868 340.499 406.236 336.271 406.236L342.797 405.868Z" fill="#001650"/>
<path d="M342.797 405.868C342.797 405.868 340.499 406.236 336.271 406.236" stroke="#001650" stroke-width="8" stroke-miterlimit="10" stroke-linecap="round" stroke-linejoin="round"/>
<path d="M344.084 408.35C344.084 408.35 341.786 408.717 337.558 408.717L344.084 408.35Z" fill="#001650"/>
<path d="M344.084 408.35C344.084 408.35 341.786 408.717 337.558 408.717" stroke="#001650" stroke-width="8" stroke-miterlimit="10" stroke-linecap="round" stroke-linejoin="round"/>
<path d="M282.041 385.556C282.041 385.556 281.398 404.031 279.376 406.053C277.354 408.075 276.618 410.924 278.64 412.671C280.663 414.417 288.659 414.601 292.52 413.406C296.472 412.211 297.483 408.626 302.355 387.118L282.041 385.556Z" fill="#001650"/>
<path d="M282.041 385.556C282.041 385.556 281.398 404.031 279.376 406.053C277.354 408.075 276.618 410.924 278.64 412.671C280.663 414.417 288.659 414.601 292.52 413.406C296.472 412.211 297.483 408.626 302.355 387.118L282.041 385.556Z" stroke="#001650" stroke-width="8" stroke-miterlimit="10" stroke-linecap="round" stroke-linejoin="round"/>
<path d="M280.386 402.927C280.11 404.489 279.743 405.592 279.283 406.052C277.261 408.074 276.525 410.923 278.548 412.67C280.57 414.508 288.566 414.6 292.427 413.405C295 412.67 296.379 410.74 298.401 403.203C290.864 403.754 284.43 403.386 280.386 402.927Z" fill="#001650"/>
<path d="M280.386 402.927C280.11 404.489 279.743 405.592 279.283 406.052C277.261 408.074 276.525 410.923 278.548 412.67C280.57 414.508 288.566 414.6 292.427 413.405C295 412.67 296.379 410.74 298.401 403.203C290.864 403.754 284.43 403.386 280.386 402.927Z" stroke="#001650" stroke-width="8" stroke-miterlimit="10" stroke-linecap="round" stroke-linejoin="round"/>
<path d="M280.662 405.868C280.662 405.868 282.96 406.236 287.188 406.236L280.662 405.868Z" fill="#001650"/>
<path d="M280.662 405.868C280.662 405.868 282.96 406.236 287.188 406.236" stroke="#001650" stroke-width="8" stroke-miterlimit="10" stroke-linecap="round" stroke-linejoin="round"/>
<path d="M279.376 408.35C279.376 408.35 281.674 408.717 285.902 408.717L279.376 408.35Z" fill="#001650"/>
<path d="M279.376 408.35C279.376 408.35 281.674 408.717 285.902 408.717" stroke="#001650" stroke-width="8" stroke-miterlimit="10" stroke-linecap="round" stroke-linejoin="round"/>
<path d="M330.204 383.717C330.204 383.717 321.932 386.29 311.637 386.29C301.435 386.29 293.07 383.717 293.07 383.717" fill="#001650"/>
<path d="M330.204 383.717C330.204 383.717 321.932 386.29 311.637 386.29C301.435 386.29 293.07 383.717 293.07 383.717" stroke="#001650" stroke-width="8" stroke-miterlimit="10" stroke-linecap="round" stroke-linejoin="round"/>
<path d="M315.866 386.382L320.094 394.563C331.308 395.206 343.9 392.357 343.9 392.357C343.165 388.772 343.809 373.882 343.809 373.882H279.56C279.56 373.882 280.203 388.772 279.468 392.357C279.468 392.357 292.06 395.206 303.274 394.563L307.502 386.382" fill="#001650"/>
<path d="M315.866 386.382L320.094 394.563C331.308 395.206 343.9 392.357 343.9 392.357C343.165 388.772 343.809 373.882 343.809 373.882H279.56C279.56 373.882 280.203 388.772 279.468 392.357C279.468 392.357 292.06 395.206 303.274 394.563L307.502 386.382" stroke="#001650" stroke-width="8" stroke-miterlimit="10" stroke-linecap="round" stroke-linejoin="round"/>
<path d="M349.691 371.217C349.691 378.294 332.686 380.316 311.73 380.316C290.773 380.316 273.769 378.202 273.769 371.217C273.769 364.139 290.773 362.117 311.73 362.117C332.686 362.117 349.691 364.139 349.691 371.217Z" fill="#001650"/>
<path d="M349.691 371.217C349.691 378.294 332.686 380.316 311.73 380.316C290.773 380.316 273.769 378.202 273.769 371.217C273.769 364.139 290.773 362.117 311.73 362.117C332.686 362.117 349.691 364.139 349.691 371.217Z" stroke="#001650" stroke-width="8" stroke-miterlimit="10" stroke-linecap="round" stroke-linejoin="round"/>
<path d="M278.64 369.746C281.765 357.889 283.052 328.108 283.052 328.108H340.315C340.315 328.108 341.602 357.889 344.727 369.746" fill="#001650"/>
<path d="M278.64 369.746C281.765 357.889 283.052 328.108 283.052 328.108H340.315C340.315 328.108 341.602 357.889 344.727 369.746" stroke="#001650" stroke-width="8" stroke-miterlimit="10" stroke-linecap="round" stroke-linejoin="round"/>
<path d="M375.335 269.558C382.505 304.853 353.643 326.729 314.211 334.726C274.78 342.723 239.576 333.991 232.407 298.695C224.87 261.653 251.617 222.222 292.427 200.07C307.134 192.073 302.262 202.552 309.064 208.618C318.899 217.442 365.5 221.394 375.335 269.558Z" fill="#001650"/>
<path d="M375.335 269.558C382.505 304.853 353.643 326.729 314.211 334.726C274.78 342.723 239.576 333.991 232.407 298.695C224.87 261.653 251.617 222.222 292.427 200.07C307.134 192.073 302.262 202.552 309.064 208.618C318.899 217.442 365.5 221.394 375.335 269.558Z" stroke="#001650" stroke-width="8" stroke-miterlimit="10" stroke-linecap="round" stroke-linejoin="round"/>
<path d="M262.279 362.025C262.279 362.025 257.04 370.94 265.772 376.179C273.401 380.775 280.387 377.007 282.777 368.918L282.317 361.473C282.317 361.473 278.64 352.465 272.666 349.064" fill="#001650"/>
<path d="M262.279 362.025C262.279 362.025 257.04 370.94 265.772 376.179C273.401 380.775 280.387 377.007 282.777 368.918L282.317 361.473C282.317 361.473 278.64 352.465 272.666 349.064" stroke="#001650" stroke-width="8" stroke-miterlimit="10" stroke-linecap="round" stroke-linejoin="round"/>
<path d="M268.897 368.55C261.452 366.988 246.562 358.256 252.72 346.95C258.878 335.645 282.225 329.486 282.225 329.486L291.416 333.439L287.924 362.3" fill="#001650"/>
<path d="M268.897 368.55C261.452 366.988 246.562 358.256 252.72 346.95C258.878 335.645 282.225 329.486 282.225 329.486L291.416 333.439L287.924 362.3" stroke="#001650" stroke-width="8" stroke-miterlimit="10" stroke-linecap="round" stroke-linejoin="round"/>
<path d="M284.798 358.165C284.798 358.165 278.916 350.352 272.206 348.697L284.798 358.165Z" fill="#001650"/>
<path d="M284.798 358.165C284.798 358.165 278.916 350.352 272.206 348.697" stroke="#001650" stroke-width="8" stroke-miterlimit="10" stroke-linecap="round" stroke-linejoin="round"/>
<path d="M425.429 258.712C423.774 250.439 419.73 246.854 418.903 246.119C417.8 245.2 413.48 241.615 407.23 241.891C405.943 241.983 403.002 242.259 399.968 244.097C394.362 247.406 392.707 253.289 392.431 254.575C391.42 252.186 389.214 250.623 386.824 250.623C384.802 250.623 382.872 251.91 381.953 253.197C379.747 256.506 383.699 260.642 384.802 267.903C385.721 273.326 384.527 277.646 383.516 281.323C380.666 291.985 371.658 298.235 364.397 303.474C355.389 310.092 342.797 319.743 326.804 333.715C329.469 338.954 332.135 344.101 334.8 349.34C344.176 348.973 360.537 347.134 377.817 337.575C401.439 324.523 412.285 305.313 416.605 297.408C428.37 275.624 425.98 261.469 425.429 258.712Z" fill="#001650"/>
<path d="M425.429 258.712C423.774 250.439 419.73 246.854 418.903 246.119C417.8 245.2 413.48 241.615 407.23 241.891C405.943 241.983 403.002 242.259 399.968 244.097C394.362 247.406 392.707 253.289 392.431 254.575C391.42 252.186 389.214 250.623 386.824 250.623C384.802 250.623 382.872 251.91 381.953 253.197C379.747 256.506 383.699 260.642 384.802 267.903C385.721 273.326 384.527 277.646 383.516 281.323C380.666 291.985 371.658 298.235 364.397 303.474C355.389 310.092 342.797 319.743 326.804 333.715C329.469 338.954 332.135 344.101 334.8 349.34C344.176 348.973 360.537 347.134 377.817 337.575C401.439 324.523 412.285 305.313 416.605 297.408C428.37 275.624 425.98 261.469 425.429 258.712Z" stroke="#001650" stroke-width="8" stroke-miterlimit="10" stroke-linecap="round" stroke-linejoin="round"/>
<path d="M425.429 258.712C423.774 250.439 419.73 246.854 418.903 246.119C417.8 245.2 413.48 241.615 407.23 241.891C405.943 241.983 403.002 242.259 399.968 244.097C394.362 247.406 392.707 253.289 392.431 254.575C391.42 252.186 389.214 250.623 386.824 250.623C384.802 250.623 382.872 251.91 381.953 253.197C379.747 256.506 383.699 260.642 384.802 267.903C385.721 273.326 384.527 277.646 383.516 281.323C380.666 291.985 371.658 298.235 364.397 303.474C355.389 310.092 342.797 319.743 326.804 333.715C329.469 338.954 332.135 344.101 334.8 349.34C344.176 348.973 360.537 347.134 377.817 337.575C401.439 324.523 412.285 305.313 416.605 297.408C428.37 275.624 425.98 261.469 425.429 258.712Z" fill="white"/>
<path d="M425.429 258.712C423.774 250.439 419.73 246.854 418.903 246.119C417.8 245.2 413.48 241.615 407.23 241.891C405.943 241.983 403.002 242.259 399.968 244.097C394.362 247.406 392.707 253.289 392.431 254.575C391.42 252.186 389.214 250.623 386.824 250.623C384.802 250.623 382.872 251.91 381.953 253.197C379.747 256.506 383.699 260.642 384.802 267.903C385.721 273.326 384.527 277.646 383.516 281.323C380.666 291.985 371.658 298.235 364.397 303.474C355.389 310.092 342.797 319.743 326.804 333.715C329.469 338.954 332.135 344.101 334.8 349.34C344.176 348.973 360.537 347.134 377.817 337.575C401.439 324.523 412.285 305.313 416.605 297.408C428.37 275.624 425.98 261.469 425.429 258.712Z" stroke="#001650" stroke-width="3" stroke-miterlimit="10" stroke-linecap="round" stroke-linejoin="round"/>
<path d="M356.952 413.865C356.952 416.714 337.006 418.92 312.281 418.92C287.648 418.92 267.61 416.622 267.61 413.865C267.61 411.016 287.556 408.81 312.281 408.81C336.915 408.81 356.952 411.016 356.952 413.865Z" fill="#001650"/>
<path d="M262.279 362.025C262.279 362.025 257.04 370.94 265.772 376.179C273.401 380.775 280.387 377.007 282.777 368.918L282.317 361.473C282.317 361.473 278.64 352.465 272.666 349.064" fill="white"/>
<path d="M262.279 362.025C262.279 362.025 257.04 370.94 265.772 376.179C273.401 380.775 280.387 377.007 282.777 368.918L282.317 361.473C282.317 361.473 278.64 352.465 272.666 349.064" stroke="#001650" stroke-width="3" stroke-miterlimit="10" stroke-linecap="round" stroke-linejoin="round"/>
<path d="M268.897 368.55C261.452 366.988 246.562 358.256 252.72 346.95C258.878 335.645 282.225 329.486 282.225 329.486L291.416 333.439L287.924 362.3" fill="white"/>
<path d="M268.897 368.55C261.452 366.988 246.562 358.256 252.72 346.95C258.878 335.645 282.225 329.486 282.225 329.486L291.416 333.439L287.924 362.3" stroke="#001650" stroke-width="3" stroke-miterlimit="10" stroke-linecap="round" stroke-linejoin="round"/>
<path d="M284.798 358.165C284.798 358.165 278.916 350.352 272.206 348.697L284.798 358.165Z" fill="white"/>
<path d="M284.798 358.165C284.798 358.165 278.916 350.352 272.206 348.697" stroke="#001650" stroke-width="3" stroke-miterlimit="10" stroke-linecap="round" stroke-linejoin="round"/>
<path d="M341.418 385.556C341.418 385.556 342.061 404.031 344.083 406.053C346.105 408.075 346.841 410.924 344.819 412.671C342.797 414.417 334.8 414.601 330.939 413.406C326.987 412.211 325.976 408.626 321.104 387.118L341.418 385.556Z" fill="white"/>
<path d="M341.418 385.556C341.418 385.556 342.061 404.031 344.083 406.053C346.105 408.075 346.841 410.924 344.819 412.671C342.797 414.417 334.8 414.601 330.939 413.406C326.987 412.211 325.976 408.626 321.104 387.118L341.418 385.556Z" stroke="#001650" stroke-width="3" stroke-miterlimit="10" stroke-linecap="round" stroke-linejoin="round"/>
<path d="M343.072 402.927C343.348 404.489 343.715 405.592 344.175 406.052C346.197 408.074 346.933 410.923 344.91 412.67C342.888 414.508 334.892 414.6 331.031 413.405C328.458 412.67 327.079 410.74 325.057 403.203C332.594 403.754 339.028 403.386 343.072 402.927Z" fill="#009FE8"/>
<path d="M343.072 402.927C343.348 404.489 343.715 405.592 344.175 406.052C346.197 408.074 346.933 410.923 344.91 412.67C342.888 414.508 334.892 414.6 331.031 413.405C328.458 412.67 327.079 410.74 325.057 403.203C332.594 403.754 339.028 403.386 343.072 402.927Z" stroke="#001650" stroke-width="3" stroke-miterlimit="10" stroke-linecap="round" stroke-linejoin="round"/>
<path d="M342.797 405.868C342.797 405.868 340.499 406.236 336.271 406.236L342.797 405.868Z" fill="#009FE8"/>
<path d="M342.797 405.868C342.797 405.868 340.499 406.236 336.271 406.236" stroke="#001650" stroke-width="1.881" stroke-miterlimit="10" stroke-linecap="round" stroke-linejoin="round"/>
<path d="M344.084 408.35C344.084 408.35 341.786 408.717 337.558 408.717L344.084 408.35Z" fill="#009FE8"/>
<path d="M344.084 408.35C344.084 408.35 341.786 408.717 337.558 408.717" stroke="#001650" stroke-width="1.881" stroke-miterlimit="10" stroke-linecap="round" stroke-linejoin="round"/>
<path d="M282.041 385.556C282.041 385.556 281.398 404.031 279.376 406.053C277.354 408.075 276.618 410.924 278.64 412.671C280.663 414.417 288.659 414.601 292.52 413.406C296.472 412.211 297.483 408.626 302.355 387.118L282.041 385.556Z" fill="white"/>
<path d="M282.041 385.556C282.041 385.556 281.398 404.031 279.376 406.053C277.354 408.075 276.618 410.924 278.64 412.671C280.663 414.417 288.659 414.601 292.52 413.406C296.472 412.211 297.483 408.626 302.355 387.118L282.041 385.556Z" stroke="#001650" stroke-width="3" stroke-miterlimit="10" stroke-linecap="round" stroke-linejoin="round"/>
<path d="M280.386 402.927C280.11 404.489 279.743 405.592 279.283 406.052C277.261 408.074 276.525 410.923 278.548 412.67C280.57 414.508 288.566 414.6 292.427 413.405C295 412.67 296.379 410.74 298.401 403.203C290.864 403.754 284.43 403.386 280.386 402.927Z" fill="#009FE8"/>
<path d="M280.386 402.927C280.11 404.489 279.743 405.592 279.283 406.052C277.261 408.074 276.525 410.923 278.548 412.67C280.57 414.508 288.566 414.6 292.427 413.405C295 412.67 296.379 410.74 298.401 403.203C290.864 403.754 284.43 403.386 280.386 402.927Z" stroke="#001650" stroke-width="3" stroke-miterlimit="10" stroke-linecap="round" stroke-linejoin="round"/>
<path d="M280.662 405.868C280.662 405.868 282.96 406.236 287.188 406.236L280.662 405.868Z" fill="#009FE8"/>
<path d="M280.662 405.868C280.662 405.868 282.96 406.236 287.188 406.236" stroke="#001650" stroke-width="1.881" stroke-miterlimit="10" stroke-linecap="round" stroke-linejoin="round"/>
<path d="M279.376 408.35C279.376 408.35 281.674 408.717 285.902 408.717L279.376 408.35Z" fill="#009FE8"/>
<path d="M279.376 408.35C279.376 408.35 281.674 408.717 285.902 408.717" stroke="#001650" stroke-width="1.881" stroke-miterlimit="10" stroke-linecap="round" stroke-linejoin="round"/>
<path d="M315.866 386.382L320.094 394.563C331.308 395.206 343.9 392.357 343.9 392.357C343.165 388.772 343.809 373.882 343.809 373.882H279.56C279.56 373.882 280.203 388.772 279.468 392.357C279.468 392.357 292.06 395.206 303.274 394.563L307.502 386.382" fill="#009FE8"/>
<path d="M315.866 386.382L320.094 394.563C331.308 395.206 343.9 392.357 343.9 392.357C343.165 388.772 343.809 373.882 343.809 373.882H279.56C279.56 373.882 280.203 388.772 279.468 392.357C279.468 392.357 292.06 395.206 303.274 394.563L307.502 386.382" stroke="#001650" stroke-width="3" stroke-miterlimit="10" stroke-linecap="round" stroke-linejoin="round"/>
<path d="M330.204 383.717C330.204 383.717 321.932 386.29 311.637 386.29C301.435 386.29 293.07 383.717 293.07 383.717" fill="#009FE8"/>
<path d="M330.204 383.717C330.204 383.717 321.932 386.29 311.637 386.29C301.435 386.29 293.07 383.717 293.07 383.717" stroke="#001650" stroke-width="3" stroke-miterlimit="10" stroke-linecap="round" stroke-linejoin="round"/>
<path d="M349.691 371.217C349.691 378.294 332.686 380.316 311.73 380.316C290.773 380.316 273.769 378.202 273.769 371.217C273.769 364.139 290.773 362.117 311.73 362.117C332.686 362.117 349.691 364.139 349.691 371.217Z" fill="#009FE8"/>
<path d="M349.691 371.217C349.691 378.294 332.686 380.316 311.73 380.316C290.773 380.316 273.769 378.202 273.769 371.217C273.769 364.139 290.773 362.117 311.73 362.117C332.686 362.117 349.691 364.139 349.691 371.217Z" stroke="#001650" stroke-width="3" stroke-miterlimit="10" stroke-linecap="round" stroke-linejoin="round"/>
<path d="M278.64 369.746C281.765 357.889 283.052 328.108 283.052 328.108H340.315C340.315 328.108 341.602 357.889 344.727 369.746" fill="#009FE8"/>
<path d="M278.64 369.746C281.765 357.889 283.052 328.108 283.052 328.108H340.315C340.315 328.108 341.602 357.889 344.727 369.746" stroke="#001650" stroke-width="3" stroke-miterlimit="10" stroke-linecap="round" stroke-linejoin="round"/>
<path d="M332.87 330.958C332.87 343.918 323.494 354.396 311.821 354.396C300.24 354.396 290.772 343.918 290.772 330.958" fill="white"/>
<path d="M332.87 330.958C332.87 343.918 323.494 354.396 311.821 354.396C300.24 354.396 290.772 343.918 290.772 330.958" stroke="#001650" stroke-width="3" stroke-miterlimit="10" stroke-linecap="round" stroke-linejoin="round"/>
<path d="M375.335 269.558C382.505 304.853 353.643 326.729 314.211 334.726C274.78 342.723 239.576 333.991 232.407 298.695C224.87 261.653 251.617 222.222 292.427 200.07C307.134 192.073 302.262 202.552 309.064 208.618C318.899 217.442 365.5 221.394 375.335 269.558Z" fill="#009FE8"/>
<mask id="mask0_1199_24570" style="mask-type:luminance" maskUnits="userSpaceOnUse" x="231" y="197" width="146" height="141">
<path d="M300.424 197.128C298.678 197.128 296.196 197.955 292.427 200.069C251.617 222.313 224.87 261.653 232.407 298.694C239.576 333.99 274.688 342.814 314.211 334.725C353.643 326.637 382.596 304.853 375.335 269.557C365.5 221.394 318.899 217.533 309.064 208.617C304.009 204.114 305.388 197.128 300.424 197.128Z" fill="white"/>
</mask>
<g mask="url(#mask0_1199_24570)">
<path d="M226.064 267.168C226.064 267.168 240.495 340.333 332.962 331.509L334.892 340.792L230.384 362.117" fill="#8DC21F"/>
</g>
<mask id="mask1_1199_24570" style="mask-type:luminance" maskUnits="userSpaceOnUse" x="231" y="197" width="146" height="141">
<path d="M300.424 197.128C298.678 197.128 296.196 197.955 292.427 200.069C251.617 222.313 224.87 261.653 232.407 298.694C239.576 333.99 274.688 342.814 314.211 334.725C353.643 326.637 382.596 304.853 375.335 269.557C365.5 221.394 318.899 217.533 309.064 208.617C304.009 204.114 305.388 197.128 300.424 197.128Z" fill="white"/>
</mask>
<g mask="url(#mask1_1199_24570)">
<path d="M368.809 238.031C368.809 238.031 384.159 311.012 295.645 339.138L297.575 348.513L402.083 327.189" fill="#FCCB00"/>
</g>
<path d="M358.422 277.003C363.57 302.28 342.981 324.248 313.292 330.314C283.603 336.381 256.029 324.248 250.881 298.971C245.734 273.694 266.323 251.726 296.012 245.66C325.701 239.594 353.275 251.726 358.422 277.003Z" fill="white"/>
<path d="M358.422 277.003C363.57 302.28 342.981 324.248 313.292 330.314C283.603 336.381 256.029 324.248 250.881 298.971C245.734 273.694 266.323 251.726 296.012 245.66C325.701 239.594 353.275 251.726 358.422 277.003Z" stroke="#001650" stroke-width="3" stroke-miterlimit="10" stroke-linecap="round" stroke-linejoin="round"/>
<path d="M295.001 240.512C312.741 236.928 330.848 242.902 338.109 249.244C345.371 255.495 339.488 257.793 334.341 256.046C324.782 252.829 315.13 250.899 297.85 254.392C280.57 257.884 272.482 263.491 264.945 270.201C260.9 273.878 254.558 274.062 258.786 265.422C263.014 256.69 277.261 244.097 295.001 240.512Z" fill="#E8473C"/>
<path d="M295.001 240.512C312.741 236.928 330.848 242.902 338.109 249.244C345.371 255.495 339.488 257.793 334.341 256.046C324.782 252.829 315.13 250.899 297.85 254.392C280.57 257.884 272.482 263.491 264.945 270.201C260.9 273.878 254.558 274.062 258.786 265.422C263.014 256.69 277.261 244.097 295.001 240.512Z" stroke="#001650" stroke-width="3" stroke-miterlimit="10" stroke-linecap="round" stroke-linejoin="round"/>
<path d="M310.627 317.078C322.116 314.688 320.737 300.349 319.175 292.812C318.807 290.882 316.601 289.963 314.947 291.066C313.108 292.261 310.259 293.64 306.031 294.467C301.803 295.294 298.678 295.202 296.472 294.834C294.541 294.467 292.887 296.213 293.255 298.052C294.725 305.681 299.137 319.468 310.627 317.078Z" fill="#001650"/>
<path d="M375.335 269.558C382.505 304.853 353.643 326.729 314.211 334.726C274.78 342.723 239.576 333.991 232.407 298.695C224.87 261.653 251.617 222.222 292.427 200.07C307.134 192.073 302.262 202.552 309.064 208.618C318.899 217.442 365.5 221.394 375.335 269.558Z" stroke="#001650" stroke-width="3" stroke-miterlimit="10" stroke-linecap="round" stroke-linejoin="round"/>
<path d="M282.225 317.078C280.57 320.295 275.791 321.122 271.471 318.916C267.151 316.71 264.945 312.39 266.599 309.173C268.254 305.956 273.033 305.129 277.353 307.335C281.673 309.541 283.879 313.861 282.225 317.078Z" fill="#F4B3AF"/>
<path d="M336.731 305.956C339.488 308.254 344.268 307.151 347.393 303.474C350.518 299.798 350.794 294.926 348.128 292.536C345.371 290.239 340.591 291.342 337.466 295.018C334.249 298.787 333.973 303.658 336.731 305.956Z" fill="#F4B3AF"/>
<path d="M285.257 296.305C285.901 301.177 283.419 305.221 279.742 305.497C276.066 305.773 272.665 302.004 272.021 297.133C271.378 292.261 273.86 288.217 277.536 287.941C281.213 287.757 284.614 291.526 285.257 296.305Z" fill="#001650"/>
<path d="M338.661 285.459C339.304 290.33 336.822 294.375 333.146 294.65C329.469 294.926 326.068 291.158 325.425 286.286C324.781 281.415 327.263 277.37 330.94 277.094C334.616 276.911 338.017 280.587 338.661 285.459Z" fill="#001650"/>
<path d="M276.067 293.64C275.515 294.743 274.596 295.386 274.044 295.018C273.493 294.651 273.493 293.364 274.044 292.261C274.596 291.158 275.515 290.515 276.067 290.882C276.526 291.25 276.618 292.445 276.067 293.64Z" fill="white"/>
<path d="M329.469 282.702C328.917 283.805 327.998 284.449 327.447 284.081C326.895 283.713 326.895 282.426 327.447 281.323C327.998 280.22 328.917 279.577 329.469 279.945C329.929 280.312 330.02 281.599 329.469 282.702Z" fill="white"/>
<path d="M306.766 332.52C308.604 333.439 311.913 342.355 308.421 349.708C304.928 357.061 295.92 360.095 293.99 359.267C292.152 358.348 288.843 349.433 292.335 342.079C295.92 334.726 304.928 331.693 306.766 332.52Z" fill="#8DC21F"/>
<path d="M306.766 332.52C308.604 333.439 311.913 342.355 308.421 349.708C304.928 357.061 295.92 360.095 293.99 359.267C292.152 358.348 288.843 349.433 292.335 342.079C295.92 334.726 304.928 331.693 306.766 332.52Z" stroke="#001650" stroke-width="3" stroke-miterlimit="10" stroke-linecap="round" stroke-linejoin="round"/>
<path d="M306.307 337.943C306.307 337.943 301.987 341.528 300.24 347.319L306.307 337.943Z" fill="#8DC21F"/>
<path d="M306.307 337.943C306.307 337.943 301.987 341.528 300.24 347.319" stroke="#001650" stroke-width="3" stroke-miterlimit="10" stroke-linecap="round" stroke-linejoin="round"/>
<path d="M320.186 329.762C318.807 331.325 319.266 340.792 325.425 346.215C331.583 351.638 341.05 350.903 342.429 349.34C343.808 347.778 343.348 338.31 337.19 332.887C331.032 327.556 321.564 328.292 320.186 329.762Z" fill="#FCCB00"/>
<path d="M320.186 329.762C318.807 331.325 319.266 340.792 325.425 346.215C331.583 351.638 341.05 350.903 342.429 349.34C343.808 347.778 343.348 338.31 337.19 332.887C331.032 327.556 321.564 328.292 320.186 329.762Z" stroke="#001650" stroke-width="3" stroke-miterlimit="10" stroke-linecap="round" stroke-linejoin="round"/>
<path d="M322.668 334.634C322.668 334.634 327.999 336.288 331.86 340.884L322.668 334.634Z" fill="#FCCB00"/>
<path d="M322.668 334.634C322.668 334.634 327.999 336.288 331.86 340.884" stroke="#001650" stroke-width="3" stroke-miterlimit="10" stroke-linecap="round" stroke-linejoin="round"/>
<path d="M314.119 334.175C314.947 338.219 315.866 341.528 312.005 342.263C308.145 343.091 306.582 339.965 305.755 335.829C304.928 331.785 305.204 328.292 309.064 327.465C312.741 326.73 313.292 330.13 314.119 334.175Z" fill="#8DC21F"/>
<path d="M314.119 334.175C314.947 338.219 315.866 341.528 312.005 342.263C308.145 343.091 306.582 339.965 305.755 335.829C304.928 331.785 305.204 328.292 309.064 327.465C312.741 326.73 313.292 330.13 314.119 334.175Z" stroke="#001650" stroke-width="3" stroke-miterlimit="10" stroke-linecap="round" stroke-linejoin="round"/>
<path d="M322.484 332.428C323.311 336.472 323.035 339.965 319.175 340.792C315.315 341.619 314.855 338.219 314.028 334.174C313.2 330.13 312.281 326.821 316.142 326.086C320.094 325.258 321.657 328.384 322.484 332.428Z" fill="#FCCB00"/>
<path d="M322.484 332.428C323.311 336.472 323.035 339.965 319.175 340.792C315.315 341.619 314.855 338.219 314.028 334.174C313.2 330.13 312.281 326.821 316.142 326.086C320.094 325.258 321.657 328.384 322.484 332.428Z" stroke="#001650" stroke-width="3" stroke-miterlimit="10" stroke-linecap="round" stroke-linejoin="round"/>
<path d="M87.1809 385.371C87.1809 385.371 86.5375 403.846 84.5154 405.868C82.4932 407.89 81.7579 410.74 83.7801 412.486C85.8022 414.233 93.7988 414.416 97.6593 413.221C101.612 412.027 102.623 408.442 107.494 386.934L87.1809 385.371Z" fill="#001650"/>
<path d="M87.1809 385.371C87.1809 385.371 86.5375 403.846 84.5154 405.868C82.4932 407.89 81.7579 410.74 83.7801 412.486C85.8022 414.233 93.7988 414.416 97.6593 413.221C101.612 412.027 102.623 408.442 107.494 386.934L87.1809 385.371Z" stroke="#001650" stroke-width="8" stroke-miterlimit="10" stroke-linecap="round" stroke-linejoin="round"/>
<path d="M85.6184 402.835C85.3426 404.398 84.975 405.501 84.5154 405.96C82.4932 407.982 81.7579 410.832 83.7801 412.578C85.8022 414.416 93.7988 414.508 97.6593 413.313C100.233 412.578 101.612 410.648 103.634 403.111C96.0048 403.57 89.5707 403.203 85.6184 402.835Z" fill="#001650"/>
<path d="M85.6184 402.835C85.3426 404.398 84.975 405.501 84.5154 405.96C82.4932 407.982 81.7579 410.832 83.7801 412.578C85.8022 414.416 93.7988 414.508 97.6593 413.313C100.233 412.578 101.612 410.648 103.634 403.111C96.0048 403.57 89.5707 403.203 85.6184 402.835Z" stroke="#001650" stroke-width="8" stroke-miterlimit="10" stroke-linecap="round" stroke-linejoin="round"/>
<path d="M85.8018 405.776C85.8018 405.776 88.0996 406.144 92.3278 406.144L85.8018 405.776Z" fill="#001650"/>
<path d="M85.8018 405.776C85.8018 405.776 88.0996 406.144 92.3278 406.144" stroke="#001650" stroke-width="8" stroke-miterlimit="10" stroke-linecap="round" stroke-linejoin="round"/>
<path d="M84.5156 408.259C84.5156 408.259 86.8135 408.626 91.0416 408.626L84.5156 408.259Z" fill="#001650"/>
<path d="M84.5156 408.259C84.5156 408.259 86.8135 408.626 91.0416 408.626" stroke="#001650" stroke-width="8" stroke-miterlimit="10" stroke-linecap="round" stroke-linejoin="round"/>
<path d="M146.65 385.371C146.65 385.371 147.294 403.846 149.316 405.868C151.338 407.89 152.073 410.74 150.051 412.486C148.029 414.233 140.032 414.416 136.172 413.221C132.219 412.027 131.208 408.442 126.337 386.934L146.65 385.371Z" fill="#001650"/>
<path d="M146.65 385.371C146.65 385.371 147.294 403.846 149.316 405.868C151.338 407.89 152.073 410.74 150.051 412.486C148.029 414.233 140.032 414.416 136.172 413.221C132.219 412.027 131.208 408.442 126.337 386.934L146.65 385.371Z" stroke="#001650" stroke-width="8" stroke-miterlimit="10" stroke-linecap="round" stroke-linejoin="round"/>
<path d="M148.212 402.835C148.487 404.398 148.855 405.501 149.315 405.96C151.337 407.982 152.072 410.832 150.05 412.578C148.028 414.416 140.031 414.508 136.171 413.313C133.597 412.578 132.218 410.648 130.196 403.111C137.825 403.57 144.259 403.203 148.212 402.835Z" fill="#001650"/>
<path d="M148.212 402.835C148.487 404.398 148.855 405.501 149.315 405.96C151.337 407.982 152.072 410.832 150.05 412.578C148.028 414.416 140.031 414.508 136.171 413.313C133.597 412.578 132.218 410.648 130.196 403.111C137.825 403.57 144.259 403.203 148.212 402.835Z" stroke="#001650" stroke-width="8" stroke-miterlimit="10" stroke-linecap="round" stroke-linejoin="round"/>
<path d="M148.029 405.776C148.029 405.776 145.731 406.144 141.503 406.144L148.029 405.776Z" fill="#001650"/>
<path d="M148.029 405.776C148.029 405.776 145.731 406.144 141.503 406.144" stroke="#001650" stroke-width="8" stroke-miterlimit="10" stroke-linecap="round" stroke-linejoin="round"/>
<path d="M149.315 408.259C149.315 408.259 147.017 408.626 142.789 408.626L149.315 408.259Z" fill="#001650"/>
<path d="M149.315 408.259C149.315 408.259 147.017 408.626 142.789 408.626" stroke="#001650" stroke-width="8" stroke-miterlimit="10" stroke-linecap="round" stroke-linejoin="round"/>
<path d="M98.3945 383.625C98.3945 383.625 106.667 386.199 116.961 386.199C127.164 386.199 135.528 383.625 135.528 383.625" fill="#001650"/>
<path d="M98.3945 383.625C98.3945 383.625 106.667 386.199 116.961 386.199C127.164 386.199 135.528 383.625 135.528 383.625" stroke="#001650" stroke-width="8" stroke-miterlimit="10" stroke-linecap="round" stroke-linejoin="round"/>
<path d="M112.732 386.291L108.504 394.471C97.2906 395.114 84.6982 392.265 84.6982 392.265C85.4336 388.68 84.7902 373.79 84.7902 373.79H149.039C149.039 373.79 148.396 388.68 149.131 392.265C149.131 392.265 136.539 395.114 125.325 394.471L121.097 386.291" fill="#001650"/>
<path d="M112.732 386.291L108.504 394.471C97.2906 395.114 84.6982 392.265 84.6982 392.265C85.4336 388.68 84.7902 373.79 84.7902 373.79H149.039C149.039 373.79 148.396 388.68 149.131 392.265C149.131 392.265 136.539 395.114 125.325 394.471L121.097 386.291" stroke="#001650" stroke-width="8" stroke-miterlimit="10" stroke-linecap="round" stroke-linejoin="round"/>
<path d="M79 371.125C79 378.202 96.0044 380.225 116.961 380.225C137.918 380.225 154.922 378.111 154.922 371.125C154.922 364.047 137.918 362.025 116.961 362.025C96.0044 361.933 79 364.047 79 371.125Z" fill="#001650"/>
<path d="M79 371.125C79 378.202 96.0044 380.225 116.961 380.225C137.918 380.225 154.922 378.111 154.922 371.125C154.922 364.047 137.918 362.025 116.961 362.025C96.0044 361.933 79 364.047 79 371.125Z" stroke="#001650" stroke-width="8" stroke-miterlimit="10"/>
<path d="M149.959 369.561C146.834 357.704 145.547 327.924 145.547 327.924H88.284C88.284 327.924 86.9972 357.704 83.8721 369.561" fill="#001650"/>
<path d="M149.959 369.561C146.834 357.704 145.547 327.924 145.547 327.924H88.284C88.284 327.924 86.9972 357.704 83.8721 369.561" stroke="#001650" stroke-width="8" stroke-miterlimit="10"/>
<path d="M166.136 361.841C166.136 361.841 171.375 370.757 162.643 375.996C155.014 380.592 148.028 376.823 145.639 368.735L146.098 361.289C146.098 361.289 149.775 352.282 155.749 348.881" fill="#001650"/>
<path d="M166.136 361.841C166.136 361.841 171.375 370.757 162.643 375.996C155.014 380.592 148.028 376.823 145.639 368.735L146.098 361.289C146.098 361.289 149.775 352.282 155.749 348.881" stroke="#001650" stroke-width="8" stroke-miterlimit="10"/>
<path d="M159.427 368.367C166.872 366.804 181.762 358.072 175.604 346.767C169.445 335.461 146.099 329.303 146.099 329.303L136.907 333.255L140.4 362.117" fill="#001650"/>
<path d="M159.427 368.367C166.872 366.804 181.762 358.072 175.604 346.767C169.445 335.461 146.099 329.303 146.099 329.303L136.907 333.255L140.4 362.117" stroke="#001650" stroke-width="8" stroke-miterlimit="10"/>
<path d="M143.616 358.073C143.616 358.073 149.499 350.26 156.209 348.605L143.616 358.073Z" fill="#001650"/>
<path d="M143.616 358.073C143.616 358.073 149.499 350.26 156.209 348.605" stroke="#001650" stroke-width="8" stroke-miterlimit="10"/>
<path d="M195.732 296.305C191.045 332.061 156.668 343.274 116.685 338.035C76.702 332.796 46.3699 313.034 51.0576 277.279C54.5504 250.991 71.0952 204.114 95.5447 198.232C125.877 190.97 132.311 236.101 147.661 232.7C159.15 230.126 165.584 223.968 177.441 228.38C191.78 233.711 199.961 264.595 195.732 296.305Z" fill="#001650"/>
<path d="M195.732 296.305C191.045 332.061 156.668 343.274 116.685 338.035C76.702 332.796 46.3699 313.034 51.0576 277.279C54.5504 250.991 71.0952 204.114 95.5447 198.232C125.877 190.97 132.311 236.101 147.661 232.7C159.15 230.126 165.584 223.968 177.441 228.38C191.78 233.711 199.961 264.595 195.732 296.305Z" stroke="#001650" stroke-width="8" stroke-miterlimit="10"/>
<path d="M4.73195 259.814C6.57025 251.634 10.7064 248.141 11.6256 247.406C12.7286 246.487 17.1405 243.086 23.3908 243.545C24.6776 243.637 27.6189 244.005 30.5602 245.935C36.0751 249.428 37.5457 255.311 37.8215 256.597C38.9245 254.208 41.1305 252.737 43.5202 252.737C45.5424 252.737 47.4726 254.116 48.2999 255.494C50.4139 258.895 46.3696 262.94 44.9909 270.109C43.9798 275.532 44.9909 279.852 45.91 283.529C48.4837 294.283 57.3995 300.717 64.477 306.14C73.3928 312.942 85.6175 322.96 101.243 337.391C98.4857 342.538 95.6363 347.686 92.8788 352.741C83.5034 352.189 67.2344 349.8 50.1382 339.781C26.7916 326.085 16.4971 306.599 12.4528 298.603C1.33108 276.635 4.18045 262.572 4.73195 259.814Z" fill="#001650"/>
<path d="M4.73195 259.814C6.57025 251.634 10.7064 248.141 11.6256 247.406C12.7286 246.487 17.1405 243.086 23.3908 243.545C24.6776 243.637 27.6189 244.005 30.5602 245.935C36.0751 249.428 37.5457 255.311 37.8215 256.597C38.9245 254.208 41.1304 252.737 43.5203 252.737C45.5424 252.737 47.4726 254.116 48.2999 255.494C50.4139 258.895 46.3696 262.94 44.9909 270.109C43.9798 275.532 44.9909 279.852 45.91 283.529C48.4837 294.283 57.3995 300.717 64.477 306.14C73.3928 312.942 85.6175 322.96 101.243 337.391C98.4857 342.538 95.6363 347.686 92.8788 352.741C83.5034 352.189 67.2344 349.8 50.1382 339.781C26.7916 326.085 16.4971 306.599 12.4528 298.603C1.33108 276.635 4.18045 262.572 4.73195 259.814Z" stroke="#001650" stroke-width="8" stroke-miterlimit="10"/>
<path d="M4.73195 259.814C6.57025 251.634 10.7064 248.141 11.6256 247.406C12.7286 246.487 17.1405 243.086 23.3908 243.545C24.6776 243.637 27.6189 244.005 30.5602 245.935C36.0751 249.428 37.5457 255.311 37.8215 256.597C38.9245 254.208 41.1305 252.737 43.5202 252.737C45.5424 252.737 47.4726 254.116 48.2999 255.494C50.4139 258.895 46.3696 262.94 44.9909 270.109C43.9798 275.532 44.9909 279.852 45.91 283.529C48.4837 294.283 57.3995 300.717 64.477 306.14C73.3928 312.942 85.6175 322.96 101.243 337.391C98.4857 342.538 95.6363 347.686 92.8788 352.741C83.5034 352.189 67.2344 349.8 50.1382 339.781C26.7916 326.085 16.4971 306.599 12.4528 298.603C1.33108 276.635 4.18045 262.572 4.73195 259.814Z" fill="white"/>
<path d="M4.73195 259.814C6.57025 251.634 10.7064 248.141 11.6256 247.406C12.7286 246.487 17.1405 243.086 23.3908 243.545C24.6776 243.637 27.6189 244.005 30.5602 245.935C36.0751 249.428 37.5457 255.311 37.8215 256.597C38.9245 254.208 41.1304 252.737 43.5203 252.737C45.5424 252.737 47.4726 254.116 48.2999 255.494C50.4139 258.895 46.3696 262.94 44.9909 270.109C43.9798 275.532 44.9909 279.852 45.91 283.529C48.4837 294.283 57.3995 300.717 64.477 306.14C73.3928 312.942 85.6175 322.96 101.243 337.391C98.4857 342.538 95.6363 347.686 92.8788 352.741C83.5034 352.189 67.2344 349.8 50.1382 339.781C26.7916 326.085 16.4971 306.599 12.4528 298.603C1.33108 276.635 4.18045 262.572 4.73195 259.814Z" stroke="#001650" stroke-width="3" stroke-miterlimit="10" stroke-linecap="round" stroke-linejoin="round"/>
<path d="M162.184 413.774C162.184 416.623 142.238 418.829 117.513 418.829C92.8794 418.829 72.8418 416.531 72.8418 413.774C72.8418 410.924 92.7874 408.718 117.513 408.718C142.146 408.627 162.184 410.924 162.184 413.774Z" fill="#001650"/>
<path d="M166.136 361.841C166.136 361.841 171.375 370.757 162.643 375.996C155.014 380.592 148.028 376.823 145.639 368.735L146.098 361.289C146.098 361.289 149.775 352.282 155.749 348.881" fill="white"/>
<path d="M166.136 361.841C166.136 361.841 171.375 370.757 162.643 375.996C155.014 380.592 148.028 376.823 145.639 368.735L146.098 361.289C146.098 361.289 149.775 352.282 155.749 348.881" stroke="#001650" stroke-width="3" stroke-miterlimit="10" stroke-linecap="round" stroke-linejoin="round"/>
<path d="M159.427 368.367C166.872 366.804 181.762 358.072 175.604 346.767C169.445 335.461 146.099 329.303 146.099 329.303L136.907 333.255L140.4 362.117" fill="white"/>
<path d="M159.427 368.367C166.872 366.804 181.762 358.072 175.604 346.767C169.445 335.461 146.099 329.303 146.099 329.303L136.907 333.255L140.4 362.117" stroke="#001650" stroke-width="3" stroke-miterlimit="10" stroke-linecap="round" stroke-linejoin="round"/>
<path d="M143.616 358.073C143.616 358.073 149.499 350.26 156.209 348.605L143.616 358.073Z" fill="white"/>
<path d="M143.616 358.073C143.616 358.073 149.499 350.26 156.209 348.605" stroke="#001650" stroke-width="3" stroke-miterlimit="10" stroke-linecap="round" stroke-linejoin="round"/>
<path d="M87.1809 385.371C87.1809 385.371 86.5375 403.846 84.5154 405.868C82.4932 407.89 81.7579 410.74 83.7801 412.486C85.8022 414.233 93.7988 414.416 97.6593 413.221C101.612 412.027 102.623 408.442 107.494 386.934L87.1809 385.371Z" fill="white"/>
<path d="M87.1809 385.371C87.1809 385.371 86.5375 403.846 84.5154 405.868C82.4932 407.89 81.7579 410.74 83.7801 412.486C85.8022 414.233 93.7988 414.416 97.6593 413.221C101.612 412.027 102.623 408.442 107.494 386.934L87.1809 385.371Z" stroke="#001650" stroke-width="3" stroke-miterlimit="10" stroke-linecap="round" stroke-linejoin="round"/>
<path d="M85.6184 402.835C85.3426 404.398 84.975 405.501 84.5154 405.96C82.4932 407.982 81.7579 410.832 83.7801 412.578C85.8022 414.416 93.7988 414.508 97.6593 413.313C100.233 412.578 101.612 410.648 103.634 403.111C96.0048 403.57 89.5707 403.203 85.6184 402.835Z" fill="#8DC21F"/>
<path d="M85.6184 402.835C85.3426 404.398 84.975 405.501 84.5154 405.96C82.4932 407.982 81.7579 410.832 83.7801 412.578C85.8022 414.416 93.7988 414.508 97.6593 413.313C100.233 412.578 101.612 410.648 103.634 403.111C96.0048 403.57 89.5707 403.203 85.6184 402.835Z" stroke="#001650" stroke-width="3" stroke-miterlimit="10" stroke-linecap="round" stroke-linejoin="round"/>
<path d="M85.8018 405.776C85.8018 405.776 88.0996 406.144 92.3278 406.144L85.8018 405.776Z" fill="#009FE8"/>
<path d="M85.8018 405.776C85.8018 405.776 88.0996 406.144 92.3278 406.144" stroke="#001650" stroke-width="1.881" stroke-miterlimit="10" stroke-linecap="round" stroke-linejoin="round"/>
<path d="M84.5156 408.259C84.5156 408.259 86.8135 408.626 91.0416 408.626L84.5156 408.259Z" fill="#009FE8"/>
<path d="M84.5156 408.259C84.5156 408.259 86.8135 408.626 91.0416 408.626" stroke="#001650" stroke-width="1.881" stroke-miterlimit="10" stroke-linecap="round" stroke-linejoin="round"/>
<path d="M146.65 385.371C146.65 385.371 147.294 403.846 149.316 405.868C151.338 407.89 152.073 410.74 150.051 412.486C148.029 414.233 140.032 414.416 136.172 413.221C132.219 412.027 131.208 408.442 126.337 386.934L146.65 385.371Z" fill="white"/>
<path d="M146.65 385.371C146.65 385.371 147.294 403.846 149.316 405.868C151.338 407.89 152.073 410.74 150.051 412.486C148.029 414.233 140.032 414.416 136.172 413.221C132.219 412.027 131.208 408.442 126.337 386.934L146.65 385.371Z" stroke="#001650" stroke-width="3" stroke-miterlimit="10" stroke-linecap="round" stroke-linejoin="round"/>
<path d="M148.212 402.835C148.487 404.398 148.855 405.501 149.315 405.96C151.337 407.982 152.072 410.832 150.05 412.578C148.028 414.416 140.031 414.508 136.171 413.313C133.597 412.578 132.218 410.648 130.196 403.111C137.825 403.57 144.259 403.203 148.212 402.835Z" fill="#8DC21F"/>
<path d="M148.212 402.835C148.487 404.398 148.855 405.501 149.315 405.96C151.337 407.982 152.072 410.832 150.05 412.578C148.028 414.416 140.031 414.508 136.171 413.313C133.597 412.578 132.218 410.648 130.196 403.111C137.825 403.57 144.259 403.203 148.212 402.835Z" stroke="#001650" stroke-width="3" stroke-miterlimit="10" stroke-linecap="round" stroke-linejoin="round"/>
<path d="M148.029 405.776C148.029 405.776 145.731 406.144 141.503 406.144L148.029 405.776Z" fill="#009FE8"/>
<path d="M148.029 405.776C148.029 405.776 145.731 406.144 141.503 406.144" stroke="#001650" stroke-width="1.881" stroke-miterlimit="10" stroke-linecap="round" stroke-linejoin="round"/>
<path d="M149.315 408.259C149.315 408.259 147.017 408.626 142.789 408.626L149.315 408.259Z" fill="#009FE8"/>
<path d="M149.315 408.259C149.315 408.259 147.017 408.626 142.789 408.626" stroke="#001650" stroke-width="1.881" stroke-miterlimit="10" stroke-linecap="round" stroke-linejoin="round"/>
<path d="M112.732 386.291L108.504 394.471C97.2906 395.114 84.6982 392.265 84.6982 392.265C85.4336 388.68 84.7902 373.79 84.7902 373.79H149.039C149.039 373.79 148.396 388.68 149.131 392.265C149.131 392.265 136.539 395.114 125.325 394.471L121.097 386.291" fill="#8DC21F"/>
<path d="M112.732 386.291L108.504 394.471C97.2906 395.114 84.6982 392.265 84.6982 392.265C85.4336 388.68 84.7902 373.79 84.7902 373.79H149.039C149.039 373.79 148.396 388.68 149.131 392.265C149.131 392.265 136.539 395.114 125.325 394.471L121.097 386.291" stroke="#001650" stroke-width="3" stroke-miterlimit="10" stroke-linecap="round" stroke-linejoin="round"/>
<path d="M98.3945 383.625C98.3945 383.625 106.667 386.199 116.961 386.199C127.164 386.199 135.528 383.625 135.528 383.625" fill="#8DC21F"/>
<path d="M98.3945 383.625C98.3945 383.625 106.667 386.199 116.961 386.199C127.164 386.199 135.528 383.625 135.528 383.625" stroke="#001650" stroke-width="3" stroke-miterlimit="10" stroke-linecap="round" stroke-linejoin="round"/>
<path d="M79 371.125C79 378.202 96.0044 380.225 116.961 380.225C137.918 380.225 154.922 378.111 154.922 371.125C154.922 364.047 137.918 362.025 116.961 362.025C96.0044 361.933 79 364.047 79 371.125Z" fill="#8DC21F"/>
<path d="M79 371.125C79 378.202 96.0044 380.225 116.961 380.225C137.918 380.225 154.922 378.111 154.922 371.125C154.922 364.047 137.918 362.025 116.961 362.025C96.0044 361.933 79 364.047 79 371.125Z" stroke="#001650" stroke-width="3" stroke-miterlimit="10" stroke-linecap="round" stroke-linejoin="round"/>
<path d="M149.959 369.561C146.834 357.704 145.547 327.924 145.547 327.924H88.284C88.284 327.924 86.9972 357.704 83.8721 369.561" fill="#8DC21F"/>
<path d="M149.959 369.561C146.834 357.704 145.547 327.924 145.547 327.924H88.284C88.284 327.924 86.9972 357.704 83.8721 369.561" stroke="#001650" stroke-width="3" stroke-miterlimit="10" stroke-linecap="round" stroke-linejoin="round"/>
<path d="M95.7285 330.773C95.7285 343.734 105.104 354.212 116.777 354.212C128.358 354.212 137.826 343.734 137.826 330.773" fill="white"/>
<path d="M95.7285 330.773C95.7285 343.734 105.104 354.212 116.777 354.212C128.358 354.212 137.826 343.734 137.826 330.773" stroke="#001650" stroke-width="3" stroke-miterlimit="10" stroke-linecap="round" stroke-linejoin="round"/>
<path d="M84.6982 327.557C84.6982 327.557 87.8234 341.252 108.504 347.502C120.637 351.179 128.266 354.764 132.586 357.061C135.619 358.716 139.296 357.889 141.318 355.131C144.351 350.995 147.752 344.009 147.109 333.991" fill="#E8473C"/>
<path d="M84.6982 327.557C84.6982 327.557 87.8234 341.252 108.504 347.502C120.637 351.179 128.266 354.764 132.586 357.061C135.619 358.716 139.296 357.889 141.318 355.131C144.351 350.995 147.752 344.009 147.109 333.991" stroke="#001650" stroke-width="3" stroke-miterlimit="10" stroke-linecap="round" stroke-linejoin="round"/>
<path d="M89.6621 331.785C89.6621 331.785 99.4051 341.436 118.707 343.275L89.6621 331.785Z" fill="#E8473C"/>
<path d="M89.6621 331.785C89.6621 331.785 99.4051 341.436 118.707 343.275" stroke="#001650" stroke-width="3" stroke-miterlimit="10" stroke-linecap="round" stroke-linejoin="round"/>
<path d="M195.732 296.305C191.045 332.061 156.668 343.274 116.685 338.035C76.702 332.796 46.3699 313.034 51.0576 277.279C54.5504 250.991 71.0952 204.114 95.5447 198.232C125.877 190.97 132.311 236.101 147.661 232.7C159.15 230.126 165.584 223.968 177.441 228.38C191.78 233.711 199.961 264.595 195.732 296.305Z" fill="#8DC21F"/>
<path d="M195.732 296.305C191.045 332.061 156.668 343.274 116.685 338.035C76.702 332.796 46.3699 313.034 51.0576 277.279C54.5504 250.991 71.0952 204.114 95.5447 198.232C125.877 190.97 132.311 236.101 147.661 232.7C159.15 230.126 165.584 223.968 177.441 228.38C191.78 233.711 199.961 264.595 195.732 296.305Z" stroke="#001650" stroke-width="3" stroke-miterlimit="10" stroke-linecap="round" stroke-linejoin="round"/>
<mask id="mask2_1199_24570" style="mask-type:luminance" maskUnits="userSpaceOnUse" x="50" y="197" width="147" height="143">
<path d="M101.979 197.496C99.9565 197.496 97.8424 197.772 95.6365 198.323C71.0951 204.114 54.5503 250.991 51.1494 277.279C46.4617 313.034 76.7938 332.704 116.777 338.035C156.76 343.274 191.137 332.06 195.824 296.305C199.96 264.594 191.78 233.711 177.533 228.38C165.676 223.968 159.242 230.126 147.752 232.7C140.399 234.354 135.068 224.795 128.083 215.144C121.649 206.32 113.928 197.496 101.979 197.496Z" fill="white"/>
</mask>
<g mask="url(#mask2_1199_24570)">
<path d="M177.349 297.959C173.948 323.788 164.665 333.898 149.682 343.733L83.3196 335.001C71.3706 321.673 65.0284 309.541 68.4293 283.712" fill="#E8473C"/>
</g>
<mask id="mask3_1199_24570" style="mask-type:luminance" maskUnits="userSpaceOnUse" x="50" y="197" width="147" height="143">
<path d="M101.979 197.496C99.9565 197.496 97.8424 197.772 95.6365 198.323C71.0951 204.114 54.5503 250.991 51.1494 277.279C46.4617 313.034 76.7938 332.704 116.777 338.035C156.76 343.274 191.137 332.06 195.824 296.305C199.96 264.594 191.78 233.711 177.533 228.38C165.676 223.968 159.242 230.126 147.752 232.7C140.399 234.354 135.068 224.795 128.083 215.144C121.649 206.32 113.928 197.496 101.979 197.496Z" fill="white"/>
</mask>
<g mask="url(#mask3_1199_24570)">
<path d="M88.835 257.057C106.023 235.917 143.617 228.472 143.617 228.472L149.04 229.299C149.04 229.299 161.908 243.913 165.309 267.903" fill="#009FE8"/>
</g>
<path d="M68.4288 283.621C65.028 309.174 87.1796 329.671 117.236 333.623C147.292 337.576 173.948 323.513 177.349 297.96C180.749 272.408 158.598 251.91 128.542 247.958C98.4852 244.006 71.8297 258.069 68.4288 283.621Z" fill="white"/>
<path d="M68.4288 283.621C65.028 309.174 87.1796 329.671 117.236 333.623C147.292 337.576 173.948 323.513 177.349 297.96C180.749 272.408 158.598 251.91 128.542 247.958C98.4852 244.006 71.8297 258.069 68.4288 283.621Z" stroke="#001650" stroke-width="3" stroke-miterlimit="10" stroke-linecap="round" stroke-linejoin="round"/>
<path d="M129.186 242.719C111.262 240.329 93.6144 247.682 86.8127 254.484C80.011 261.285 86.0774 263.032 91.0408 261.01C100.324 257.149 109.792 254.484 127.255 256.782C144.719 259.08 153.176 264.043 161.172 270.201C165.492 273.51 171.834 273.326 166.963 265.054C162.275 256.598 147.201 245.016 129.186 242.719Z" fill="#FCCB00"/>
<path d="M129.186 242.719C111.262 240.329 93.6144 247.682 86.8127 254.484C80.011 261.285 86.0774 263.032 91.0408 261.01C100.324 257.149 109.792 254.484 127.255 256.782C144.719 259.08 153.176 264.043 161.172 270.201C165.492 273.51 171.834 273.326 166.963 265.054C162.275 256.598 147.201 245.016 129.186 242.719Z" stroke="#001650" stroke-width="3" stroke-miterlimit="10" stroke-linecap="round" stroke-linejoin="round"/>
<path d="M112.272 298.511C112.272 298.511 114.203 302.831 121.188 303.75C128.174 304.669 131.115 300.992 131.115 300.992" fill="white"/>
<path d="M112.272 298.511C112.272 298.511 114.203 302.831 121.188 303.75C128.174 304.669 131.115 300.992 131.115 300.992" stroke="#001650" stroke-width="3" stroke-miterlimit="10" stroke-linecap="round" stroke-linejoin="round"/>
<path d="M147.385 318.181C149.223 321.306 154.095 321.766 158.231 319.284C162.367 316.802 164.297 312.298 162.459 309.173C160.621 306.048 155.749 305.589 151.613 308.07C147.385 310.644 145.546 315.148 147.385 318.181Z" fill="#F4B3AF"/>
<path d="M92.2352 311.012C89.6616 313.494 84.7901 312.758 81.4811 309.265C78.0803 305.773 77.4368 300.901 80.0105 298.419C82.5841 295.938 87.4556 296.673 90.7646 300.166C94.1655 303.659 94.8089 308.438 92.2352 311.012Z" fill="#F4B3AF"/>
<path d="M142.88 297.684C142.605 302.555 145.362 306.508 149.039 306.416C152.715 306.416 155.84 302.463 156.116 297.592C156.392 292.72 153.634 288.768 149.958 288.86C146.281 288.86 143.156 292.812 142.88 297.684Z" fill="#001650"/>
<path d="M88.8344 290.607C88.5587 295.478 91.3161 299.431 94.9928 299.339C98.6694 299.339 101.795 295.386 102.07 290.515C102.346 285.643 99.5885 281.691 95.9119 281.783C92.2353 281.783 89.1102 285.735 88.8344 290.607Z" fill="#001650"/>
<path d="M151.889 294.375C152.532 295.478 153.451 296.03 154.003 295.57C154.554 295.11 154.462 293.916 153.819 292.813C153.176 291.71 152.256 291.158 151.705 291.618C151.153 291.985 151.245 293.272 151.889 294.375Z" fill="white"/>
<path d="M97.8418 287.206C98.4853 288.309 99.4044 288.861 99.9559 288.401C100.507 287.941 100.415 286.747 99.7721 285.644C99.1287 284.541 98.2095 283.989 97.658 284.449C97.1065 284.908 97.1984 286.103 97.8418 287.206Z" fill="white"/>
<path d="M195.732 296.305C191.045 332.061 156.668 343.274 116.685 338.035C76.702 332.796 46.3699 313.034 51.0576 277.279C54.5504 250.991 71.0952 204.114 95.5447 198.232C125.877 190.97 132.311 236.101 147.661 232.7C159.15 230.126 165.584 223.968 177.441 228.38C191.78 233.711 199.961 264.595 195.732 296.305Z" stroke="#001650" stroke-width="3" stroke-miterlimit="10" stroke-linecap="round" stroke-linejoin="round"/>
<defs>
<linearGradient id="paint0_linear_1199_24570" x1="252.791" y1="364.255" x2="334.117" y2="172.128" gradientUnits="userSpaceOnUse">
<stop stop-color="#E62B84"/>
<stop offset="1" stop-color="#1D2088"/>
</linearGradient>
<linearGradient id="paint1_linear_1199_24570" x1="229.049" y1="116.57" x2="116.863" y2="380.751" gradientUnits="userSpaceOnUse">
<stop stop-color="#891080"/>
<stop offset="0.8384" stop-color="#1D2088"/>
</linearGradient>
</defs>
</svg>
