<svg width="156" height="156" viewBox="0 0 156 156" fill="none" xmlns="http://www.w3.org/2000/svg">
<path d="M141.057 77.9875C141.387 77.9875 141.655 77.7201 141.652 77.3902C141.652 77.3803 141.651 77.3704 141.651 77.3606C141.648 77.0307 141.375 76.7688 141.045 76.7755C140.715 76.7823 140.453 77.0577 140.457 77.3876C140.46 77.7175 140.727 77.9875 141.057 77.9875Z" fill="#49A942"/>
<path d="M155.112 77.8007C155.382 77.8007 155.601 77.5818 155.599 77.3118C155.598 77.0419 155.376 76.8257 155.106 76.8291L145.123 76.9546C144.891 76.9575 144.705 77.1481 144.707 77.3803C144.708 77.6125 144.896 77.8007 145.129 77.8007H155.112Z" fill="#49A942"/>
<path d="M140.833 72.4775C141.162 72.4487 141.406 72.1589 141.374 71.8306C141.373 71.8208 141.372 71.8109 141.371 71.8011C141.338 71.4728 141.043 71.2357 140.715 71.2711C140.387 71.3066 140.151 71.6038 140.183 71.9322C140.215 72.2605 140.505 72.5062 140.833 72.4775Z" fill="#49A942"/>
<path d="M154.818 71.0655C155.087 71.042 155.286 70.8049 155.261 70.536C155.236 70.2672 154.996 70.0713 154.727 70.0982L144.794 71.0932C144.563 71.1163 144.394 71.3224 144.416 71.5536C144.438 71.7847 144.641 71.9559 144.873 71.9356L154.818 71.0655Z" fill="#49A942"/>
<path d="M140.128 67.0018C140.453 66.9445 140.67 66.6346 140.609 66.3103C140.608 66.3006 140.606 66.2909 140.604 66.2812C140.543 65.9569 140.229 65.7464 139.905 65.8103C139.581 65.8743 139.372 66.1909 139.432 66.5152C139.493 66.8395 139.803 67.0591 140.128 67.0018Z" fill="#49A942"/>
<path d="M153.94 64.3765C154.206 64.3296 154.384 64.076 154.335 63.8104C154.286 63.5448 154.031 63.3705 153.765 63.4207L143.956 65.2777C143.728 65.3209 143.578 65.5409 143.62 65.7693C143.662 65.9977 143.88 66.1504 144.108 66.1101L153.94 64.3765Z" fill="#49A942"/>
<path d="M138.953 61.6112C139.272 61.5259 139.461 61.1982 139.373 60.8804C139.37 60.8709 139.367 60.8614 139.365 60.8519C139.276 60.5341 138.944 60.3518 138.627 60.4437C138.311 60.5356 138.129 60.8694 138.218 61.1872C138.306 61.5049 138.634 61.6966 138.953 61.6112Z" fill="#49A942"/>
<path d="M152.483 57.7942C152.744 57.7243 152.899 57.4562 152.828 57.1958C152.756 56.9355 152.486 56.7842 152.226 56.8573L142.616 59.5622C142.393 59.6251 142.263 59.8572 142.324 60.0811C142.386 60.305 142.616 60.4381 142.84 60.3781L152.483 57.7942Z" fill="#49A942"/>
<path d="M137.309 56.3412C137.619 56.2284 137.779 55.8855 137.663 55.5766C137.659 55.5673 137.656 55.5581 137.653 55.5489C137.536 55.24 137.19 55.0874 136.883 55.2065C136.575 55.3257 136.423 55.674 136.539 55.9828C136.655 56.2917 136.999 56.454 137.309 56.3412Z" fill="#49A942"/>
<path d="M150.449 51.3587C150.702 51.2664 150.833 50.9858 150.739 50.7327C150.645 50.4795 150.363 50.3523 150.11 50.4478L140.773 53.98C140.556 54.0621 140.446 54.3047 140.527 54.5224C140.608 54.7401 140.849 54.8526 141.067 54.7732L150.449 51.3587Z" fill="#49A942"/>
<path d="M135.21 51.2386C135.509 51.0991 135.638 50.7436 135.496 50.446C135.492 50.4371 135.487 50.4282 135.483 50.4193C135.34 50.1217 134.982 49.9998 134.686 50.1454C134.39 50.2909 134.269 50.6511 134.412 50.9486C134.554 51.2462 134.911 51.378 135.21 51.2386Z" fill="#49A942"/>
<path d="M147.868 45.1287C148.113 45.0146 148.219 44.7236 148.103 44.4797C147.987 44.2357 147.695 44.1336 147.452 44.2507L138.458 48.5832C138.248 48.684 138.161 48.9352 138.26 49.145C138.359 49.3549 138.61 49.446 138.82 49.3478L147.868 45.1287Z" fill="#49A942"/>
<path d="M132.678 46.3359C132.963 46.1709 133.062 45.8054 132.894 45.5214C132.889 45.5128 132.884 45.5043 132.879 45.4958C132.711 45.2119 132.343 45.1216 132.061 45.2924C131.779 45.4632 131.69 45.8325 131.858 46.1165C132.026 46.4005 132.392 46.5008 132.678 46.3359Z" fill="#49A942"/>
<path d="M144.756 39.1453C144.99 39.0103 145.071 38.7112 144.934 38.4783C144.798 38.2453 144.498 38.169 144.265 38.307L135.683 43.4069C135.483 43.5255 135.418 43.7834 135.535 43.9838C135.653 44.1841 135.91 44.2531 136.111 44.137L144.756 39.1453Z" fill="#49A942"/>
<path d="M129.727 41.6741C129.997 41.4849 130.063 41.1122 129.871 40.8439C129.865 40.8358 129.86 40.8278 129.854 40.8198C129.662 40.5515 129.288 40.4937 129.022 40.6884C128.755 40.8831 128.699 41.2588 128.891 41.5271C129.083 41.7954 129.457 41.8633 129.727 41.6741Z" fill="#49A942"/>
<path d="M141.132 33.4575C141.353 33.3027 141.407 32.9977 141.251 32.7776C141.095 32.5574 140.789 32.5076 140.57 32.6652L132.465 38.4937C132.276 38.6293 132.233 38.8919 132.368 39.0813C132.502 39.2706 132.764 39.3169 132.954 39.1837L141.132 33.4575Z" fill="#49A942"/>
<path d="M126.375 37.2829C126.627 37.0709 126.661 36.6939 126.446 36.4433C126.44 36.4358 126.433 36.4283 126.427 36.4208C126.212 36.1703 125.834 36.1452 125.586 36.3624C125.338 36.5796 125.314 36.9588 125.529 37.2093C125.744 37.4599 126.122 37.495 126.375 37.2829Z" fill="#49A942"/>
<path d="M137.026 28.1057C137.233 27.9322 137.26 27.6237 137.085 27.418C136.91 27.2122 136.601 27.1892 136.397 27.3654L128.83 33.8782C128.654 34.0296 128.634 34.295 128.785 34.4719C128.935 34.6488 129.2 34.6721 129.378 34.5229L137.026 28.1057Z" fill="#49A942"/>
<path d="M122.66 33.2046C122.894 32.9713 122.894 32.5929 122.658 32.3619C122.651 32.355 122.644 32.3481 122.637 32.3412C122.401 32.1104 122.023 32.1183 121.795 32.3563C121.566 32.5944 121.576 32.9741 121.812 33.205C122.047 33.4358 122.427 33.4379 122.66 33.2046Z" fill="#49A942"/>
<path d="M132.468 23.1329C132.659 22.942 132.659 22.6323 132.467 22.4426C132.275 22.2529 131.965 22.2569 131.777 22.4502L124.807 29.5977C124.645 29.7639 124.648 30.03 124.813 30.1931C124.979 30.3563 125.245 30.3564 125.409 30.1922L132.468 23.1329Z" fill="#49A942"/>
<path d="M118.603 29.4657C118.815 29.2129 118.783 28.8359 118.528 28.6264C118.52 28.6201 118.513 28.6138 118.505 28.6076C118.25 28.3982 117.874 28.4391 117.667 28.6961C117.46 28.9531 117.503 29.3305 117.758 29.54C118.013 29.7495 118.391 29.7184 118.603 29.4657Z" fill="#49A942"/>
<path d="M127.496 18.5754C127.669 18.3686 127.642 18.0601 127.435 17.8879C127.227 17.7156 126.919 17.7466 126.748 17.9556L120.427 25.6833C120.28 25.8631 120.307 26.1278 120.485 26.276C120.664 26.4241 120.929 26.401 121.079 26.2231L127.496 18.5754Z" fill="#49A942"/>
<path d="M109.267 132.677C109.432 132.963 109.797 133.061 110.081 132.893C110.09 132.888 110.098 132.883 110.107 132.878C110.391 132.71 110.481 132.342 110.31 132.06C110.14 131.778 109.77 131.689 109.486 131.857C109.202 132.025 109.102 132.391 109.267 132.677Z" fill="#E9EDF0"/>
<path d="M116.455 144.758C116.59 144.991 116.889 145.072 117.122 144.935C117.355 144.799 117.431 144.499 117.293 144.267L112.193 135.684C112.074 135.485 111.817 135.419 111.616 135.536C111.416 135.654 111.347 135.911 111.463 136.112L116.455 144.758Z" fill="#E9EDF0"/>
<path d="M113.928 129.726C114.118 129.996 114.49 130.062 114.759 129.87C114.767 129.865 114.775 129.859 114.783 129.853C115.051 129.661 115.109 129.287 114.914 129.021C114.719 128.755 114.344 128.698 114.075 128.89C113.807 129.082 113.739 129.456 113.928 129.726Z" fill="#E9EDF0"/>
<path d="M122.146 141.134C122.301 141.356 122.606 141.409 122.827 141.253C123.047 141.097 123.097 140.791 122.939 140.572L117.109 132.467C116.974 132.278 116.712 132.235 116.523 132.37C116.334 132.504 116.286 132.766 116.419 132.956L122.146 141.134Z" fill="#E9EDF0"/>
<path d="M118.315 126.378C118.527 126.631 118.904 126.664 119.154 126.449C119.162 126.443 119.169 126.436 119.177 126.43C119.427 126.215 119.452 125.838 119.235 125.589C119.018 125.341 118.639 125.318 118.388 125.532C118.138 125.747 118.102 126.125 118.315 126.378Z" fill="#E9EDF0"/>
<path d="M127.497 137.028C127.67 137.235 127.979 137.262 128.184 137.087C128.39 136.912 128.413 136.603 128.237 136.399L121.724 128.832C121.573 128.656 121.307 128.637 121.13 128.787C120.953 128.937 120.93 129.202 121.079 129.38L127.497 137.028Z" fill="#E9EDF0"/>
<path d="M122.397 122.666C122.631 122.899 123.009 122.899 123.24 122.663C123.247 122.656 123.254 122.649 123.261 122.642C123.492 122.407 123.484 122.028 123.246 121.8C123.008 121.571 122.628 121.581 122.397 121.817C122.166 122.052 122.164 122.432 122.397 122.666Z" fill="#E9EDF0"/>
<path d="M132.467 132.475C132.658 132.666 132.968 132.666 133.157 132.474C133.347 132.282 133.343 131.972 133.15 131.784L126.002 124.814C125.836 124.652 125.57 124.655 125.407 124.82C125.244 124.986 125.244 125.252 125.408 125.416L132.467 132.475Z" fill="#E9EDF0"/>
<path d="M126.139 118.607C126.391 118.819 126.768 118.786 126.978 118.531C126.984 118.523 126.99 118.516 126.997 118.508C127.206 118.253 127.165 117.877 126.908 117.67C126.651 117.463 126.274 117.506 126.064 117.761C125.855 118.016 125.886 118.394 126.139 118.607Z" fill="#E9EDF0"/>
<path d="M137.025 127.498C137.232 127.672 137.54 127.645 137.712 127.437C137.884 127.229 137.854 126.921 137.645 126.75L129.917 120.429C129.737 120.282 129.472 120.309 129.324 120.488C129.176 120.666 129.199 120.932 129.377 121.081L137.025 127.498Z" fill="#E9EDF0"/>
<path d="M129.512 114.239C129.782 114.428 130.155 114.362 130.342 114.09C130.347 114.082 130.353 114.074 130.358 114.066C130.545 113.794 130.471 113.422 130.197 113.239C129.923 113.055 129.551 113.131 129.364 113.403C129.178 113.675 129.242 114.049 129.512 114.239Z" fill="#E9EDF0"/>
<path d="M141.131 122.148C141.352 122.303 141.657 122.249 141.81 122.027C141.964 121.805 141.906 121.501 141.683 121.348L133.434 115.725C133.242 115.595 132.981 115.644 132.849 115.835C132.717 116.026 132.763 116.288 132.953 116.422L141.131 122.148Z" fill="#E9EDF0"/>
<path d="M132.49 109.591C132.776 109.756 133.141 109.658 133.303 109.371C133.308 109.362 133.313 109.354 133.318 109.345C133.48 109.058 133.374 108.694 133.085 108.535C132.796 108.376 132.432 108.484 132.27 108.771C132.108 109.059 132.204 109.426 132.49 109.591Z" fill="#E9EDF0"/>
<path d="M144.755 116.458C144.988 116.593 145.287 116.513 145.421 116.278C145.555 116.044 145.471 115.746 145.235 115.614L136.527 110.731C136.325 110.617 136.068 110.69 135.954 110.891C135.839 111.093 135.908 111.35 136.109 111.466L144.755 116.458Z" fill="#E9EDF0"/>
<path d="M135.052 104.709C135.351 104.848 135.707 104.719 135.843 104.419C135.847 104.41 135.852 104.401 135.856 104.392C135.992 104.091 135.855 103.738 135.553 103.605C135.251 103.472 134.898 103.611 134.762 103.911C134.625 104.212 134.753 104.569 135.052 104.709Z" fill="#49A942"/>
<path d="M147.869 110.479C148.114 110.593 148.405 110.487 148.517 110.242C148.63 109.997 148.52 109.707 148.274 109.596L139.174 105.491C138.962 105.395 138.713 105.49 138.616 105.701C138.52 105.912 138.611 106.162 138.821 106.26L147.869 110.479Z" fill="#49A942"/>
<path d="M137.183 99.6126C137.493 99.7254 137.836 99.5657 137.946 99.2545C137.949 99.2452 137.952 99.2359 137.955 99.2266C138.065 98.9154 137.898 98.5759 137.586 98.4694C137.273 98.3629 136.933 98.5323 136.824 98.8435C136.714 99.1546 136.873 99.4997 137.183 99.6126Z" fill="#49A942"/>
<path d="M150.452 104.244C150.706 104.337 150.986 104.206 151.077 103.952C151.168 103.697 151.033 103.418 150.778 103.329L141.355 100.033C141.136 99.9557 140.896 100.072 140.818 100.29C140.74 100.509 140.852 100.75 141.071 100.83L150.452 104.244Z" fill="#49A942"/>
<path d="M138.854 94.3562C139.173 94.4416 139.5 94.2526 139.583 93.9331C139.585 93.9235 139.588 93.9139 139.59 93.9044C139.672 93.5848 139.476 93.2611 139.156 93.1823C138.835 93.1035 138.511 93.3018 138.429 93.6214C138.347 93.9409 138.535 94.2708 138.854 94.3562Z" fill="#49A942"/>
<path d="M152.482 97.814C152.743 97.8839 153.011 97.7292 153.08 97.468C153.148 97.2068 152.99 96.9406 152.728 96.874L143.053 94.4115C142.828 94.3542 142.599 94.4903 142.541 94.7149C142.482 94.9396 142.615 95.1701 142.839 95.2302L152.482 97.814Z" fill="#49A942"/>
<path d="M140.066 88.9675C140.391 89.0248 140.701 88.8079 140.755 88.4825C140.757 88.4727 140.759 88.463 140.76 88.4532C140.814 88.1277 140.59 87.8224 140.264 87.7718C139.938 87.7211 139.633 87.947 139.579 88.2725C139.525 88.5979 139.741 88.9102 140.066 88.9675Z" fill="#49A942"/>
<path d="M153.942 91.2267C154.208 91.2735 154.462 91.096 154.507 90.8298C154.552 90.5637 154.372 90.3123 154.105 90.2688L144.252 88.6589C144.023 88.6214 143.807 88.7769 143.768 89.0058C143.729 89.2347 143.882 89.4527 144.111 89.4931L153.942 91.2267Z" fill="#49A942"/>
<path d="M140.802 83.5009C141.131 83.5296 141.421 83.2865 141.446 82.9576C141.447 82.9478 141.448 82.9379 141.448 82.9281C141.474 82.5991 141.224 82.3144 140.895 82.2924C140.566 82.2704 140.281 82.5219 140.256 82.8508C140.231 83.1797 140.473 83.4721 140.802 83.5009Z" fill="#49A942"/>
<path d="M154.819 84.5388C155.088 84.5624 155.325 84.3634 155.347 84.0943C155.369 83.8252 155.167 83.5906 154.897 83.5704L144.942 82.8254C144.71 82.808 144.509 82.9817 144.49 83.2131C144.471 83.4446 144.642 83.6485 144.873 83.6687L154.819 84.5388Z" fill="#49A942"/>
<path d="M114.237 26.089C114.426 25.8188 114.36 25.446 114.088 25.2595C114.08 25.2539 114.072 25.2484 114.064 25.2428C113.791 25.0564 113.42 25.1299 113.237 25.404C113.053 25.6781 113.129 26.0503 113.401 26.2368C113.673 26.4232 114.047 26.3593 114.237 26.089Z" fill="#49A942"/>
<path d="M122.144 14.4667C122.299 14.2456 122.245 13.9406 122.023 13.7871C121.801 13.6337 121.496 13.6914 121.344 13.9145L115.721 22.1637C115.591 22.3555 115.64 22.617 115.831 22.7489C116.022 22.8809 116.284 22.8348 116.417 22.6446L122.144 14.4667Z" fill="#49A942"/>
<path d="M109.587 23.1101C109.752 22.8244 109.654 22.4587 109.367 22.2967C109.358 22.2918 109.35 22.287 109.341 22.2821C109.054 22.1202 108.69 22.2258 108.531 22.5148C108.372 22.8038 108.48 23.1681 108.767 23.3301C109.055 23.4921 109.422 23.3958 109.587 23.1101Z" fill="#49A942"/>
<path d="M116.453 10.8433C116.588 10.6094 116.508 10.3103 116.273 10.1768C116.039 10.0433 115.74 10.1273 115.608 10.3628L110.726 19.0707C110.612 19.2732 110.684 19.5293 110.886 19.6441C111.088 19.759 111.345 19.6902 111.461 19.4891L116.453 10.8433Z" fill="#49A942"/>
<path d="M109.587 23.1101C109.752 22.8244 109.654 22.4587 109.367 22.2967C109.358 22.2918 109.35 22.287 109.341 22.2821C109.054 22.1202 108.69 22.2258 108.531 22.5148C108.372 22.8038 108.48 23.1681 108.767 23.3301C109.055 23.4921 109.422 23.3958 109.587 23.1101Z" fill="#49A942"/>
<path d="M116.453 10.8433C116.588 10.6094 116.508 10.3103 116.273 10.1768C116.039 10.0433 115.74 10.1273 115.608 10.3628L110.726 19.0707C110.612 19.2732 110.684 19.5293 110.886 19.6441C111.088 19.759 111.345 19.6902 111.461 19.4891L116.453 10.8433Z" fill="#49A942"/>
<path d="M104.701 20.5515C104.84 20.2525 104.711 19.8968 104.411 19.7603C104.402 19.7563 104.393 19.7522 104.384 19.7481C104.083 19.6118 103.73 19.7487 103.597 20.0505C103.464 20.3523 103.603 20.7058 103.903 20.8421C104.204 20.9785 104.561 20.8505 104.701 20.5515Z" fill="#49A942"/>
<path d="M110.475 7.7316C110.589 7.4869 110.483 7.1959 110.238 7.08334C109.993 6.97077 109.703 7.08043 109.592 7.32653L105.487 16.4269C105.391 16.6385 105.486 16.8874 105.697 16.9842C105.908 17.081 106.158 16.9901 106.256 16.7796L110.475 7.7316Z" fill="#49A942"/>
<path d="M99.6087 18.4205C99.7217 18.1105 99.5617 17.7674 99.2507 17.6577C99.2407 17.6544 99.2317 17.6511 99.2227 17.6479C98.9117 17.5383 98.5716 17.7054 98.4656 18.0177C98.3586 18.3299 98.5287 18.6699 98.8397 18.7796C99.1507 18.8892 99.4957 18.7306 99.6087 18.4205Z" fill="#49A942"/>
<path d="M104.243 5.14859C104.335 4.89488 104.205 4.61421 103.95 4.52346C103.696 4.43272 103.417 4.56719 103.328 4.82204L100.032 14.2455C99.9546 14.4647 100.071 14.7044 100.289 14.7825C100.508 14.8605 100.749 14.7481 100.829 14.5299L104.243 5.14859Z" fill="#49A942"/>
<path d="M94.3505 16.746C94.4365 16.4273 94.2475 16.0995 93.9275 16.0173C93.9185 16.0148 93.9085 16.0124 93.8995 16.0099C93.5795 15.9279 93.2555 16.124 93.1775 16.4443C93.0985 16.7647 93.2965 17.0886 93.6165 17.1707C93.9355 17.2528 94.2655 17.0647 94.3505 16.746Z" fill="#49A942"/>
<path d="M97.8105 3.11994C97.8805 2.85915 97.7255 2.59094 97.4645 2.5227C97.2035 2.45446 96.9375 2.61273 96.8705 2.87438L94.4075 12.5493C94.3505 12.7743 94.4865 13.003 94.7115 13.0617C94.9355 13.1204 95.1665 12.9874 95.2265 12.7631L97.8105 3.11994Z" fill="#49A942"/>
<path d="M88.9648 15.5369C89.0218 15.212 88.8048 14.9019 88.4798 14.8478C88.4698 14.8462 88.4598 14.8446 88.4498 14.843C88.1248 14.7891 87.8194 15.0127 87.7688 15.3387C87.7181 15.6647 87.944 15.9701 88.2698 16.024C88.5948 16.078 88.9068 15.8618 88.9648 15.5369Z" fill="#49A942"/>
<path d="M91.225 1.66158C91.272 1.39569 91.095 1.14198 90.829 1.09677C90.562 1.05156 90.311 1.23242 90.267 1.49888L88.658 11.3516C88.62 11.5808 88.776 11.7968 89.004 11.8356C89.233 11.8745 89.451 11.722 89.492 11.4933L91.225 1.66158Z" fill="#49A942"/>
<path d="M83.4989 14.7996C83.5277 14.4709 83.2846 14.1808 82.9556 14.1554C82.9458 14.1546 82.9359 14.1539 82.9261 14.1531C82.5971 14.1278 82.3124 14.3771 82.2904 14.7063C82.2684 15.0355 82.52 15.32 82.8489 15.3454C83.1779 15.3708 83.4702 15.1282 83.4989 14.7996Z" fill="#49A942"/>
<path d="M84.535 0.781642C84.5585 0.512679 84.3595 0.27541 84.0904 0.25357C83.8213 0.231729 83.5867 0.433809 83.5666 0.703046L82.8215 10.6586C82.8042 10.8901 82.9779 11.0917 83.2093 11.1105C83.4407 11.1293 83.6446 10.9583 83.6649 10.727L84.535 0.781642Z" fill="#49A942"/>
<path d="M77.9856 14.5445C77.9856 14.2146 77.7182 13.9469 77.3883 13.9502C77.3784 13.9503 77.3685 13.9504 77.3587 13.9505C77.0288 13.9539 76.7669 14.2271 76.7736 14.557C76.7804 14.8868 77.0558 15.1484 77.3857 15.145C77.7156 15.1416 77.9856 14.8745 77.9856 14.5445Z" fill="#49A942"/>
<path d="M77.7998 0.48733C77.7998 0.21734 77.5809 -0.0016866 77.3109 9.78797e-06C77.0409 0.00170618 76.8248 0.223465 76.8282 0.493433L76.9537 10.476C76.9566 10.7082 77.1472 10.8939 77.3793 10.8925C77.6115 10.891 77.7998 10.7029 77.7998 10.4707V0.48733Z" fill="#49A942"/>
<path d="M72.4716 14.7675C72.4428 14.4388 72.153 14.1954 71.8247 14.2274C71.8149 14.2284 71.805 14.2293 71.7952 14.2303C71.4669 14.2625 71.2297 14.5575 71.2652 14.8855C71.3007 15.2135 71.5979 15.45 71.9263 15.4179C72.2546 15.3858 72.5003 15.0961 72.4716 14.7675Z" fill="#49A942"/>
<path d="M71.0596 0.780951C71.036 0.511988 70.7989 0.312871 70.5301 0.338092C70.2613 0.363312 70.0653 0.603062 70.0923 0.871707L71.0873 10.8054C71.1104 11.0364 71.3164 11.2048 71.5476 11.1831C71.7788 11.1614 71.9499 10.9576 71.9297 10.7263L71.0596 0.780951Z" fill="#49A942"/>
<path d="M66.9959 15.4694C66.9386 15.1445 66.6287 14.9272 66.3044 14.9877C66.2947 14.9895 66.285 14.9914 66.2753 14.9932C65.951 15.0539 65.7405 15.3684 65.8044 15.6921C65.8683 16.0157 66.185 16.2255 66.5093 16.1648C66.8336 16.1042 67.0532 15.7943 66.9959 15.4694Z" fill="#49A942"/>
<path d="M64.3745 1.65888C64.3276 1.39299 64.074 1.2153 63.8085 1.26385C63.5429 1.31241 63.3686 1.56832 63.4188 1.8336L65.2758 11.6427C65.319 11.8709 65.5389 12.0207 65.7673 11.9789C65.9957 11.9371 66.1484 11.7192 66.1081 11.4906L64.3745 1.65888Z" fill="#49A942"/>
<path d="M61.6093 16.6493C61.5239 16.3307 61.1963 16.1412 60.8785 16.2298C60.869 16.2325 60.8595 16.2351 60.85 16.2378C60.5322 16.3265 60.3499 16.6582 60.4418 16.975C60.5337 17.2919 60.8675 17.4732 61.1853 17.3846C61.503 17.2959 61.6947 16.968 61.6093 16.6493Z" fill="#49A942"/>
<path d="M57.7913 3.12043C57.7214 2.85964 57.4533 2.70473 57.1929 2.77624C56.9326 2.84776 56.7812 3.11789 56.8544 3.37778L59.5593 12.9877C59.6222 13.2112 59.8543 13.3413 60.0782 13.2798C60.3021 13.2183 60.4352 12.9879 60.3751 12.7636L57.7913 3.12043Z" fill="#49A942"/>
<path d="M56.3393 18.2894C56.2264 17.9794 55.8835 17.8193 55.5747 17.9352C55.5654 17.9387 55.5562 17.9421 55.5469 17.9456C55.2381 18.0617 55.0854 18.408 55.2046 18.7156C55.3238 19.0233 55.6721 19.1748 55.9809 19.0588C56.2897 18.9428 56.4521 18.5994 56.3393 18.2894Z" fill="#49A942"/>
<path d="M51.3528 5.14635C51.2604 4.89265 50.9799 4.76169 50.7267 4.85562C50.4736 4.94955 50.3464 5.23185 50.4419 5.48438L53.974 14.822C54.0562 15.0392 54.2988 15.1485 54.5165 15.0677C54.7342 14.987 54.8467 14.7458 54.7673 14.5276L51.3528 5.14635Z" fill="#49A942"/>
<path d="M51.2327 20.389C51.0933 20.09 50.7377 19.9604 50.4401 20.1028C50.4312 20.1071 50.4223 20.1113 50.4134 20.1156C50.1159 20.2581 49.9939 20.6164 50.1395 20.9125C50.285 21.2086 50.6452 21.3292 50.9427 21.1867C51.2403 21.0443 51.3721 20.688 51.2327 20.389Z" fill="#49A942"/>
<path d="M45.1257 7.72819C45.0116 7.4835 44.7207 7.37749 44.4767 7.49313C44.2328 7.60877 44.1306 7.90108 44.2478 8.14432L48.5803 17.1386C48.6811 17.3478 48.9323 17.4355 49.1421 17.3361C49.3519 17.2366 49.443 16.9866 49.3449 16.7762L45.1257 7.72819Z" fill="#49A942"/>
<path d="M46.3329 22.928C46.1679 22.6423 45.8024 22.5441 45.5184 22.7119C45.5099 22.717 45.5014 22.722 45.4929 22.727C45.2089 22.895 45.1187 23.2625 45.2895 23.5448C45.4602 23.8271 45.8296 23.9158 46.1136 23.748C46.3976 23.5801 46.4979 23.2137 46.3329 22.928Z" fill="#49A942"/>
<path d="M39.1413 10.8457C39.0063 10.6119 38.7073 10.5316 38.4743 10.6681C38.2413 10.8045 38.1651 11.1046 38.303 11.3367L43.4029 19.9192C43.5215 20.1188 43.7794 20.1843 43.9798 20.067C44.1801 19.9496 44.2491 19.6926 44.133 19.4915L39.1413 10.8457Z" fill="#49A942"/>
<path d="M46.3329 22.928C46.1679 22.6423 45.8024 22.5441 45.5184 22.7119C45.5099 22.717 45.5014 22.722 45.4929 22.727C45.2089 22.895 45.1187 23.2625 45.2895 23.5448C45.4602 23.8271 45.8296 23.9158 46.1136 23.748C46.3976 23.5801 46.4979 23.2137 46.3329 22.928Z" fill="#49A942"/>
<path d="M39.1413 10.8457C39.0063 10.6119 38.7073 10.5316 38.4743 10.6681C38.2413 10.8045 38.1651 11.1046 38.303 11.3367L43.4029 19.9192C43.5215 20.1188 43.7794 20.1843 43.9798 20.067C44.1801 19.9496 44.2491 19.6926 44.133 19.4915L39.1413 10.8457Z" fill="#49A942"/>
<path d="M41.6672 25.8784C41.478 25.6081 41.1053 25.5422 40.837 25.7341C40.8289 25.7399 40.8209 25.7456 40.8129 25.7514C40.5446 25.9434 40.4868 26.3174 40.6815 26.5838C40.8762 26.8501 41.2519 26.9063 41.5202 26.7143C41.7885 26.5224 41.8564 26.1486 41.6672 25.8784Z" fill="#49A942"/>
<path d="M33.4547 14.469C33.2998 14.2479 32.9949 14.194 32.7747 14.3502C32.5545 14.5065 32.5047 14.8121 32.6623 15.0313L38.4909 23.1366C38.6264 23.3251 38.8891 23.3679 39.0784 23.2336C39.2678 23.0992 39.3141 22.8371 39.1809 22.6469L33.4547 14.469Z" fill="#49A942"/>
<path d="M37.279 29.2258C37.067 28.9731 36.69 28.9399 36.4394 29.1545C36.4319 29.1609 36.4244 29.1673 36.4169 29.1737C36.1664 29.3884 36.1413 29.7661 36.3585 30.0144C36.5757 30.2627 36.9549 30.286 37.2054 30.0714C37.4559 29.8567 37.4911 29.4785 37.279 29.2258Z" fill="#49A942"/>
<path d="M28.1047 18.5758C27.9312 18.369 27.6227 18.3419 27.417 18.5167C27.2113 18.6915 27.1883 19.0003 27.3644 19.205L33.8772 26.7714C34.0286 26.9474 34.294 26.9672 34.4709 26.8168C34.6479 26.6664 34.6712 26.4014 34.5219 26.2235L28.1047 18.5758Z" fill="#49A942"/>
<path d="M33.2036 32.9394C32.9703 32.7061 32.5919 32.7059 32.3609 32.9415C32.354 32.9485 32.3471 32.9556 32.3402 32.9627C32.1094 33.1984 32.1173 33.5767 32.3554 33.8052C32.5934 34.0337 32.9731 34.0238 33.204 33.7882C33.4349 33.5525 33.4369 33.1727 33.2036 32.9394Z" fill="#49A942"/>
<path d="M23.1309 23.1305C22.94 22.9395 22.6304 22.9394 22.4407 23.1315C22.2509 23.3236 22.2549 23.6333 22.4482 23.8218L29.5957 30.7918C29.7619 30.9539 30.028 30.9505 30.1912 30.7853C30.3543 30.62 30.3544 30.3539 30.1902 30.1898L23.1309 23.1305Z" fill="#49A942"/>
<path d="M29.4608 36.9971C29.2081 36.785 28.8311 36.8178 28.6216 37.0726C28.6153 37.0803 28.609 37.0879 28.6027 37.0955C28.3933 37.3505 28.4343 37.7267 28.6913 37.9335C28.9483 38.1404 29.3257 38.0975 29.5352 37.8426C29.7446 37.5877 29.7136 37.2092 29.4608 36.9971Z" fill="#49A942"/>
<path d="M18.5725 28.1055C18.3656 27.932 18.0572 27.9588 17.8849 28.1668C17.7127 28.3747 17.7436 28.6828 17.9526 28.8537L25.6804 35.1743C25.8601 35.3213 26.1249 35.2947 26.273 35.1159C26.4211 34.9371 26.398 34.672 26.2202 34.5227L18.5725 28.1055Z" fill="#49A942"/>
<path d="M26.0862 41.3648C25.8159 41.1756 25.4432 41.2411 25.2566 41.5132C25.2511 41.5213 25.2455 41.5296 25.2399 41.5377C25.0535 41.81 25.1271 42.1811 25.4011 42.3648C25.6752 42.5484 26.0474 42.4728 26.2339 42.2006C26.4203 41.9284 26.3564 41.554 26.0862 41.3648Z" fill="#49A942"/>
<path d="M14.4686 33.4556C14.2475 33.3008 13.9425 33.3544 13.7891 33.5765C13.6356 33.7987 13.6933 34.1029 13.9164 34.255L22.1656 39.878C22.3575 40.0088 22.6189 39.9592 22.7509 39.7681C22.8829 39.5771 22.8367 39.315 22.6465 39.1818L14.4686 33.4556Z" fill="#49A942"/>
<path d="M23.111 46.0137C22.8253 45.8487 22.4597 45.9465 22.2976 46.2338C22.2928 46.2424 22.2879 46.251 22.2831 46.2596C22.1211 46.5471 22.2268 46.9105 22.5158 47.0695C22.8048 47.2286 23.1691 47.1208 23.3311 46.8335C23.4931 46.5461 23.3968 46.1786 23.111 46.0137Z" fill="#49A942"/>
<path d="M10.8433 39.1457C10.6095 39.0107 10.3104 39.0907 10.1769 39.3254C10.0433 39.56 10.1273 39.8581 10.3628 39.9901L19.0707 44.8728C19.2733 44.9863 19.5294 44.9141 19.6442 44.7123C19.759 44.5105 19.6903 44.2534 19.4892 44.1374L10.8433 39.1457Z" fill="#49A942"/>
<path d="M20.5475 50.895C20.2485 50.7556 19.8928 50.8848 19.7564 51.1852C19.7523 51.1942 19.7482 51.2032 19.7442 51.2122C19.6079 51.5126 19.7448 51.8655 20.0466 51.9987C20.3484 52.132 20.7018 51.9929 20.8382 51.6925C20.9745 51.3921 20.8465 51.0344 20.5475 50.895Z" fill="#49A942"/>
<path d="M7.73157 45.125C7.48687 45.0109 7.19586 45.1167 7.08336 45.3621C6.97076 45.6075 7.08037 45.897 7.32647 46.0081L16.4269 50.1132C16.6385 50.2087 16.8874 50.1144 16.9842 49.9034C17.081 49.6923 16.9901 49.4422 16.7796 49.3441L7.73157 45.125Z" fill="#49A942"/>
<path d="M18.4157 55.9864C18.1057 55.8736 17.7626 56.0333 17.6528 56.3445C17.6496 56.3538 17.6463 56.3631 17.643 56.3724C17.5334 56.6836 17.7006 57.0232 18.0128 57.1296C18.3251 57.2361 18.6651 57.0667 18.7747 56.7555C18.8844 56.4444 18.7257 56.0993 18.4157 55.9864Z" fill="#49A942"/>
<path d="M5.14571 51.3558C4.89201 51.2634 4.61131 51.3942 4.52051 51.6485C4.42981 51.9028 4.56431 52.1817 4.81911 52.2708L14.2426 55.5672C14.4618 55.6439 14.7015 55.5283 14.7795 55.3096C14.8575 55.0909 14.7452 54.8497 14.527 54.7703L5.14571 51.3558Z" fill="#49A942"/>
<path d="M16.747 61.2481C16.4283 61.1627 16.1005 61.3517 16.0183 61.6712C16.0158 61.6808 16.0133 61.6902 16.0109 61.6998C15.9289 62.0194 16.1249 62.3432 16.4453 62.422C16.7656 62.5008 17.0896 62.3024 17.1717 61.9828C17.2538 61.6633 17.0657 61.3334 16.747 61.2481Z" fill="#49A942"/>
<path d="M3.117 57.7912C2.8562 57.7213 2.588 57.8761 2.5198 58.1373C2.4515 58.3985 2.6098 58.6647 2.8714 58.7312L12.5464 61.1938C12.7714 61.251 13.0001 61.115 13.0588 60.8904C13.1174 60.6657 12.9845 60.4352 12.7602 60.3751L3.117 57.7912Z" fill="#49A942"/>
<path d="M15.5379 66.6312C15.213 66.5739 14.9028 66.7909 14.8488 67.1163C14.8472 67.1261 14.8456 67.1358 14.8439 67.1456C14.7901 67.4711 15.0136 67.7764 15.3396 67.827C15.6656 67.8777 15.971 67.6517 16.025 67.3263C16.079 67.0008 15.8628 66.6885 15.5379 66.6312Z" fill="#49A942"/>
<path d="M1.66157 64.3737C1.39567 64.3269 1.14197 64.5044 1.09677 64.7705C1.05157 65.0367 1.23237 65.288 1.49887 65.3316L11.3516 66.9415C11.5808 66.9789 11.7968 66.8235 11.8356 66.5946C11.8745 66.3657 11.722 66.1476 11.4933 66.1073L1.66157 64.3737Z" fill="#49A942"/>
<path d="M14.7967 72.1019C14.468 72.0732 14.178 72.3163 14.1525 72.6452C14.1517 72.6551 14.151 72.6649 14.1502 72.6747C14.1249 73.0037 14.3742 73.2884 14.7034 73.3104C15.0326 73.3324 15.3172 73.0808 15.3425 72.7519C15.3679 72.423 15.1253 72.1307 14.7967 72.1019Z" fill="#49A942"/>
<path d="M0.775804 71.0644C0.506804 71.0409 0.269604 71.2398 0.247704 71.5089C0.225904 71.778 0.428004 72.0126 0.697204 72.0328L10.6527 72.7778C10.8843 72.7952 11.0859 72.6215 11.1047 72.3901C11.1235 72.1586 10.9525 71.9547 10.7212 71.9345L0.775804 71.0644Z" fill="#49A942"/>
<path d="M14.5397 77.6172C14.2098 77.6172 13.942 77.8847 13.9453 78.2146C13.9454 78.2245 13.9455 78.2344 13.9456 78.2442C13.9491 78.5741 14.2223 78.836 14.5521 78.8293C14.882 78.8225 15.1435 78.5471 15.1401 78.2172C15.1368 77.8873 14.8696 77.6172 14.5397 77.6172Z" fill="#49A942"/>
<path d="M0.48731 77.8037C0.21741 77.8037 -0.00169017 78.0226 9.8263e-06 78.2926C0.00170983 78.5625 0.22351 78.7786 0.49341 78.7753L10.476 78.6498C10.7082 78.6469 10.8939 78.4563 10.8925 78.2241C10.891 77.9919 10.7029 77.8037 10.4707 77.8037H0.48731Z" fill="#49A942"/>
<path d="M14.7967 72.1019C14.468 72.0731 14.178 72.3162 14.1525 72.6451C14.1517 72.655 14.151 72.6648 14.1502 72.6747C14.1249 73.0036 14.3742 73.2883 14.7034 73.3103C15.0326 73.3324 15.3172 73.0808 15.3425 72.7518C15.3679 72.4229 15.1253 72.1306 14.7967 72.1019Z" fill="#49A942"/>
<path d="M0.775804 71.0634C0.506804 71.0399 0.269604 71.2388 0.247704 71.5079C0.225904 71.777 0.428004 72.0117 0.697204 72.0318L10.6527 72.7769C10.8843 72.7942 11.0859 72.6205 11.1047 72.3891C11.1235 72.1577 10.9525 71.9538 10.7212 71.9335L0.775804 71.0634Z" fill="#49A942"/>
<path d="M14.5397 77.6162C14.2098 77.6162 13.942 77.8836 13.9453 78.2135C13.9454 78.2234 13.9455 78.2333 13.9456 78.2432C13.9491 78.573 14.2223 78.835 14.5521 78.8282C14.882 78.8214 15.1435 78.546 15.1401 78.2161C15.1368 77.8862 14.8696 77.6162 14.5397 77.6162Z" fill="#49A942"/>
<path d="M0.48731 77.8027C0.21741 77.8027 -0.00169017 78.0216 9.8263e-06 78.2916C0.00170983 78.5616 0.22351 78.7777 0.49341 78.7743L10.476 78.6488C10.7082 78.6459 10.8939 78.4553 10.8925 78.2231C10.891 77.991 10.7029 77.8027 10.4707 77.8027H0.48731Z" fill="#49A942"/>
<path d="M14.5397 77.6162C14.2098 77.6162 13.942 77.8836 13.9453 78.2135C13.9454 78.2234 13.9455 78.2333 13.9456 78.2432C13.9491 78.573 14.2223 78.835 14.5521 78.8282C14.882 78.8214 15.1435 78.546 15.1401 78.2161C15.1368 77.8862 14.8696 77.6162 14.5397 77.6162Z" fill="#49A942"/>
<path d="M0.48731 77.8027C0.21741 77.8027 -0.00169017 78.0216 9.8263e-06 78.2916C0.00170983 78.5616 0.22351 78.7777 0.49341 78.7743L10.476 78.6488C10.7082 78.6459 10.8939 78.4553 10.8925 78.2231C10.891 77.991 10.7029 77.8027 10.4707 77.8027H0.48731Z" fill="#49A942"/>
<path d="M14.7656 83.1292C14.4369 83.1579 14.1935 83.4478 14.2255 83.7762C14.2265 83.786 14.2274 83.7957 14.2284 83.8055C14.2606 84.1339 14.5556 84.371 14.8836 84.3355C15.2116 84.3 15.4481 84.0029 15.416 83.6746C15.3839 83.3462 15.0942 83.1004 14.7656 83.1292Z" fill="#49A942"/>
<path d="M0.780989 84.5407C0.511989 84.5643 0.312889 84.8014 0.338089 85.0702C0.363389 85.339 0.603089 85.535 0.871789 85.5081L10.8054 84.513C11.0365 84.4899 11.2049 84.2839 11.1832 84.0527C11.1615 83.8215 10.9577 83.6504 10.7264 83.6706L0.780989 84.5407Z" fill="#49A942"/>
<path d="M15.4723 88.6019C15.1474 88.6592 14.9301 88.9691 14.9906 89.2934C14.9925 89.3031 14.9943 89.3128 14.9961 89.3226C15.0568 89.6468 15.3713 89.8573 15.695 89.7934C16.0186 89.7295 16.2284 89.4128 16.1677 89.0885C16.1071 88.7642 15.7972 88.5446 15.4723 88.6019Z" fill="#49A942"/>
<path d="M1.65691 91.2283C1.39101 91.2752 1.21331 91.5288 1.26191 91.7944C1.31041 92.06 1.56631 92.2343 1.83161 92.1841L11.6408 90.3271C11.8689 90.2839 12.0187 90.0639 11.977 89.8355C11.9352 89.6071 11.7173 89.4544 11.4886 89.4947L1.65691 91.2283Z" fill="#49A942"/>
<path d="M16.6444 93.9949C16.3257 94.0803 16.1363 94.4079 16.2249 94.7257C16.2275 94.7353 16.2302 94.7448 16.2328 94.7543C16.3216 95.072 16.6532 95.2543 16.9701 95.1624C17.2869 95.0705 17.4683 94.7368 17.3796 94.419C17.291 94.1012 16.9631 93.9095 16.6444 93.9949Z" fill="#49A942"/>
<path d="M3.11555 97.8122C2.85475 97.8821 2.69985 98.1502 2.77135 98.4105C2.84285 98.6709 3.11295 98.8222 3.37285 98.749L12.9828 96.0442C13.2063 95.9813 13.3364 95.7491 13.2749 95.5252C13.2134 95.3013 12.9829 95.1682 12.7587 95.2283L3.11555 97.8122Z" fill="#49A942"/>
<path d="M18.2904 99.2624C17.9804 99.3752 17.8203 99.7182 17.9362 100.027C17.9397 100.036 17.9432 100.046 17.9466 100.055C18.0627 100.364 18.409 100.516 18.7167 100.397C19.0243 100.278 19.1759 99.9296 19.0599 99.6208C18.9438 99.3119 18.6005 99.1496 18.2904 99.2624Z" fill="#49A942"/>
<path d="M5.14924 104.244C4.89554 104.337 4.76464 104.617 4.85854 104.87C4.95244 105.124 5.23475 105.251 5.48735 105.155L14.8249 101.623C15.0421 101.541 15.1514 101.298 15.0706 101.081C14.9899 100.863 14.7487 100.75 14.5305 100.83L5.14924 104.244Z" fill="#49A942"/>
<path d="M20.3832 104.368C20.0842 104.508 19.9545 104.863 20.0969 105.161C20.1012 105.17 20.1055 105.178 20.1097 105.187C20.2523 105.485 20.6106 105.607 20.9067 105.461C21.2027 105.316 21.3234 104.956 21.1809 104.658C21.0384 104.36 20.6822 104.229 20.3832 104.368Z" fill="#49A942"/>
<path d="M7.72723 110.478C7.48253 110.592 7.37653 110.883 7.49213 111.127C7.60783 111.371 7.90013 111.473 8.14333 111.356L17.1376 107.023C17.3468 106.922 17.4346 106.671 17.3351 106.461C17.2357 106.252 16.9856 106.16 16.7752 106.259L7.72723 110.478Z" fill="#49A942"/>
<path d="M22.9192 109.268C22.6335 109.433 22.5354 109.799 22.7032 110.083C22.7082 110.091 22.7132 110.1 22.7182 110.108C22.8862 110.392 23.2537 110.482 23.536 110.311C23.8183 110.141 23.9071 109.771 23.7392 109.487C23.5713 109.203 23.2049 109.103 22.9192 109.268Z" fill="#49A942"/>
<path d="M10.8379 116.459C10.6041 116.594 10.5238 116.893 10.6603 117.126C10.7967 117.359 11.0968 117.435 11.3289 117.297L19.9114 112.197C20.111 112.079 20.1766 111.821 20.0592 111.62C19.9418 111.42 19.6848 111.351 19.4837 111.467L10.8379 116.459Z" fill="#49A942"/>
<path d="M25.8754 113.93C25.6052 114.119 25.5392 114.491 25.7312 114.76C25.7369 114.768 25.7427 114.776 25.7484 114.784C25.9405 115.052 26.3145 115.11 26.5808 114.915C26.8471 114.721 26.9034 114.345 26.7114 114.077C26.5194 113.808 26.1457 113.74 25.8754 113.93Z" fill="#49A942"/>
<path d="M14.4661 122.146C14.2449 122.301 14.191 122.606 14.3473 122.826C14.5035 123.046 14.8091 123.096 15.0283 122.938L23.1336 117.11C23.3221 116.974 23.365 116.712 23.2306 116.522C23.0962 116.333 22.8342 116.286 22.644 116.42L14.4661 122.146Z" fill="#49A942"/>
<path d="M29.217 118.324C28.9643 118.536 28.9311 118.913 29.1457 119.163C29.1521 119.171 29.1585 119.178 29.165 119.186C29.3797 119.436 29.7573 119.461 30.0056 119.244C30.254 119.027 30.2773 118.648 30.0626 118.397C29.848 118.147 29.4698 118.112 29.217 118.324Z" fill="#49A942"/>
<path d="M18.569 127.5C18.3622 127.673 18.3351 127.982 18.5099 128.187C18.6848 128.393 18.9935 128.416 19.1982 128.24L26.7646 121.727C26.9406 121.576 26.9604 121.31 26.81 121.133C26.6597 120.957 26.3946 120.933 26.2167 121.082L18.569 127.5Z" fill="#49A942"/>
<path d="M32.9365 122.4C32.7032 122.634 32.703 123.012 32.9386 123.243C32.9456 123.25 32.9527 123.257 32.9598 123.264C33.1955 123.495 33.5738 123.487 33.8023 123.249C34.0308 123.011 34.0209 122.631 33.7853 122.4C33.5496 122.169 33.1698 122.167 32.9365 122.4Z" fill="#49A942"/>
<path d="M23.1314 132.473C22.9405 132.664 22.9404 132.974 23.1325 133.164C23.3246 133.353 23.6342 133.349 23.8227 133.156L30.7927 126.008C30.9548 125.842 30.9514 125.576 30.7862 125.413C30.621 125.25 30.3549 125.25 30.1907 125.414L23.1314 132.473Z" fill="#49A942"/>
<path d="M36.9952 126.141C36.7831 126.394 36.8159 126.771 37.0707 126.98C37.0784 126.986 37.086 126.993 37.0936 126.999C37.3486 127.208 37.7248 127.167 37.9317 126.91C38.1385 126.653 38.0956 126.276 37.8407 126.066C37.5858 125.857 37.2073 125.888 36.9952 126.141Z" fill="#49A942"/>
<path d="M28.1026 137.03C27.9291 137.237 27.956 137.545 28.1639 137.717C28.3718 137.89 28.6799 137.859 28.8508 137.65L35.1714 129.922C35.3184 129.742 35.2918 129.477 35.113 129.329C34.9342 129.181 34.6691 129.204 34.5198 129.382L28.1026 137.03Z" fill="#49A942"/>
<path d="M41.3619 129.513C41.1727 129.784 41.2382 130.156 41.5103 130.343C41.5185 130.349 41.5266 130.354 41.5348 130.36C41.807 130.546 42.1782 130.472 42.3619 130.198C42.5455 129.924 42.4699 129.552 42.1977 129.366C41.9256 129.179 41.5511 129.243 41.3619 129.513Z" fill="#49A942"/>
<path d="M33.4556 141.136C33.3007 141.357 33.3544 141.662 33.5765 141.816C33.7986 141.969 34.1029 141.911 34.2549 141.688L39.8779 133.439C40.0087 133.247 39.9591 132.986 39.7681 132.854C39.5771 132.722 39.315 132.768 39.1818 132.958L33.4556 141.136Z" fill="#49A942"/>
<path d="M46.0059 132.492C45.841 132.778 45.9387 133.143 46.2261 133.305C46.2347 133.31 46.2433 133.315 46.2519 133.32C46.5393 133.482 46.9027 133.376 47.0618 133.087C47.2209 132.798 47.1131 132.434 46.8257 132.272C46.5383 132.11 46.1709 132.206 46.0059 132.492Z" fill="#49A942"/>
<path d="M39.1398 144.76C39.0048 144.994 39.0848 145.293 39.3195 145.426C39.5541 145.56 39.8522 145.476 39.9842 145.24L44.8668 136.532C44.9804 136.33 44.9082 136.074 44.7064 135.959C44.5046 135.844 44.2475 135.913 44.1314 136.114L39.1398 144.76Z" fill="#49A942"/>
<path d="M46.0059 132.493C45.841 132.779 45.9387 133.144 46.2261 133.306C46.2347 133.311 46.2433 133.316 46.2519 133.321C46.5393 133.483 46.9027 133.377 47.0618 133.088C47.2209 132.799 47.1131 132.435 46.8257 132.273C46.5383 132.111 46.1709 132.207 46.0059 132.493Z" fill="#49A942"/>
<path d="M39.1398 144.76C39.0048 144.994 39.0848 145.293 39.3195 145.426C39.5541 145.56 39.8522 145.476 39.9842 145.24L44.8668 136.532C44.9804 136.33 44.9082 136.074 44.7064 135.959C44.5046 135.844 44.2475 135.913 44.1314 136.114L39.1398 144.76Z" fill="#49A942"/>
<path d="M50.892 135.051C50.7526 135.35 50.8818 135.706 51.1822 135.843C51.1912 135.847 51.2002 135.851 51.2092 135.855C51.5096 135.991 51.8624 135.854 51.9957 135.552C52.129 135.251 51.9899 134.897 51.6895 134.761C51.389 134.624 51.0314 134.752 50.892 135.051Z" fill="#49A942"/>
<path d="M45.124 147.871C45.0099 148.116 45.1157 148.407 45.3611 148.519C45.6065 148.632 45.8961 148.522 46.0071 148.276L50.1123 139.176C50.2077 138.964 50.1135 138.715 49.9025 138.619C49.6914 138.522 49.4413 138.613 49.3432 138.823L45.124 147.871Z" fill="#49A942"/>
<path d="M55.9893 137.183C55.8764 137.493 56.0362 137.836 56.3473 137.946C56.3566 137.949 56.3659 137.952 56.3752 137.956C56.6864 138.065 57.026 137.898 57.1324 137.586C57.2389 137.273 57.0695 136.933 56.7584 136.824C56.4472 136.714 56.1021 136.873 55.9893 137.183Z" fill="#49A942"/>
<path d="M51.3577 150.455C51.2654 150.709 51.3961 150.989 51.6504 151.08C51.9047 151.171 52.1836 151.036 52.2728 150.782L55.5691 141.358C55.6458 141.139 55.5302 140.899 55.3115 140.821C55.0929 140.743 54.8516 140.856 54.7722 141.074L51.3577 150.455Z" fill="#49A942"/>
<path d="M61.2471 138.857C61.1617 139.176 61.3508 139.504 61.6703 139.586C61.6798 139.588 61.6894 139.591 61.699 139.593C62.0185 139.675 62.3422 139.479 62.421 139.159C62.4999 138.838 62.3015 138.515 61.982 138.432C61.6625 138.35 61.3325 138.538 61.2471 138.857Z" fill="#49A942"/>
<path d="M57.7863 152.483C57.7164 152.744 57.8711 153.012 58.1324 153.08C58.3936 153.148 58.6597 152.99 58.7263 152.728L61.1888 143.053C61.2461 142.828 61.1101 142.6 60.8854 142.541C60.6608 142.482 60.4303 142.615 60.3702 142.84L57.7863 152.483Z" fill="#49A942"/>
<path d="M66.6303 140.066C66.573 140.391 66.7899 140.701 67.1154 140.755C67.1251 140.757 67.1349 140.759 67.1446 140.76C67.4701 140.814 67.7755 140.591 67.8261 140.265C67.8767 139.939 67.6509 139.633 67.3254 139.579C66.9999 139.525 66.6876 139.742 66.6303 140.066Z" fill="#49A942"/>
<path d="M64.3747 153.943C64.3278 154.208 64.5053 154.462 64.7715 154.507C65.0377 154.553 65.289 154.372 65.3326 154.105L66.9425 144.253C66.9799 144.023 66.8245 143.807 66.5956 143.769C66.3667 143.73 66.1486 143.882 66.1083 144.111L64.3747 153.943Z" fill="#49A942"/>
<path d="M72.1039 140.803C72.0751 141.132 72.3182 141.422 72.6471 141.447C72.657 141.448 72.6668 141.449 72.6767 141.45C73.0056 141.475 73.2903 141.226 73.3124 140.896C73.3344 140.567 73.0828 140.283 72.7538 140.257C72.4249 140.232 72.1326 140.474 72.1039 140.803Z" fill="#49A942"/>
<path d="M71.0644 154.822C71.0409 155.091 71.2398 155.328 71.5089 155.35C71.778 155.372 72.0126 155.17 72.0328 154.9L72.7778 144.945C72.7952 144.713 72.6215 144.512 72.3901 144.493C72.1586 144.474 71.9547 144.645 71.9345 144.876L71.0644 154.822Z" fill="#49A942"/>
<path d="M77.6172 141.058C77.6172 141.388 77.8847 141.656 78.2146 141.653C78.2245 141.653 78.2343 141.653 78.2442 141.653C78.5741 141.649 78.836 141.376 78.8292 141.046C78.8225 140.716 78.547 140.455 78.2171 140.458C77.8872 140.461 77.6172 140.729 77.6172 141.058Z" fill="#49A942"/>
<path d="M77.8008 155.116C77.8008 155.386 78.0197 155.605 78.2897 155.603C78.5596 155.602 78.7757 155.38 78.7723 155.11L78.6469 145.127C78.644 144.895 78.4534 144.709 78.2212 144.711C77.989 144.712 77.8008 144.901 77.8008 145.133V155.116Z" fill="#49A942"/>
<path d="M83.1273 140.835C83.156 141.163 83.4458 141.407 83.7742 141.375C83.784 141.374 83.7938 141.373 83.8037 141.372C84.132 141.34 84.3691 141.045 84.3336 140.717C84.2981 140.389 84.0009 140.152 83.6726 140.184C83.3443 140.216 83.0985 140.506 83.1273 140.835Z" fill="#E9EDF0"/>
<path d="M84.5397 154.821C84.5632 155.09 84.8003 155.289 85.0692 155.264C85.338 155.239 85.5339 154.999 85.507 154.731L84.512 144.797C84.4889 144.566 84.2828 144.397 84.0516 144.419C83.8205 144.441 83.6493 144.645 83.6696 144.876L84.5397 154.821Z" fill="#E9EDF0"/>
<path d="M88.603 140.13C88.66 140.455 88.97 140.672 89.294 140.612C89.304 140.61 89.314 140.608 89.323 140.606C89.648 140.545 89.858 140.231 89.794 139.907C89.73 139.584 89.414 139.374 89.089 139.434C88.765 139.495 88.545 139.805 88.603 140.13Z" fill="#E9EDF0"/>
<path d="M91.2247 153.94C91.2717 154.206 91.5247 154.384 91.7907 154.335C92.0557 154.287 92.2307 154.031 92.1797 153.765L90.3227 143.956C90.2797 143.728 90.0597 143.578 89.8317 143.62C89.6037 143.662 89.4507 143.88 89.4907 144.108L91.2247 153.94Z" fill="#E9EDF0"/>
<path d="M93.9929 138.954C94.0789 139.273 94.4059 139.462 94.7239 139.374C94.7329 139.371 94.7429 139.368 94.7519 139.366C95.0699 139.277 95.2529 138.945 95.1609 138.629C95.0689 138.312 94.7349 138.13 94.4169 138.219C94.0989 138.308 93.9079 138.636 93.9929 138.954Z" fill="#E9EDF0"/>
<path d="M97.8093 152.484C97.8793 152.744 98.1473 152.899 98.4073 152.828C98.6683 152.756 98.8193 152.486 98.7463 152.226L96.0413 142.616C95.9783 142.393 95.7463 142.263 95.5223 142.324C95.2983 142.386 95.1653 142.616 95.2253 142.84L97.8093 152.484Z" fill="#E9EDF0"/>
<path d="M99.2582 137.309C99.3712 137.619 99.7142 137.779 100.023 137.663C100.032 137.66 100.042 137.656 100.051 137.653C100.36 137.537 100.512 137.19 100.393 136.883C100.274 136.575 99.9262 136.423 99.6172 136.54C99.3082 136.656 99.1462 136.999 99.2582 137.309Z" fill="#E9EDF0"/>
<path d="M104.244 150.453C104.337 150.706 104.617 150.837 104.87 150.743C105.123 150.649 105.251 150.367 105.155 150.115L101.623 140.777C101.541 140.56 101.298 140.451 101.08 140.531C100.863 140.612 100.75 140.853 100.83 141.071L104.244 150.453Z" fill="#E9EDF0"/>
<path d="M104.365 135.214C104.504 135.513 104.86 135.642 105.157 135.5C105.166 135.496 105.175 135.491 105.184 135.487C105.482 135.345 105.604 134.986 105.458 134.69C105.313 134.394 104.952 134.274 104.655 134.416C104.357 134.558 104.225 134.915 104.365 135.214Z" fill="#E9EDF0"/>
<path d="M110.474 147.875C110.588 148.12 110.879 148.226 111.123 148.11C111.367 147.994 111.469 147.702 111.352 147.459L107.019 138.465C106.918 138.255 106.667 138.168 106.457 138.267C106.247 138.367 106.156 138.617 106.254 138.827L110.474 147.875Z" fill="#E9EDF0"/>
<path d="M109.267 132.676C109.432 132.962 109.797 133.06 110.081 132.892C110.09 132.887 110.098 132.882 110.107 132.877C110.391 132.709 110.481 132.341 110.31 132.059C110.14 131.777 109.77 131.688 109.486 131.856C109.202 132.024 109.102 132.39 109.267 132.676Z" fill="#E9EDF0"/>
<path d="M116.455 144.757C116.59 144.99 116.889 145.071 117.122 144.934C117.355 144.798 117.431 144.498 117.293 144.266L112.193 135.683C112.074 135.484 111.817 135.418 111.616 135.535C111.416 135.653 111.347 135.91 111.463 136.111L116.455 144.757Z" fill="#E9EDF0"/>
<path d="M86.4883 72.6099V71.4911C86.4883 68.9324 88.1973 66.7881 91.1393 66.7881C94.1853 66.7881 95.7913 68.9324 95.7913 71.4911V72.6099C95.7913 75.1686 94.1433 77.2819 91.1393 77.2819C88.1143 77.2819 86.4883 75.1375 86.4883 72.6099ZM90.5383 88.7287H87.8454L102.431 67.5132H105.124L90.5383 88.7287ZM89.4923 71.4911V72.6099C89.4923 73.6251 89.9073 74.661 91.1393 74.661C92.4133 74.661 92.7863 73.6251 92.7863 72.6099V71.4911C92.7863 70.4759 92.4553 69.4089 91.1393 69.4089C89.8963 69.4089 89.4923 70.4966 89.4923 71.4911ZM97.3753 84.7508V83.632C97.3753 81.1044 99.0433 78.929 102.016 78.929C105.052 78.929 106.668 81.0733 106.668 83.632V84.7508C106.668 87.2784 105.01 89.4538 102.016 89.4538C99.0023 89.4538 97.3753 87.2784 97.3753 84.7508ZM100.349 83.632V84.7508C100.349 85.7453 100.753 86.8019 102.016 86.8019C103.28 86.8019 103.674 85.766 103.674 84.7508V83.632C103.674 82.6168 103.322 81.5498 102.016 81.5498C100.763 81.5498 100.349 82.6168 100.349 83.632Z" fill="#020407"/>
<path d="M82.6905 88.7282H67.4937L67.4833 85.5479L75.1076 78.5348C77.0759 76.6391 78.1428 75.4685 78.1532 73.7696C78.1428 71.8946 76.7133 70.7344 74.7865 70.7344C72.7872 70.7344 71.4716 71.9879 71.4819 74.0286H67.2969C67.2865 69.8746 70.3631 67.2227 74.8176 67.2227C79.3756 67.2227 82.3901 69.8124 82.4004 73.4899C82.3901 75.9036 81.2195 77.8925 76.848 81.8497L73.6159 84.9678V85.1129H82.6905V88.7282Z" fill="#020407"/>
<path d="M56.205 89.0182C51.357 89.0182 47.8867 86.4699 47.8867 83.0203C47.8867 80.3477 49.9378 78.1826 52.5483 77.7786V77.6336C50.2693 77.1881 48.6843 75.2613 48.6843 72.9305C48.6843 69.6363 51.8646 67.2227 56.205 67.2227C60.5248 67.2227 63.705 69.6363 63.7154 72.9305C63.705 75.2717 62.0994 77.1881 59.8514 77.6336V77.7786C62.4412 78.1826 64.513 80.3477 64.5234 83.0203C64.513 86.4699 61.0324 89.0182 56.205 89.0182ZM56.205 76.2662C58.0697 76.2662 59.4164 75.0749 59.4164 73.3863C59.4164 71.7185 58.0904 70.5583 56.205 70.5583C54.299 70.5583 52.9937 71.7185 52.9937 73.3863C52.9937 75.0749 54.33 76.2662 56.205 76.2662ZM56.205 85.7551C58.4426 85.7551 59.9343 84.4913 59.9343 82.6785C59.9343 80.8345 58.3597 79.4879 56.205 79.4879C54.0503 79.4879 52.4654 80.8345 52.4861 82.6785C52.4654 84.4809 53.9571 85.7551 56.205 85.7551Z" fill="#020407"/>
</svg>
