<svg width="116" height="116" viewBox="0 0 116 116" fill="none" xmlns="http://www.w3.org/2000/svg">
<rect x="0.449707" y="0.5" width="115" height="115" rx="57.5" fill="white"/>
<g clip-path="url(#clip0_1203_3942)">
<path d="M60.6313 41.4993C60.6313 40.0292 60.9208 38.5735 61.4834 37.2153C62.046 35.8571 62.8706 34.623 63.9101 33.5835C64.9496 32.544 66.1837 31.7194 67.5419 31.1568C68.9001 30.5942 70.3558 30.3047 71.8259 30.3047C73.296 30.3047 74.7517 30.5942 76.1099 31.1568C77.468 31.7194 78.7021 32.544 79.7416 33.5835C80.7812 34.623 81.6057 35.8571 82.1683 37.2153C82.7309 38.5735 83.0205 40.0292 83.0205 41.4993C83.0205 44.4683 81.841 47.3157 79.7416 49.4151C77.6423 51.5145 74.7949 52.6939 71.8259 52.6939C68.8569 52.6939 66.0095 51.5145 63.9101 49.4151C61.8107 47.3157 60.6313 44.4683 60.6313 41.4993ZM49.4255 47.4996L61.9998 67.0566L68.8173 56.1446L91.4164 86.2777H24.7498L49.4255 47.4996Z" fill="#E5E5E5"/>
</g>
<defs>
<clipPath id="clip0_1203_3942">
<rect width="67" height="57" fill="white" transform="translate(24.4497 29.5)"/>
</clipPath>
</defs>
</svg>
