<svg width="156" height="156" viewBox="0 0 156 156" fill="none" xmlns="http://www.w3.org/2000/svg">
<path d="M141.061 77.9875C141.391 77.9875 141.659 77.7201 141.656 77.3902C141.655 77.3803 141.655 77.3704 141.655 77.3606C141.652 77.0307 141.379 76.7688 141.049 76.7755C140.719 76.7823 140.457 77.0577 140.461 77.3876C140.464 77.7175 140.731 77.9875 141.061 77.9875Z" fill="#49A942"/>
<path d="M155.116 77.8007C155.386 77.8007 155.605 77.5818 155.603 77.3118C155.601 77.0419 155.38 76.8257 155.11 76.8291L145.127 76.9546C144.895 76.9575 144.709 77.1481 144.711 77.3803C144.712 77.6125 144.9 77.8007 145.132 77.8007H155.116Z" fill="#49A942"/>
<path d="M140.836 72.4784C141.165 72.4497 141.409 72.1599 141.377 71.8316C141.376 71.8217 141.376 71.8119 141.375 71.8021C141.342 71.4737 141.046 71.2366 140.718 71.2721C140.39 71.3076 140.154 71.6048 140.186 71.9331C140.218 72.2615 140.508 72.5072 140.836 72.4784Z" fill="#49A942"/>
<path d="M154.822 71.0664C155.091 71.043 155.29 70.8057 155.265 70.5369C155.24 70.2681 155 70.0722 154.731 70.0991L144.798 71.0941C144.567 71.1172 144.398 71.3233 144.42 71.5544C144.442 71.7856 144.645 71.9567 144.877 71.9365L154.822 71.0664Z" fill="#49A942"/>
<path d="M140.132 67.0027C140.457 66.9454 140.674 66.6355 140.613 66.3112C140.612 66.3015 140.61 66.2917 140.608 66.282C140.547 65.9578 140.233 65.7473 139.909 65.8112C139.585 65.8751 139.376 66.1918 139.436 66.5161C139.497 66.8404 139.807 67.0599 140.132 67.0027Z" fill="#49A942"/>
<path d="M153.944 64.3774C154.21 64.3306 154.387 64.077 154.339 63.8114C154.29 63.5458 154.034 63.3715 153.769 63.4217L143.96 65.2787C143.732 65.3219 143.582 65.5418 143.624 65.7702C143.666 65.9986 143.883 66.1513 144.112 66.111L153.944 64.3774Z" fill="#49A942"/>
<path d="M138.957 61.6112C139.276 61.5259 139.465 61.1982 139.377 60.8804C139.374 60.8709 139.371 60.8614 139.369 60.8519C139.28 60.5341 138.948 60.3518 138.631 60.4437C138.314 60.5356 138.133 60.8694 138.222 61.1872C138.31 61.5049 138.638 61.6966 138.957 61.6112Z" fill="#49A942"/>
<path d="M152.487 57.7942C152.748 57.7243 152.903 57.4562 152.832 57.1958C152.76 56.9355 152.49 56.7842 152.23 56.8573L142.62 59.5622C142.397 59.6251 142.267 59.8572 142.328 60.0811C142.39 60.305 142.62 60.4381 142.844 60.3781L152.487 57.7942Z" fill="#49A942"/>
<path d="M137.313 56.3422C137.623 56.2293 137.783 55.8864 137.667 55.5776C137.663 55.5683 137.66 55.5591 137.656 55.5498C137.54 55.241 137.194 55.0883 136.886 55.2075C136.579 55.3267 136.427 55.675 136.543 55.9838C136.659 56.2926 137.003 56.455 137.313 56.3422Z" fill="#49A942"/>
<path d="M150.452 51.3596C150.706 51.2672 150.837 50.9867 150.743 50.7335C150.649 50.4804 150.367 50.3532 150.114 50.4487L140.777 53.9809C140.56 54.063 140.45 54.3056 140.531 54.5233C140.612 54.741 140.853 54.8535 141.071 54.7741L150.452 51.3596Z" fill="#49A942"/>
<path d="M135.212 51.2395C135.511 51.1001 135.641 50.7446 135.499 50.447C135.494 50.4381 135.49 50.4292 135.486 50.4202C135.343 50.1227 134.985 50.0008 134.689 50.1463C134.393 50.2919 134.272 50.652 134.415 50.9496C134.557 51.2471 134.913 51.379 135.212 51.2395Z" fill="#49A942"/>
<path d="M147.872 45.1296C148.117 45.0155 148.223 44.7246 148.107 44.4806C147.991 44.2367 147.699 44.1345 147.456 44.2517L138.461 48.5842C138.252 48.685 138.164 48.9362 138.264 49.146C138.363 49.3558 138.613 49.4469 138.824 49.3488L147.872 45.1296Z" fill="#49A942"/>
<path d="M132.682 46.3368C132.967 46.1719 133.065 45.8064 132.898 45.5223C132.893 45.5138 132.888 45.5053 132.883 45.4968C132.715 45.2129 132.347 45.1226 132.065 45.2934C131.782 45.4642 131.694 45.8335 131.862 46.1175C132.029 46.4015 132.396 46.5018 132.682 46.3368Z" fill="#49A942"/>
<path d="M144.76 39.1463C144.994 39.0113 145.074 38.7122 144.938 38.4792C144.802 38.2463 144.501 38.17 144.269 38.3079L135.687 43.4079C135.487 43.5265 135.422 43.7844 135.539 43.9847C135.656 44.1851 135.913 44.254 136.115 44.138L144.76 39.1463Z" fill="#49A942"/>
<path d="M129.731 41.6741C130.001 41.4849 130.067 41.1122 129.875 40.8439C129.869 40.8358 129.864 40.8278 129.858 40.8198C129.666 40.5515 129.292 40.4937 129.025 40.6884C128.759 40.8831 128.703 41.2588 128.895 41.5271C129.087 41.7954 129.461 41.8633 129.731 41.6741Z" fill="#49A942"/>
<path d="M141.136 33.4575C141.357 33.3027 141.411 32.9977 141.255 32.7776C141.099 32.5574 140.793 32.5076 140.574 32.6652L132.469 38.4937C132.28 38.6293 132.237 38.8919 132.372 39.0813C132.506 39.2706 132.768 39.3169 132.958 39.1837L141.136 33.4575Z" fill="#49A942"/>
<path d="M126.379 37.2839C126.631 37.0718 126.664 36.6948 126.45 36.4442C126.443 36.4367 126.437 36.4292 126.431 36.4217C126.216 36.1713 125.838 36.1462 125.59 36.3634C125.342 36.5806 125.318 36.9597 125.533 37.2103C125.748 37.4608 126.126 37.496 126.379 37.2839Z" fill="#49A942"/>
<path d="M137.03 28.1067C137.236 27.9331 137.264 27.6247 137.089 27.4189C136.914 27.2132 136.605 27.1902 136.4 27.3663L128.834 33.8791C128.658 34.0306 128.638 34.296 128.789 34.4729C128.939 34.6498 129.204 34.6731 129.382 34.5239L137.03 28.1067Z" fill="#49A942"/>
<path d="M122.664 33.2056C122.898 32.9723 122.898 32.5938 122.662 32.3629C122.655 32.356 122.648 32.3491 122.641 32.3422C122.405 32.1113 122.027 32.1193 121.798 32.3573C121.57 32.5953 121.58 32.975 121.815 33.2059C122.051 33.4368 122.431 33.4388 122.664 33.2056Z" fill="#49A942"/>
<path d="M132.472 23.1339C132.663 22.943 132.663 22.6333 132.471 22.4436C132.279 22.2539 131.969 22.2579 131.781 22.4512L124.811 29.5987C124.649 29.7649 124.652 30.031 124.817 30.1941C124.982 30.3573 125.249 30.3574 125.413 30.1932L132.472 23.1339Z" fill="#49A942"/>
<path d="M118.606 29.4667C118.818 29.214 118.786 28.837 118.531 28.6274C118.523 28.6212 118.515 28.6149 118.508 28.6086C118.253 28.3992 117.877 28.4402 117.67 28.6972C117.463 28.9542 117.506 29.3316 117.761 29.5411C118.016 29.7505 118.394 29.7195 118.606 29.4667Z" fill="#49A942"/>
<path d="M127.5 18.5764C127.673 18.3696 127.646 18.0611 127.438 17.8888C127.231 17.7166 126.922 17.7476 126.752 17.9566L120.431 25.6843C120.284 25.864 120.311 26.1288 120.489 26.2769C120.668 26.4251 120.933 26.402 121.083 26.2241L127.5 18.5764Z" fill="#49A942"/>
<path d="M109.271 132.677C109.436 132.963 109.801 133.061 110.085 132.893C110.094 132.888 110.102 132.883 110.111 132.878C110.395 132.71 110.485 132.342 110.314 132.06C110.143 131.778 109.774 131.689 109.49 131.857C109.206 132.025 109.106 132.391 109.271 132.677Z" fill="#E9EDF0"/>
<path d="M116.458 144.758C116.593 144.991 116.893 145.072 117.126 144.935C117.359 144.799 117.435 144.499 117.297 144.267L112.197 135.684C112.078 135.485 111.819 135.419 111.619 135.536C111.419 135.654 111.35 135.911 111.466 136.112L116.458 144.758Z" fill="#E9EDF0"/>
<path d="M113.931 129.726C114.12 129.996 114.493 130.062 114.761 129.87C114.77 129.865 114.778 129.859 114.786 129.853C115.054 129.661 115.112 129.287 114.917 129.021C114.722 128.755 114.347 128.698 114.078 128.89C113.81 129.082 113.742 129.456 113.931 129.726Z" fill="#49A942"/>
<path d="M122.151 141.134C122.305 141.356 122.61 141.409 122.831 141.253C123.051 141.097 123.101 140.791 122.943 140.572L117.114 132.467C116.979 132.278 116.716 132.235 116.527 132.37C116.337 132.504 116.291 132.766 116.424 132.956L122.151 141.134Z" fill="#49A942"/>
<path d="M118.318 126.378C118.531 126.631 118.908 126.664 119.158 126.449C119.166 126.443 119.173 126.436 119.181 126.43C119.431 126.215 119.456 125.838 119.239 125.589C119.022 125.341 118.643 125.318 118.392 125.532C118.142 125.747 118.106 126.125 118.318 126.378Z" fill="#49A942"/>
<path d="M127.5 137.028C127.674 137.235 127.982 137.262 128.188 137.087C128.394 136.912 128.417 136.603 128.241 136.399L121.728 128.832C121.577 128.656 121.311 128.637 121.134 128.787C120.957 128.937 120.934 129.202 121.083 129.38L127.5 137.028Z" fill="#49A942"/>
<path d="M122.401 122.665C122.635 122.898 123.013 122.898 123.244 122.662C123.251 122.655 123.258 122.648 123.265 122.641C123.495 122.406 123.488 122.027 123.25 121.799C123.011 121.57 122.632 121.58 122.401 121.816C122.17 122.051 122.168 122.431 122.401 122.665Z" fill="#49A942"/>
<path d="M132.471 132.474C132.662 132.665 132.972 132.665 133.161 132.473C133.351 132.281 133.347 131.971 133.154 131.783L126.006 124.813C125.84 124.651 125.574 124.654 125.411 124.819C125.248 124.985 125.248 125.251 125.412 125.415L132.471 132.474Z" fill="#49A942"/>
<path d="M126.143 118.607C126.395 118.819 126.772 118.786 126.982 118.531C126.988 118.523 126.994 118.516 127.001 118.508C127.21 118.253 127.169 117.877 126.912 117.67C126.655 117.463 126.278 117.506 126.068 117.761C125.859 118.016 125.89 118.394 126.143 118.607Z" fill="#49A942"/>
<path d="M137.029 127.498C137.235 127.672 137.544 127.645 137.716 127.437C137.888 127.229 137.857 126.921 137.648 126.75L129.921 120.429C129.741 120.282 129.476 120.309 129.328 120.488C129.18 120.666 129.203 120.932 129.381 121.081L137.029 127.498Z" fill="#49A942"/>
<path d="M129.516 114.239C129.786 114.428 130.159 114.362 130.346 114.09C130.351 114.082 130.357 114.074 130.362 114.066C130.549 113.794 130.475 113.422 130.201 113.239C129.927 113.055 129.555 113.131 129.368 113.403C129.182 113.675 129.246 114.049 129.516 114.239Z" fill="#49A942"/>
<path d="M141.135 122.148C141.356 122.303 141.661 122.249 141.814 122.027C141.968 121.805 141.91 121.501 141.687 121.348L133.438 115.725C133.246 115.595 132.985 115.644 132.853 115.835C132.721 116.026 132.767 116.288 132.957 116.422L141.135 122.148Z" fill="#49A942"/>
<path d="M132.494 109.591C132.78 109.756 133.145 109.658 133.307 109.371C133.312 109.362 133.317 109.354 133.322 109.345C133.484 109.058 133.378 108.694 133.089 108.535C132.8 108.376 132.436 108.484 132.274 108.771C132.112 109.059 132.208 109.426 132.494 109.591Z" fill="#49A942"/>
<path d="M144.758 116.458C144.992 116.593 145.291 116.513 145.425 116.278C145.558 116.044 145.474 115.746 145.239 115.614L136.531 110.731C136.328 110.617 136.072 110.69 135.958 110.891C135.843 111.093 135.912 111.35 136.113 111.466L144.758 116.458Z" fill="#49A942"/>
<path d="M135.056 104.709C135.355 104.848 135.711 104.719 135.847 104.419C135.851 104.41 135.855 104.401 135.86 104.392C135.996 104.091 135.859 103.738 135.557 103.605C135.255 103.472 134.902 103.611 134.765 103.911C134.629 104.212 134.757 104.569 135.056 104.709Z" fill="#49A942"/>
<path d="M147.874 110.479C148.119 110.593 148.41 110.487 148.522 110.242C148.635 109.997 148.525 109.707 148.279 109.596L139.179 105.491C138.967 105.395 138.718 105.49 138.621 105.701C138.524 105.912 138.615 106.162 138.826 106.26L147.874 110.479Z" fill="#49A942"/>
<path d="M137.187 99.6126C137.497 99.7254 137.84 99.5657 137.949 99.2545C137.953 99.2452 137.956 99.2359 137.959 99.2266C138.069 98.9154 137.902 98.5759 137.589 98.4694C137.277 98.3629 136.937 98.5323 136.828 98.8435C136.718 99.1546 136.877 99.4997 137.187 99.6126Z" fill="#49A942"/>
<path d="M150.456 104.244C150.709 104.337 150.99 104.206 151.081 103.952C151.172 103.697 151.037 103.418 150.782 103.329L141.359 100.033C141.14 99.9557 140.9 100.072 140.822 100.29C140.744 100.509 140.856 100.75 141.074 100.83L150.456 104.244Z" fill="#49A942"/>
<path d="M138.854 94.3553C139.173 94.4406 139.5 94.2516 139.583 93.9321C139.585 93.9225 139.588 93.913 139.59 93.9034C139.672 93.5838 139.476 93.2602 139.156 93.1813C138.835 93.1025 138.511 93.3008 138.429 93.6204C138.347 93.9399 138.535 94.2699 138.854 94.3553Z" fill="#49A942"/>
<path d="M152.482 97.8131C152.743 97.8829 153.011 97.7282 153.08 97.467C153.148 97.2058 152.99 96.9396 152.728 96.873L143.053 94.4105C142.828 94.3533 142.599 94.4893 142.541 94.7139C142.482 94.9386 142.615 95.1691 142.839 95.2292L152.482 97.8131Z" fill="#49A942"/>
<path d="M140.066 88.9675C140.391 89.0248 140.701 88.8079 140.755 88.4825C140.757 88.4727 140.759 88.463 140.76 88.4532C140.814 88.1277 140.59 87.8224 140.264 87.7718C139.938 87.7211 139.633 87.947 139.579 88.2725C139.525 88.5979 139.741 88.9102 140.066 88.9675Z" fill="#49A942"/>
<path d="M153.942 91.2267C154.208 91.2735 154.462 91.096 154.507 90.8298C154.552 90.5637 154.372 90.3123 154.105 90.2688L144.252 88.6589C144.023 88.6214 143.807 88.7769 143.768 89.0058C143.729 89.2347 143.882 89.4527 144.111 89.4931L153.942 91.2267Z" fill="#49A942"/>
<path d="M140.806 83.5009C141.134 83.5296 141.424 83.2865 141.45 82.9576C141.451 82.9478 141.451 82.9379 141.452 82.9281C141.478 82.5991 141.228 82.3144 140.899 82.2924C140.57 82.2704 140.285 82.5219 140.26 82.8508C140.235 83.1797 140.477 83.4721 140.806 83.5009Z" fill="#49A942"/>
<path d="M154.823 84.5388C155.092 84.5624 155.329 84.3634 155.351 84.0943C155.372 83.8252 155.17 83.5906 154.901 83.5704L144.946 82.8254C144.714 82.808 144.512 82.9817 144.494 83.2131C144.475 83.4446 144.646 83.6485 144.877 83.6687L154.823 84.5388Z" fill="#49A942"/>
<path d="M114.241 26.089C114.431 25.8188 114.365 25.446 114.093 25.2595C114.085 25.2539 114.077 25.2484 114.069 25.2428C113.796 25.0564 113.425 25.1299 113.241 25.404C113.058 25.6781 113.133 26.0503 113.406 26.2368C113.678 26.4232 114.052 26.3593 114.241 26.089Z" fill="#49A942"/>
<path d="M122.148 14.4667C122.302 14.2456 122.249 13.9406 122.027 13.7871C121.805 13.6337 121.5 13.6914 121.348 13.9145L115.725 22.1637C115.594 22.3555 115.644 22.617 115.835 22.7489C116.026 22.8809 116.288 22.8348 116.421 22.6446L122.148 14.4667Z" fill="#49A942"/>
<path d="M109.59 23.1101C109.755 22.8244 109.657 22.4587 109.37 22.2967C109.361 22.2918 109.353 22.287 109.344 22.2821C109.057 22.1202 108.693 22.2258 108.534 22.5148C108.375 22.8038 108.483 23.1681 108.77 23.3301C109.058 23.4921 109.425 23.3958 109.59 23.1101Z" fill="#49A942"/>
<path d="M116.457 10.8433C116.592 10.6094 116.512 10.3103 116.277 10.1768C116.042 10.0433 115.744 10.1273 115.612 10.3628L110.73 19.0707C110.616 19.2732 110.688 19.5293 110.89 19.6441C111.092 19.759 111.349 19.6902 111.465 19.4891L116.457 10.8433Z" fill="#49A942"/>
<path d="M109.59 23.1101C109.755 22.8244 109.657 22.4587 109.37 22.2967C109.361 22.2918 109.353 22.287 109.344 22.2821C109.057 22.1202 108.693 22.2258 108.534 22.5148C108.375 22.8038 108.483 23.1681 108.77 23.3301C109.058 23.4921 109.425 23.3958 109.59 23.1101Z" fill="#49A942"/>
<path d="M116.457 10.8433C116.592 10.6094 116.512 10.3103 116.277 10.1768C116.042 10.0433 115.744 10.1273 115.612 10.3628L110.73 19.0707C110.616 19.2732 110.688 19.5293 110.89 19.6441C111.092 19.759 111.349 19.6902 111.465 19.4891L116.457 10.8433Z" fill="#49A942"/>
<path d="M104.705 20.5515C104.844 20.2525 104.715 19.8968 104.414 19.7603C104.405 19.7563 104.396 19.7522 104.387 19.7481C104.087 19.6118 103.734 19.7487 103.601 20.0505C103.468 20.3523 103.607 20.7058 103.907 20.8421C104.208 20.9785 104.565 20.8505 104.705 20.5515Z" fill="#49A942"/>
<path d="M110.479 7.7316C110.593 7.4869 110.487 7.1959 110.242 7.08334C109.996 6.97077 109.707 7.08043 109.596 7.32653L105.491 16.4269C105.395 16.6385 105.489 16.8874 105.701 16.9842C105.912 17.081 106.162 16.9901 106.26 16.7796L110.479 7.7316Z" fill="#49A942"/>
<path d="M99.6127 18.4196C99.7257 18.1095 99.5657 17.7665 99.2547 17.6567C99.2447 17.6534 99.2357 17.6502 99.2267 17.6469C98.9157 17.5373 98.5757 17.7044 98.4697 18.0167C98.3627 18.329 98.5317 18.6689 98.8437 18.7786C99.1547 18.8883 99.4997 18.7296 99.6127 18.4196Z" fill="#49A942"/>
<path d="M104.247 5.14761C104.339 4.89391 104.209 4.61323 103.954 4.52248C103.7 4.43174 103.421 4.56621 103.332 4.82106L100.036 14.2446C99.9586 14.4637 100.074 14.7034 100.293 14.7815C100.512 14.8595 100.753 14.7471 100.832 14.529L104.247 5.14761Z" fill="#49A942"/>
<path d="M94.3551 16.746C94.4411 16.4273 94.2521 16.0995 93.9321 16.0173C93.9231 16.0148 93.9131 16.0124 93.9031 16.0099C93.5841 15.9279 93.2601 16.124 93.1811 16.4443C93.1031 16.7647 93.3011 17.0886 93.6201 17.1707C93.9401 17.2528 94.2701 17.0647 94.3551 16.746Z" fill="#49A942"/>
<path d="M97.8144 3.11994C97.8844 2.85915 97.7294 2.59094 97.4684 2.5227C97.2074 2.45446 96.9404 2.61273 96.8744 2.87438L94.4114 12.5493C94.3544 12.7743 94.4904 13.003 94.7154 13.0617C94.9394 13.1204 95.1704 12.9874 95.2304 12.7631L97.8144 3.11994Z" fill="#49A942"/>
<path d="M88.9688 15.5359C89.0258 15.211 88.8088 14.9009 88.4838 14.8469C88.4738 14.8452 88.4638 14.8436 88.4538 14.842C88.1288 14.7881 87.8233 15.0117 87.7727 15.3377C87.722 15.6637 87.9479 15.9691 88.2738 16.0231C88.5988 16.077 88.9108 15.8608 88.9688 15.5359Z" fill="#49A942"/>
<path d="M91.2297 1.6606C91.2767 1.39471 91.0997 1.14101 90.8327 1.0958C90.5667 1.05058 90.3157 1.23145 90.2717 1.4979L88.6617 11.3506C88.6247 11.5798 88.7797 11.7958 89.0087 11.8347C89.2377 11.8735 89.4557 11.721 89.4967 11.4923L91.2297 1.6606Z" fill="#49A942"/>
<path d="M83.5028 14.7996C83.5316 14.4709 83.2885 14.1808 82.9595 14.1554C82.9497 14.1546 82.9398 14.1539 82.93 14.1531C82.6011 14.1278 82.3163 14.3771 82.2943 14.7063C82.2723 15.0355 82.5239 15.32 82.8528 15.3454C83.1818 15.3708 83.4741 15.1282 83.5028 14.7996Z" fill="#49A942"/>
<path d="M84.5389 0.781642C84.5624 0.512679 84.3635 0.27541 84.0944 0.25357C83.8252 0.231729 83.5906 0.433809 83.5705 0.703046L82.8254 10.6586C82.8081 10.8901 82.9818 11.0917 83.2132 11.1105C83.4446 11.1293 83.6485 10.9583 83.6688 10.727L84.5389 0.781642Z" fill="#49A942"/>
<path d="M77.9856 14.5445C77.9856 14.2146 77.7182 13.9469 77.3883 13.9502C77.3784 13.9503 77.3685 13.9504 77.3587 13.9505C77.0288 13.9539 76.7669 14.2271 76.7736 14.557C76.7804 14.8868 77.0558 15.1484 77.3857 15.145C77.7156 15.1416 77.9856 14.8745 77.9856 14.5445Z" fill="#49A942"/>
<path d="M77.7998 0.48733C77.7998 0.21734 77.5809 -0.0016866 77.3109 9.78797e-06C77.0409 0.00170618 76.8248 0.223465 76.8282 0.493433L76.9537 10.476C76.9566 10.7082 77.1472 10.8939 77.3793 10.8925C77.6115 10.891 77.7998 10.7029 77.7998 10.4707V0.48733Z" fill="#49A942"/>
<path d="M72.4755 14.7675C72.4467 14.4388 72.1569 14.1954 71.8286 14.2274C71.8188 14.2284 71.8089 14.2293 71.7991 14.2303C71.4708 14.2625 71.2337 14.5575 71.2691 14.8855C71.3046 15.2135 71.6018 15.45 71.9302 15.4179C72.2585 15.3858 72.5042 15.0961 72.4755 14.7675Z" fill="#49A942"/>
<path d="M71.0635 0.780951C71.04 0.511988 70.8028 0.312871 70.534 0.338092C70.2652 0.363312 70.0693 0.603062 70.0962 0.871707L71.0912 10.8054C71.1143 11.0364 71.3204 11.2048 71.5515 11.1831C71.7827 11.1614 71.9538 10.9576 71.9336 10.7263L71.0635 0.780951Z" fill="#49A942"/>
<path d="M66.9998 15.4694C66.9425 15.1445 66.6326 14.9272 66.3083 14.9877C66.2986 14.9895 66.2889 14.9914 66.2792 14.9932C65.9549 15.0539 65.7444 15.3684 65.8083 15.6921C65.8723 16.0157 66.1889 16.2255 66.5132 16.1648C66.8375 16.1042 67.0571 15.7943 66.9998 15.4694Z" fill="#49A942"/>
<path d="M64.3784 1.65888C64.3315 1.39299 64.0779 1.2153 63.8124 1.26385C63.5468 1.31241 63.3725 1.56832 63.4227 1.8336L65.2797 11.6427C65.3229 11.8709 65.5428 12.0207 65.7712 11.9789C65.9996 11.9371 66.1523 11.7192 66.112 11.4906L64.3784 1.65888Z" fill="#49A942"/>
<path d="M61.6093 16.6493C61.5239 16.3307 61.1963 16.1412 60.8785 16.2298C60.869 16.2325 60.8595 16.2351 60.85 16.2378C60.5322 16.3265 60.3499 16.6582 60.4418 16.975C60.5337 17.2919 60.8675 17.4732 61.1853 17.3846C61.503 17.2959 61.6947 16.968 61.6093 16.6493Z" fill="#49A942"/>
<path d="M57.7913 3.12043C57.7214 2.85964 57.4533 2.70473 57.1929 2.77624C56.9326 2.84776 56.7812 3.11789 56.8544 3.37778L59.5593 12.9877C59.6222 13.2112 59.8543 13.3413 60.0782 13.2798C60.3021 13.2183 60.4352 12.9879 60.3751 12.7636L57.7913 3.12043Z" fill="#49A942"/>
<path d="M56.3432 18.2894C56.2303 17.9794 55.8874 17.8193 55.5786 17.9352C55.5693 17.9387 55.5601 17.9421 55.5508 17.9456C55.242 18.0617 55.0893 18.408 55.2085 18.7156C55.3277 19.0233 55.676 19.1748 55.9848 19.0588C56.2936 18.9428 56.456 18.5994 56.3432 18.2894Z" fill="#49A942"/>
<path d="M51.3567 5.14635C51.2643 4.89265 50.9838 4.76169 50.7306 4.85562C50.4775 4.94955 50.3503 5.23185 50.4458 5.48438L53.9779 14.822C54.0601 15.0392 54.3027 15.1485 54.5204 15.0677C54.7381 14.987 54.8506 14.7458 54.7712 14.5276L51.3567 5.14635Z" fill="#49A942"/>
<path d="M51.2366 20.389C51.0972 20.09 50.7416 19.9604 50.444 20.1028C50.4351 20.1071 50.4262 20.1113 50.4173 20.1156C50.1198 20.2581 49.9978 20.6164 50.1434 20.9125C50.2889 21.2086 50.6491 21.3292 50.9466 21.1867C51.2442 21.0443 51.376 20.688 51.2366 20.389Z" fill="#49A942"/>
<path d="M45.1296 7.72819C45.0155 7.4835 44.7246 7.37749 44.4806 7.49313C44.2367 7.60877 44.1345 7.90108 44.2517 8.14432L48.5842 17.1386C48.685 17.3478 48.9362 17.4355 49.146 17.3361C49.3558 17.2366 49.4469 16.9866 49.3488 16.7762L45.1296 7.72819Z" fill="#49A942"/>
<path d="M46.3368 22.928C46.1719 22.6423 45.8063 22.5441 45.5223 22.7119C45.5138 22.717 45.5053 22.722 45.4968 22.727C45.2128 22.895 45.1226 23.2625 45.2934 23.5448C45.4642 23.8271 45.8335 23.9158 46.1175 23.748C46.4015 23.5801 46.5018 23.2137 46.3368 22.928Z" fill="#49A942"/>
<path d="M39.1452 10.8457C39.0102 10.6119 38.7112 10.5316 38.4782 10.6681C38.2452 10.8045 38.169 11.1046 38.3069 11.3367L43.4068 19.9192C43.5254 20.1188 43.7833 20.1843 43.9837 20.067C44.184 19.9496 44.253 19.6926 44.1369 19.4915L39.1452 10.8457Z" fill="#49A942"/>
<path d="M46.3368 22.928C46.1719 22.6423 45.8063 22.5441 45.5223 22.7119C45.5138 22.717 45.5053 22.722 45.4968 22.727C45.2128 22.895 45.1226 23.2625 45.2934 23.5448C45.4642 23.8271 45.8335 23.9158 46.1175 23.748C46.4015 23.5801 46.5018 23.2137 46.3368 22.928Z" fill="#49A942"/>
<path d="M39.1452 10.8457C39.0102 10.6119 38.7112 10.5316 38.4782 10.6681C38.2452 10.8045 38.169 11.1046 38.3069 11.3367L43.4068 19.9192C43.5254 20.1188 43.7833 20.1843 43.9837 20.067C44.184 19.9496 44.253 19.6926 44.1369 19.4915L39.1452 10.8457Z" fill="#49A942"/>
<path d="M41.6711 25.8784C41.4819 25.6081 41.1092 25.5422 40.8409 25.7341C40.8328 25.7399 40.8248 25.7456 40.8168 25.7514C40.5485 25.9434 40.4907 26.3174 40.6854 26.5838C40.8801 26.8501 41.2558 26.9063 41.5241 26.7143C41.7924 26.5224 41.8603 26.1486 41.6711 25.8784Z" fill="#49A942"/>
<path d="M33.4585 14.469C33.3036 14.2479 32.9987 14.194 32.7785 14.3502C32.5584 14.5065 32.5085 14.8121 32.6662 15.0313L38.4947 23.1366C38.6303 23.3251 38.8929 23.3679 39.0822 23.2336C39.2716 23.0992 39.3179 22.8371 39.1847 22.6469L33.4585 14.469Z" fill="#49A942"/>
<path d="M37.2829 29.2258C37.0709 28.9731 36.6939 28.9399 36.4433 29.1545C36.4358 29.1609 36.4283 29.1673 36.4208 29.1737C36.1703 29.3884 36.1452 29.7661 36.3624 30.0144C36.5796 30.2627 36.9588 30.286 37.2093 30.0714C37.4599 29.8567 37.495 29.4785 37.2829 29.2258Z" fill="#49A942"/>
<path d="M28.1086 18.5758C27.9351 18.369 27.6266 18.3419 27.4209 18.5167C27.2152 18.6915 27.1922 19.0003 27.3683 19.205L33.8811 26.7714C34.0326 26.9474 34.2979 26.9672 34.4748 26.8168C34.6518 26.6664 34.6751 26.4014 34.5258 26.2235L28.1086 18.5758Z" fill="#49A942"/>
<path d="M33.2075 32.9394C32.9742 32.7061 32.5958 32.7059 32.3648 32.9415C32.3579 32.9485 32.351 32.9556 32.3441 32.9627C32.1133 33.1984 32.1213 33.5767 32.3593 33.8052C32.5973 34.0337 32.977 34.0238 33.2079 33.7882C33.4388 33.5525 33.4408 33.1727 33.2075 32.9394Z" fill="#49A942"/>
<path d="M23.1348 23.1305C22.9439 22.9395 22.6343 22.9394 22.4446 23.1315C22.2548 23.3236 22.2588 23.6333 22.4521 23.8218L29.5996 30.7918C29.7658 30.9539 30.0319 30.9505 30.1951 30.7853C30.3582 30.62 30.3583 30.3539 30.1941 30.1898L23.1348 23.1305Z" fill="#49A942"/>
<path d="M29.4648 36.9971C29.212 36.785 28.835 36.8178 28.6255 37.0726C28.6192 37.0803 28.6129 37.0879 28.6067 37.0955C28.3973 37.3505 28.4382 37.7267 28.6952 37.9335C28.9522 38.1404 29.3296 38.0975 29.5391 37.8426C29.7486 37.5877 29.7175 37.2092 29.4648 36.9971Z" fill="#49A942"/>
<path d="M18.5764 28.1055C18.3695 27.932 18.0611 27.9588 17.8888 28.1668C17.7166 28.3747 17.7475 28.6828 17.9565 28.8537L25.6843 35.1743C25.864 35.3213 26.1288 35.2947 26.2769 35.1159C26.425 34.9371 26.4019 34.672 26.2241 34.5227L18.5764 28.1055Z" fill="#49A942"/>
<path d="M26.0901 41.3648C25.8198 41.1756 25.4471 41.2411 25.2605 41.5132C25.255 41.5213 25.2494 41.5296 25.2438 41.5377C25.0574 41.81 25.131 42.1811 25.405 42.3648C25.6791 42.5484 26.0514 42.4728 26.2378 42.2006C26.4243 41.9284 26.3603 41.554 26.0901 41.3648Z" fill="#49A942"/>
<path d="M14.4725 33.4556C14.2514 33.3008 13.9464 33.3544 13.793 33.5765C13.6395 33.7987 13.6972 34.1029 13.9203 34.255L22.1695 39.878C22.3614 40.0088 22.6228 39.9592 22.7548 39.7681C22.8868 39.5771 22.8406 39.315 22.6504 39.1818L14.4725 33.4556Z" fill="#49A942"/>
<path d="M23.115 46.0137C22.8292 45.8487 22.4636 45.9465 22.3015 46.2338C22.2967 46.2424 22.2918 46.251 22.287 46.2596C22.125 46.5471 22.2307 46.9105 22.5197 47.0695C22.8087 47.2286 23.173 47.1208 23.335 46.8335C23.497 46.5461 23.4007 46.1786 23.115 46.0137Z" fill="#49A942"/>
<path d="M10.8471 39.1457C10.6133 39.0107 10.3142 39.0907 10.1807 39.3254C10.0472 39.56 10.1311 39.8581 10.3666 39.9901L19.0745 44.8728C19.2771 44.9863 19.5332 44.9141 19.648 44.7123C19.7629 44.5105 19.6941 44.2534 19.493 44.1374L10.8471 39.1457Z" fill="#49A942"/>
<path d="M20.5515 50.895C20.2524 50.7556 19.8967 50.8848 19.7603 51.1852C19.7562 51.1942 19.7521 51.2032 19.7481 51.2122C19.6118 51.5126 19.7487 51.8655 20.0505 51.9987C20.3523 52.132 20.7057 51.9929 20.8421 51.6925C20.9784 51.3921 20.8505 51.0344 20.5515 50.895Z" fill="#49A942"/>
<path d="M7.73547 45.125C7.49077 45.0109 7.19977 45.1167 7.08727 45.3621C6.97467 45.6075 7.08427 45.897 7.33047 46.0081L16.4308 50.1132C16.6424 50.2087 16.8913 50.1144 16.9881 49.9034C17.0849 49.6923 16.994 49.4422 16.7835 49.3441L7.73547 45.125Z" fill="#49A942"/>
<path d="M18.4196 55.9864C18.1096 55.8736 17.7665 56.0333 17.6568 56.3445C17.6535 56.3538 17.6502 56.3631 17.6469 56.3724C17.5373 56.6836 17.7045 57.0232 18.0167 57.1296C18.329 57.2361 18.669 57.0667 18.7786 56.7555C18.8883 56.4444 18.7296 56.0993 18.4196 55.9864Z" fill="#49A942"/>
<path d="M5.14957 51.3558C4.89587 51.2634 4.61517 51.3942 4.52447 51.6485C4.43367 51.9028 4.56817 52.1817 4.82297 52.2708L14.2465 55.5672C14.4657 55.6439 14.7054 55.5283 14.7834 55.3096C14.8614 55.0909 14.7491 54.8497 14.5309 54.7703L5.14957 51.3558Z" fill="#49A942"/>
<path d="M16.747 61.2481C16.4283 61.1627 16.1005 61.3517 16.0183 61.6712C16.0158 61.6808 16.0133 61.6902 16.0109 61.6998C15.9289 62.0194 16.1249 62.3432 16.4453 62.422C16.7656 62.5008 17.0896 62.3024 17.1717 61.9828C17.2538 61.6633 17.0657 61.3334 16.747 61.2481Z" fill="#49A942"/>
<path d="M3.117 57.7912C2.8562 57.7213 2.588 57.8761 2.5198 58.1373C2.4515 58.3985 2.6098 58.6647 2.8714 58.7312L12.5464 61.1938C12.7714 61.251 13.0001 61.115 13.0588 60.8904C13.1174 60.6657 12.9845 60.4352 12.7602 60.3751L3.117 57.7912Z" fill="#49A942"/>
<path d="M15.5379 66.6312C15.213 66.5739 14.9028 66.7909 14.8488 67.1163C14.8472 67.1261 14.8456 67.1358 14.8439 67.1456C14.7901 67.4711 15.0136 67.7764 15.3396 67.827C15.6656 67.8777 15.971 67.6517 16.025 67.3263C16.079 67.0008 15.8628 66.6885 15.5379 66.6312Z" fill="#49A942"/>
<path d="M1.66157 64.3737C1.39567 64.3269 1.14197 64.5044 1.09677 64.7705C1.05157 65.0367 1.23237 65.288 1.49887 65.3316L11.3516 66.9415C11.5808 66.9789 11.7968 66.8235 11.8356 66.5946C11.8745 66.3657 11.722 66.1476 11.4933 66.1073L1.66157 64.3737Z" fill="#49A942"/>
<path d="M14.8006 72.1019C14.4719 72.0732 14.1819 72.3163 14.1564 72.6452C14.1556 72.6551 14.1549 72.6649 14.1541 72.6747C14.1288 73.0037 14.3781 73.2884 14.7073 73.3104C15.0365 73.3324 15.3211 73.0808 15.3464 72.7519C15.3718 72.423 15.1292 72.1307 14.8006 72.1019Z" fill="#49A942"/>
<path d="M0.77971 71.0644C0.51071 71.0409 0.27351 71.2398 0.25161 71.5089C0.22981 71.778 0.431911 72.0126 0.701111 72.0328L10.6566 72.7778C10.8882 72.7952 11.0898 72.6215 11.1086 72.3901C11.1274 72.1586 10.9564 71.9547 10.7251 71.9345L0.77971 71.0644Z" fill="#49A942"/>
<path d="M14.5397 77.6162C14.2098 77.6162 13.942 77.8836 13.9453 78.2135C13.9454 78.2234 13.9455 78.2333 13.9456 78.2432C13.9491 78.573 14.2223 78.835 14.5521 78.8282C14.882 78.8214 15.1435 78.546 15.1401 78.2161C15.1368 77.8862 14.8696 77.6162 14.5397 77.6162Z" fill="#49A942"/>
<path d="M0.48731 77.8027C0.21741 77.8027 -0.00169017 78.0216 9.8263e-06 78.2916C0.00170983 78.5616 0.22351 78.7777 0.49341 78.7743L10.476 78.6488C10.7082 78.6459 10.8939 78.4553 10.8925 78.2231C10.891 77.991 10.7029 77.8027 10.4707 77.8027H0.48731Z" fill="#49A942"/>
<path d="M14.8006 72.1019C14.4719 72.0731 14.1819 72.3162 14.1564 72.6451C14.1556 72.655 14.1549 72.6648 14.1541 72.6747C14.1288 73.0036 14.3781 73.2883 14.7073 73.3103C15.0365 73.3324 15.3211 73.0808 15.3464 72.7518C15.3718 72.4229 15.1292 72.1306 14.8006 72.1019Z" fill="#49A942"/>
<path d="M0.77971 71.0634C0.51071 71.0399 0.27351 71.2388 0.25161 71.5079C0.22981 71.777 0.431911 72.0117 0.701111 72.0318L10.6566 72.7769C10.8882 72.7942 11.0898 72.6205 11.1086 72.3891C11.1274 72.1577 10.9564 71.9538 10.7251 71.9335L0.77971 71.0634Z" fill="#49A942"/>
<path d="M14.5436 77.6162C14.2137 77.6162 13.9459 77.8836 13.9492 78.2135C13.9493 78.2234 13.9494 78.2333 13.9495 78.2432C13.953 78.573 14.2262 78.835 14.556 78.8282C14.8859 78.8214 15.1474 78.546 15.144 78.2161C15.1407 77.8862 14.8735 77.6162 14.5436 77.6162Z" fill="#49A942"/>
<path d="M0.491316 77.8027C0.221316 77.8027 0.00221608 78.0216 0.00391608 78.2916C0.00561608 78.5616 0.227416 78.7777 0.497416 78.7743L10.4799 78.6488C10.7121 78.6459 10.8978 78.4553 10.8964 78.2231C10.8949 77.991 10.7068 77.8027 10.4746 77.8027H0.491316Z" fill="#49A942"/>
<path d="M14.5436 77.6162C14.2137 77.6162 13.9459 77.8836 13.9492 78.2135C13.9493 78.2234 13.9494 78.2333 13.9495 78.2432C13.953 78.573 14.2262 78.835 14.556 78.8282C14.8859 78.8214 15.1474 78.546 15.144 78.2161C15.1407 77.8862 14.8735 77.6162 14.5436 77.6162Z" fill="#49A942"/>
<path d="M0.491316 77.8027C0.221316 77.8027 0.00221608 78.0216 0.00391608 78.2916C0.00561608 78.5616 0.227416 78.7777 0.497416 78.7743L10.4799 78.6488C10.7121 78.6459 10.8978 78.4553 10.8964 78.2231C10.8949 77.991 10.7068 77.8027 10.4746 77.8027H0.491316Z" fill="#49A942"/>
<path d="M14.7695 83.1292C14.4408 83.1579 14.1974 83.4478 14.2294 83.7762C14.2304 83.786 14.2314 83.7957 14.2323 83.8055C14.2645 84.1339 14.5595 84.371 14.8875 84.3355C15.2155 84.3 15.452 84.0029 15.4199 83.6746C15.3878 83.3462 15.0981 83.1004 14.7695 83.1292Z" fill="#49A942"/>
<path d="M0.784812 84.5407C0.515812 84.5643 0.316712 84.8014 0.342012 85.0702C0.367212 85.339 0.606912 85.535 0.875612 85.5081L10.8092 84.513C11.0403 84.4899 11.2087 84.2839 11.187 84.0527C11.1653 83.8215 10.9615 83.6504 10.7302 83.6706L0.784812 84.5407Z" fill="#49A942"/>
<path d="M15.4762 88.6019C15.1513 88.6592 14.934 88.9691 14.9945 89.2934C14.9964 89.3031 14.9982 89.3128 15 89.3226C15.0607 89.6468 15.3752 89.8573 15.6989 89.7934C16.0225 89.7295 16.2323 89.4128 16.1716 89.0885C16.111 88.7642 15.8011 88.5446 15.4762 88.6019Z" fill="#49A942"/>
<path d="M1.66082 91.2283C1.39492 91.2752 1.21722 91.5288 1.26582 91.7944C1.31432 92.06 1.57022 92.2343 1.83552 92.1841L11.6447 90.3271C11.8728 90.2839 12.0226 90.0639 11.9809 89.8355C11.9391 89.6071 11.7212 89.4544 11.4925 89.4947L1.66082 91.2283Z" fill="#49A942"/>
<path d="M16.6484 93.9949C16.3297 94.0803 16.1403 94.4079 16.2289 94.7257C16.2315 94.7353 16.2342 94.7448 16.2368 94.7543C16.3256 95.072 16.6572 95.2543 16.9741 95.1624C17.2909 95.0705 17.4723 94.7368 17.3836 94.419C17.295 94.1012 16.9671 93.9095 16.6484 93.9949Z" fill="#49A942"/>
<path d="M3.11946 97.8122C2.85866 97.8821 2.70376 98.1502 2.77526 98.4105C2.84676 98.6709 3.11685 98.8222 3.37675 98.749L12.9868 96.0442C13.2103 95.9813 13.3404 95.7491 13.2789 95.5252C13.2174 95.3013 12.9869 95.1682 12.7627 95.2283L3.11946 97.8122Z" fill="#49A942"/>
<path d="M18.2944 99.2624C17.9843 99.3752 17.8242 99.7182 17.9401 100.027C17.9436 100.036 17.9471 100.046 17.9505 100.055C18.0666 100.364 18.4129 100.516 18.7206 100.397C19.0282 100.278 19.1798 99.9296 19.0638 99.6208C18.9478 99.3119 18.6044 99.1496 18.2944 99.2624Z" fill="#49A942"/>
<path d="M5.15315 104.244C4.89945 104.337 4.76855 104.617 4.86245 104.87C4.95635 105.124 5.23865 105.251 5.49125 105.155L14.8289 101.623C15.0461 101.541 15.1554 101.298 15.0746 101.081C14.9939 100.863 14.7527 100.75 14.5345 100.83L5.15315 104.244Z" fill="#49A942"/>
<path d="M20.3872 104.368C20.0882 104.508 19.9585 104.863 20.1009 105.161C20.1052 105.17 20.1095 105.178 20.1137 105.187C20.2563 105.485 20.6146 105.607 20.9107 105.461C21.2067 105.316 21.3274 104.956 21.1849 104.658C21.0424 104.36 20.6862 104.229 20.3872 104.368Z" fill="#49A942"/>
<path d="M7.73114 110.478C7.48644 110.592 7.38044 110.883 7.49604 111.127C7.61174 111.371 7.90404 111.473 8.14724 111.356L17.1415 107.023C17.3507 106.922 17.4385 106.671 17.339 106.461C17.2396 106.252 16.9895 106.16 16.7791 106.259L7.73114 110.478Z" fill="#49A942"/>
<path d="M22.9231 109.268C22.6374 109.433 22.5393 109.799 22.7071 110.083C22.7121 110.091 22.7171 110.1 22.7221 110.108C22.8901 110.392 23.2576 110.482 23.5399 110.311C23.8222 110.141 23.911 109.771 23.7431 109.487C23.5752 109.203 23.2088 109.103 22.9231 109.268Z" fill="#49A942"/>
<path d="M10.8418 116.459C10.608 116.594 10.5277 116.893 10.6642 117.126C10.8006 117.359 11.1008 117.435 11.3329 117.297L19.9153 112.197C20.1149 112.079 20.1805 111.821 20.0631 111.62C19.9457 111.42 19.6887 111.351 19.4876 111.467L10.8418 116.459Z" fill="#49A942"/>
<path d="M25.8793 113.93C25.6091 114.119 25.5431 114.491 25.7351 114.76C25.7408 114.768 25.7466 114.776 25.7523 114.784C25.9444 115.052 26.3184 115.11 26.5847 114.915C26.851 114.721 26.9073 114.345 26.7153 114.077C26.5233 113.808 26.1496 113.74 25.8793 113.93Z" fill="#49A942"/>
<path d="M14.47 122.146C14.2488 122.301 14.1949 122.606 14.3512 122.826C14.5074 123.046 14.813 123.096 15.0322 122.938L23.1375 117.11C23.326 116.974 23.3689 116.712 23.2345 116.522C23.1001 116.333 22.8381 116.286 22.6479 116.42L14.47 122.146Z" fill="#49A942"/>
<path d="M29.2209 118.324C28.9682 118.536 28.935 118.913 29.1496 119.163C29.156 119.171 29.1624 119.178 29.1689 119.186C29.3836 119.436 29.7612 119.461 30.0095 119.244C30.2579 119.027 30.2812 118.648 30.0665 118.397C29.8519 118.147 29.4737 118.112 29.2209 118.324Z" fill="#49A942"/>
<path d="M18.5729 127.5C18.3661 127.673 18.339 127.982 18.5138 128.187C18.6887 128.393 18.9975 128.416 19.2021 128.24L26.7685 121.727C26.9445 121.576 26.9643 121.31 26.8139 121.133C26.6636 120.957 26.3985 120.933 26.2206 121.082L18.5729 127.5Z" fill="#49A942"/>
<path d="M32.9404 122.4C32.7071 122.634 32.7069 123.012 32.9425 123.243C32.9495 123.25 32.9566 123.257 32.9637 123.264C33.1994 123.495 33.5778 123.487 33.8062 123.249C34.0347 123.011 34.0248 122.631 33.7892 122.4C33.5535 122.169 33.1737 122.167 32.9404 122.4Z" fill="#49A942"/>
<path d="M23.1353 132.473C22.9444 132.664 22.9443 132.974 23.1364 133.164C23.3285 133.353 23.6381 133.349 23.8266 133.156L30.7966 126.008C30.9587 125.842 30.9553 125.576 30.7901 125.413C30.6249 125.25 30.3588 125.25 30.1946 125.414L23.1353 132.473Z" fill="#49A942"/>
<path d="M36.999 126.141C36.787 126.394 36.8197 126.771 37.0746 126.98C37.0822 126.986 37.0898 126.993 37.0974 126.999C37.3524 127.208 37.7286 127.167 37.9355 126.91C38.1423 126.653 38.0994 126.276 37.8445 126.066C37.5896 125.857 37.2111 125.888 36.999 126.141Z" fill="#49A942"/>
<path d="M28.1065 137.03C27.933 137.237 27.9599 137.545 28.1678 137.717C28.3757 137.89 28.6838 137.859 28.8547 137.65L35.1753 129.922C35.3223 129.742 35.2957 129.477 35.1169 129.329C34.9381 129.181 34.673 129.204 34.5237 129.382L28.1065 137.03Z" fill="#49A942"/>
<path d="M41.3658 129.513C41.1766 129.784 41.2421 130.156 41.5142 130.343C41.5224 130.349 41.5305 130.354 41.5387 130.36C41.8109 130.546 42.1821 130.472 42.3658 130.198C42.5494 129.924 42.4738 129.552 42.2016 129.366C41.9295 129.179 41.5551 129.243 41.3658 129.513Z" fill="#49A942"/>
<path d="M33.4595 141.136C33.3046 141.357 33.3583 141.662 33.5804 141.816C33.8026 141.969 34.1068 141.911 34.2588 141.688L39.8819 133.439C40.0126 133.247 39.963 132.986 39.772 132.854C39.581 132.722 39.3189 132.768 39.1857 132.958L33.4595 141.136Z" fill="#49A942"/>
<path d="M46.0098 132.492C45.8449 132.778 45.9426 133.143 46.23 133.305C46.2386 133.31 46.2472 133.315 46.2558 133.32C46.5432 133.482 46.9066 133.376 47.0657 133.087C47.2248 132.798 47.117 132.434 46.8296 132.272C46.5422 132.11 46.1748 132.206 46.0098 132.492Z" fill="#49A942"/>
<path d="M39.1437 144.76C39.0087 144.994 39.0887 145.293 39.3234 145.426C39.558 145.56 39.8561 145.476 39.9881 145.24L44.8708 136.532C44.9843 136.33 44.9121 136.074 44.7103 135.959C44.5085 135.844 44.2514 135.913 44.1353 136.114L39.1437 144.76Z" fill="#49A942"/>
<path d="M46.0098 132.493C45.8449 132.779 45.9426 133.144 46.23 133.306C46.2386 133.311 46.2472 133.316 46.2558 133.321C46.5432 133.483 46.9066 133.377 47.0657 133.088C47.2248 132.799 47.117 132.435 46.8296 132.273C46.5422 132.111 46.1748 132.207 46.0098 132.493Z" fill="#49A942"/>
<path d="M39.1437 144.76C39.0087 144.994 39.0887 145.293 39.3234 145.426C39.558 145.56 39.8561 145.476 39.9881 145.24L44.8708 136.532C44.9843 136.33 44.9121 136.074 44.7103 135.959C44.5085 135.844 44.2514 135.913 44.1353 136.114L39.1437 144.76Z" fill="#49A942"/>
<path d="M50.8959 135.051C50.7565 135.35 50.8857 135.706 51.1861 135.843C51.1951 135.847 51.2041 135.851 51.2131 135.855C51.5135 135.991 51.8663 135.854 51.9996 135.552C52.1329 135.251 51.9938 134.897 51.6934 134.761C51.393 134.624 51.0353 134.752 50.8959 135.051Z" fill="#49A942"/>
<path d="M45.1279 147.871C45.0138 148.116 45.1196 148.407 45.365 148.519C45.6105 148.632 45.9 148.522 46.011 148.276L50.1162 139.176C50.2117 138.964 50.1174 138.715 49.9064 138.619C49.6953 138.522 49.4452 138.613 49.3471 138.823L45.1279 147.871Z" fill="#49A942"/>
<path d="M55.9932 137.183C55.8803 137.493 56.0401 137.836 56.3512 137.946C56.3605 137.949 56.3698 137.952 56.3791 137.956C56.6903 138.065 57.03 137.898 57.1364 137.586C57.2429 137.273 57.0735 136.933 56.7624 136.824C56.4512 136.714 56.106 136.873 55.9932 137.183Z" fill="#49A942"/>
<path d="M51.3616 150.455C51.2693 150.709 51.4 150.989 51.6543 151.08C51.9086 151.171 52.1875 151.036 52.2767 150.782L55.573 141.358C55.6497 141.139 55.5341 140.899 55.3154 140.821C55.0968 140.743 54.8555 140.856 54.7761 141.074L51.3616 150.455Z" fill="#49A942"/>
<path d="M61.251 138.857C61.1656 139.176 61.3547 139.504 61.6742 139.586C61.6837 139.588 61.6933 139.591 61.7029 139.593C62.0224 139.675 62.3461 139.479 62.425 139.159C62.5038 138.838 62.3054 138.515 61.9859 138.432C61.6664 138.35 61.3364 138.538 61.251 138.857Z" fill="#49A942"/>
<path d="M57.7902 152.483C57.7203 152.744 57.875 153.012 58.1363 153.08C58.3975 153.148 58.6636 152.99 58.7302 152.728L61.1927 143.053C61.25 142.828 61.114 142.6 60.8893 142.541C60.6647 142.482 60.4342 142.615 60.3741 142.84L57.7902 152.483Z" fill="#49A942"/>
<path d="M66.6342 140.066C66.5769 140.391 66.7938 140.701 67.1193 140.755C67.129 140.757 67.1388 140.759 67.1485 140.76C67.474 140.814 67.7794 140.591 67.83 140.265C67.8806 139.939 67.6548 139.633 67.3293 139.579C67.0038 139.525 66.6915 139.742 66.6342 140.066Z" fill="#49A942"/>
<path d="M64.3786 153.943C64.3317 154.208 64.5092 154.462 64.7754 154.507C65.0416 154.553 65.2929 154.372 65.3365 154.105L66.9464 144.253C66.9838 144.023 66.8284 143.807 66.5995 143.769C66.3706 143.73 66.1525 143.882 66.1122 144.111L64.3786 153.943Z" fill="#49A942"/>
<path d="M72.1078 140.803C72.079 141.132 72.3221 141.422 72.651 141.447C72.6609 141.448 72.6707 141.449 72.6806 141.45C73.0095 141.475 73.2942 141.226 73.3163 140.896C73.3383 140.567 73.0867 140.283 72.7577 140.257C72.4288 140.232 72.1365 140.474 72.1078 140.803Z" fill="#49A942"/>
<path d="M71.0683 154.822C71.0448 155.091 71.2437 155.328 71.5128 155.35C71.7819 155.372 72.0165 155.17 72.0367 154.9L72.7817 144.945C72.7991 144.713 72.6254 144.512 72.394 144.493C72.1626 144.474 71.9586 144.645 71.9384 144.876L71.0683 154.822Z" fill="#49A942"/>
<path d="M77.6211 141.058C77.6211 141.388 77.8886 141.656 78.2185 141.653C78.2284 141.653 78.2382 141.653 78.2481 141.653C78.578 141.649 78.8399 141.376 78.8332 141.046C78.8264 140.716 78.5509 140.455 78.2211 140.458C77.8912 140.461 77.6211 140.729 77.6211 141.058Z" fill="#49A942"/>
<path d="M77.8047 155.116C77.8047 155.386 78.0236 155.605 78.2936 155.603C78.5635 155.602 78.7796 155.38 78.7763 155.11L78.6508 145.127C78.6479 144.895 78.4573 144.709 78.2251 144.711C77.9929 144.712 77.8047 144.901 77.8047 145.133V155.116Z" fill="#49A942"/>
<path d="M83.1312 140.835C83.16 141.163 83.4497 141.407 83.7781 141.375C83.7879 141.374 83.7977 141.373 83.8076 141.372C84.1359 141.34 84.373 141.045 84.3375 140.717C84.302 140.389 84.0049 140.152 83.6765 140.184C83.3482 140.216 83.1024 140.506 83.1312 140.835Z" fill="#E9EDF0"/>
<path d="M84.5436 154.821C84.5671 155.09 84.8043 155.289 85.0731 155.264C85.3419 155.239 85.5378 154.999 85.5109 154.731L84.5159 144.797C84.4928 144.566 84.2867 144.397 84.0555 144.419C83.8244 144.441 83.6532 144.645 83.6735 144.876L84.5436 154.821Z" fill="#E9EDF0"/>
<path d="M88.6069 140.13C88.6639 140.455 88.9739 140.672 89.2979 140.612C89.3079 140.61 89.3179 140.608 89.3269 140.606C89.6509 140.545 89.8619 140.231 89.7979 139.907C89.7339 139.584 89.4169 139.374 89.0929 139.434C88.7689 139.495 88.5489 139.805 88.6069 140.13Z" fill="#E9EDF0"/>
<path d="M91.2287 153.94C91.2757 154.206 91.5287 154.384 91.7947 154.335C92.0597 154.287 92.2347 154.031 92.1837 153.765L90.3267 143.956C90.2837 143.728 90.0637 143.578 89.8357 143.62C89.6067 143.662 89.4547 143.88 89.4947 144.108L91.2287 153.94Z" fill="#E9EDF0"/>
<path d="M93.9968 138.954C94.0818 139.273 94.4098 139.462 94.7278 139.374C94.7368 139.371 94.7468 139.368 94.7558 139.366C95.0738 139.277 95.2558 138.945 95.1648 138.629C95.0728 138.312 94.7388 138.13 94.4208 138.219C94.1028 138.308 93.9118 138.636 93.9968 138.954Z" fill="#E9EDF0"/>
<path d="M97.8132 152.484C97.8832 152.744 98.1512 152.899 98.4112 152.828C98.6722 152.756 98.8232 152.486 98.7502 152.226L96.0452 142.616C95.9822 142.393 95.7502 142.263 95.5262 142.324C95.3022 142.386 95.1692 142.616 95.2292 142.84L97.8132 152.484Z" fill="#E9EDF0"/>
<path d="M99.2621 137.309C99.3751 137.619 99.7181 137.779 100.027 137.663C100.036 137.66 100.045 137.656 100.055 137.653C100.364 137.537 100.516 137.19 100.397 136.883C100.278 136.575 99.9301 136.423 99.6211 136.54C99.3121 136.656 99.1501 136.999 99.2621 137.309Z" fill="#49A942"/>
<path d="M104.248 150.453C104.34 150.706 104.621 150.837 104.874 150.743C105.127 150.649 105.254 150.367 105.159 150.115L101.627 140.777C101.545 140.56 101.302 140.451 101.084 140.531C100.867 140.612 100.754 140.853 100.834 141.071L104.248 150.453Z" fill="#49A942"/>
<path d="M104.369 135.214C104.508 135.513 104.864 135.642 105.161 135.5C105.17 135.496 105.179 135.491 105.188 135.487C105.486 135.345 105.608 134.986 105.462 134.69C105.316 134.394 104.956 134.274 104.659 134.416C104.361 134.558 104.229 134.915 104.369 135.214Z" fill="#49A942"/>
<path d="M110.478 147.875C110.592 148.12 110.883 148.226 111.127 148.11C111.371 147.994 111.473 147.702 111.355 147.459L107.023 138.465C106.922 138.255 106.671 138.168 106.461 138.267C106.251 138.367 106.16 138.617 106.258 138.827L110.478 147.875Z" fill="#49A942"/>
<path d="M109.271 132.676C109.436 132.962 109.801 133.06 110.085 132.892C110.094 132.887 110.102 132.882 110.111 132.877C110.395 132.709 110.485 132.341 110.314 132.059C110.143 131.777 109.774 131.688 109.49 131.856C109.206 132.024 109.106 132.39 109.271 132.676Z" fill="#49A942"/>
<path d="M116.458 144.757C116.593 144.99 116.893 145.071 117.126 144.934C117.359 144.798 117.435 144.498 117.297 144.266L112.197 135.683C112.078 135.484 111.819 135.418 111.619 135.535C111.419 135.653 111.35 135.91 111.466 136.111L116.458 144.757Z" fill="#49A942"/>
<path d="M85.6719 72.6089V71.4901C85.6719 68.9314 87.3812 66.7871 90.3233 66.7871C93.3683 66.7871 94.9743 68.9314 94.9743 71.4901V72.6089C94.9743 75.1676 93.3273 77.2809 90.3233 77.2809C87.2983 77.2809 85.6719 75.1366 85.6719 72.6089ZM89.7223 88.7277H87.029L101.614 67.5122H104.308L89.7223 88.7277ZM88.6763 71.4901V72.6089C88.6763 73.6241 89.0903 74.66 90.3233 74.66C91.5973 74.66 91.9703 73.6241 91.9703 72.6089V71.4901C91.9703 70.475 91.6383 69.408 90.3233 69.408C89.0803 69.408 88.6763 70.4957 88.6763 71.4901ZM96.5593 84.7498V83.631C96.5593 81.1034 98.2273 78.928 101.2 78.928C104.235 78.928 105.851 81.0723 105.851 83.631V84.7498C105.851 87.2774 104.194 89.4529 101.2 89.4529C98.1853 89.4529 96.5593 87.2774 96.5593 84.7498ZM99.5323 83.631V84.7498C99.5323 85.7443 99.9363 86.8009 101.2 86.8009C102.464 86.8009 102.857 85.765 102.857 84.7498V83.631C102.857 82.6158 102.505 81.5489 101.2 81.5489C99.9463 81.5489 99.5323 82.6158 99.5323 83.631Z" fill="#020407"/>
<path d="M73.1203 88.7272H68.5622L77.5022 71.2721V71.1271H67.1016V67.5117H82.0705V71.1892L73.1203 88.7272Z" fill="#020407"/>
<path d="M56.8018 67.2218C61.1837 67.2425 65.3377 69.853 65.3585 77.5602C65.3688 84.7805 61.9399 89.0174 56.6257 89.0174C52.3474 89.0174 49.4261 86.3447 48.9911 82.7605H53.3315C53.6941 84.3143 54.9061 85.2363 56.6257 85.2363C59.4952 85.2363 61.0283 82.6465 61.0491 78.42H60.8522C59.8681 80.2846 57.7756 81.4034 55.4241 81.4034C51.6119 81.4034 48.7839 78.5339 48.7735 74.5768C48.7632 70.3088 51.9952 67.2011 56.8018 67.2218ZM56.8225 70.6921C54.6471 70.6921 53.0415 72.3495 53.0622 74.4524C53.0725 76.5553 54.6161 78.1817 56.7915 78.1817C58.9358 78.1817 60.5933 76.4725 60.5829 74.4317C60.5725 72.4117 58.9876 70.6921 56.8225 70.6921Z" fill="#020407"/>
</svg>
