<svg width="88" height="32" viewBox="0 0 88 32" fill="none" xmlns="http://www.w3.org/2000/svg">
<path d="M7.32271 31.541H-0.000496238V0.424992H7.32271V12.9899H19.7965V0.424992H27.1349V31.541H19.7965V18.9609H7.32271V31.541ZM31.8393 0.424992H44.5714C51.5755 0.424992 55.8905 4.80068 55.8905 11.1515C55.8905 17.5631 51.4844 21.8021 44.3587 21.8021H39.1626V31.541H31.8393V0.424992ZM39.1626 15.9982H43.0217C46.4706 15.9982 48.2938 14.0686 48.2938 11.1515C48.2938 8.21919 46.4706 6.3656 43.0217 6.3656H39.1626V15.9982ZM87.6315 11.6377H80.2172C79.8221 8.44709 77.5128 6.44157 74.0487 6.44157C69.4603 6.44157 66.6495 9.93604 66.6495 15.983C66.6495 22.2579 69.521 25.5244 74.0031 25.5244C77.3608 25.5244 79.6702 23.7164 80.2172 20.6626L87.6315 20.7081C87.039 26.2537 82.2987 31.9664 73.8663 31.9664C65.4492 31.9664 59.1592 26.2081 59.1592 15.983C59.1592 5.72748 65.586 -0.000422955 73.8663 -0.000422955C81.3263 -0.000422955 86.8415 4.22333 87.6315 11.6377Z" fill="#49A942"/>
</svg>
