<svg width="475" height="129" viewBox="0 0 475 129" fill="none" xmlns="http://www.w3.org/2000/svg">
<path d="M431.786 49.4824C431.488 52.3146 429.252 54.4015 426.419 54.4015C423.587 54.4015 421.649 52.3146 421.947 49.4824C422.246 46.6501 424.482 44.5632 427.314 44.5632C430.146 44.5632 432.084 46.6501 431.786 49.4824ZM430.444 41.1346H424.631L424.78 15.6442H434.916L430.444 41.1346Z" fill="black"/>
<path d="M456.68 118.351L455.935 125.506H415.687L416.283 118.351H432.531L432.829 113.73H418.966L420.457 97.6309H448.481L448.78 94.7986H420.606L421.202 87.9415H457.127L455.786 104.19H427.612L427.463 106.873H455.935L455.338 113.73H440.879L440.432 118.351H456.68Z" fill="black"/>
<path d="M388.854 117.755C392.581 117.755 396.755 117.159 399.289 115.966L398.693 123.121C396.159 124.314 391.836 125.059 387.96 125.059H372.159L375.588 87.7925H383.637L380.954 117.755H388.854ZM414.345 109.258H409.724L408.084 126.848H400.184L403.761 87.0472H411.662L410.32 101.656H414.941L414.345 109.258Z" fill="black"/>
<path d="M346.818 91.8172H355.613L355.017 98.9725H329.228L329.825 91.8172H338.769L339.216 86.8981H347.265L346.818 91.8172ZM352.334 112.985C351.737 120.14 346.818 125.357 339.663 125.357C332.508 125.357 328.632 119.991 329.228 112.985C329.825 105.979 334.744 100.612 341.899 100.612C349.054 100.612 353.079 105.979 352.334 112.985ZM344.88 112.985C345.178 109.556 343.837 107.32 341.303 107.32C338.769 107.32 336.98 109.556 336.682 112.985C336.384 116.413 337.725 118.649 340.259 118.649C342.942 118.649 344.582 116.413 344.88 112.985ZM369.476 109.258H364.855L363.216 126.848H355.315L358.893 87.0472H366.793L365.452 101.656H370.073L369.476 109.258Z" fill="black"/>
<path d="M217.726 1.93004L214.297 5.35855L215.49 54.2525H202.223L201.18 12.0666H199.987L191.639 54.2525H178.521L188.807 1.93004H217.726ZM245.601 0.737521L240.831 5.50767L236.508 54.8487H222.198L224.285 30.6999H215.937L216.832 20.4143H225.179L226.968 0.737521H245.601Z" fill="#E6002D"/>
<path d="M248.881 87.1962H256.185L252.608 126.103H245.303L246.794 109.705H243.962C242.471 120.885 238.595 125.357 232.931 125.357C226.67 125.357 223.689 119.991 224.881 106.426C226.074 92.8608 230.099 87.4944 236.359 87.4944C242.024 87.4944 244.856 91.6682 244.558 102.252H247.39L248.881 87.1962ZM237.105 106.426C237.85 98.2272 237.552 94.6496 235.763 94.6496C233.974 94.6496 233.08 98.2272 232.185 106.426C231.44 114.625 231.738 118.202 233.527 118.202C235.316 118.202 236.359 114.774 237.105 106.426ZM266.322 87.0472L262.744 126.848H255.44L259.017 87.0472H266.322Z" fill="black"/>
<path d="M211.614 105.233L206.844 110.003L205.205 128.041H152.584L154.671 105.233H211.614ZM155.416 74.3765H169.727L168.087 92.5626L188.956 91.0719L188.211 99.5687L152.882 102.103L155.416 74.3765ZM167.043 119.544H192.236L192.832 113.432H167.64L167.043 119.544ZM214.298 73.7802L209.527 78.5504L209.08 83.4695H221.006L211.913 92.5626H208.186L207.291 103.146H192.981L195.515 73.7802H214.298Z" fill="#6B1685"/>
<path d="M120.535 105.979L120.386 108.96H144.236L139.615 113.581C139.764 114.475 139.913 115.519 139.764 116.562L139.466 120.289C139.168 122.674 138.423 124.612 136.783 125.805C135.292 127.146 133.205 127.742 130.671 127.742H92.2121C89.6779 127.742 87.7401 127.146 86.3985 125.805C85.0569 124.463 84.6097 122.674 84.7587 120.289L85.0569 116.562C85.2059 114.177 86.1003 112.239 87.591 110.898C89.0817 109.556 91.1686 108.811 93.7027 108.811H105.777L105.926 105.83H85.2059L85.9512 96.8856H146.025L137.081 105.83H120.535V105.979ZM146.92 76.3144L138.274 84.9602H133.056L141.404 94.7986H125.752L117.553 84.9602H113.38L102.945 94.7986H87.2929L97.7276 84.9602H88.4854L89.2307 76.3144H108.908L109.206 73.1839H123.516L123.218 76.3144H146.92ZM124.858 116.562H99.6654C98.771 116.562 98.3238 117.159 98.1747 118.202C98.0257 119.246 98.4729 119.842 99.5163 119.842H124.709C125.603 119.842 126.05 119.246 126.199 118.202C126.348 117.159 125.901 116.562 124.858 116.562Z" fill="#6B1685"/>
<path d="M470.842 121.929C470.543 124.761 468.308 126.848 465.475 126.848C462.643 126.848 460.705 124.761 461.003 121.929C461.301 119.096 463.537 117.01 466.37 117.01C469.202 117.01 471.14 119.096 470.842 121.929ZM469.649 113.581H463.835L463.985 88.0906H474.121L469.649 113.581Z" fill="black"/>
<path d="M402.27 35.1719L401.972 38.6005H415.836L414.345 54.4015H378.718L380.209 38.6005H394.072L394.37 35.1719H378.122L378.718 28.762H418.966L418.37 35.1719H402.27ZM389.898 20.8615H381.401L381.997 14.4517H398.246L397.053 27.1223H389.302L389.898 20.8615ZM407.488 44.5632H387.364L387.066 48.2898H407.19L407.488 44.5632ZM409.724 20.8615H399.438L400.034 14.4517H418.072L416.879 27.1223H409.128L409.724 20.8615Z" fill="black"/>
<path d="M336.532 52.4637H318.644L319.389 45.1594H337.576C341.302 45.1594 345.476 44.7122 348.01 43.5197L347.414 50.8239C344.731 52.0164 340.408 52.4637 336.532 52.4637ZM347.414 27.7186C346.669 35.47 340.855 40.6874 333.551 40.6874C326.098 40.6874 321.327 35.6191 322.073 27.7186C322.818 19.9671 328.632 14.7498 335.936 14.7498C343.24 14.8989 348.159 19.9671 347.414 27.7186ZM329.675 27.7186C329.377 31.1471 331.166 33.5322 334.296 33.5322C337.427 33.5322 339.663 30.998 339.961 27.7186C340.259 24.29 338.47 21.905 335.34 21.905C332.06 21.905 329.973 24.4391 329.675 27.7186ZM357.103 54.4015H349.203L352.78 14.6007H360.681L357.103 54.4015Z" fill="black"/>
<path d="M286.148 1.93004L282.719 5.35855L284.806 32.7869H271.539L269.751 11.1722H267.067L261.552 32.7869H248.285L256.186 1.93004H286.148ZM308.508 45.6066L299.266 54.8487H250.074L251.565 36.8117H265.875L265.13 45.7557H308.508V45.6066ZM311.937 0.737521L307.166 5.50767L306.57 13.2592H318.794L309.253 22.7994H305.676L304.334 37.557H290.024L293.154 0.886551H311.937V0.737521Z" fill="#E6002D"/>
<path d="M287.191 102.401L297.03 120.736L289.874 124.91L283.464 112.389C279.44 120.438 274.073 124.91 267.961 125.059L268.707 116.861C274.819 116.115 279.887 104.488 281.527 87.9415L289.576 88.2397C289.129 93.308 288.235 98.2272 287.191 102.401ZM310.296 87.0472L306.719 126.848H298.818L300.607 107.32H292.259L293.005 100.016H301.352L302.545 87.1962H310.296V87.0472Z" fill="black"/>
<path d="M154.671 39.793H114.423L115.019 33.234H155.267L154.671 39.793ZM124.112 47.8426H152.137L151.54 54.4015H115.466L116.659 42.029H124.708L124.112 47.8426ZM126.199 23.9919H154.075L153.478 30.5509H117.702L119.193 14.3026H127.093L126.199 23.9919Z" fill="black"/>
<path d="M108.609 53.0599H68.3613L69.1066 45.7557H109.355L108.609 53.0599ZM90.125 22.7994H80.7338L79.8394 32.7869H89.3797L88.7835 40.0912H71.3426L73.5786 15.4952H90.7213L90.125 22.7994ZM109.355 22.7994H99.6653L98.7709 32.7869H108.907L108.311 40.0912H90.4231L92.6591 15.4952H110.1L109.355 22.7994Z" fill="black"/>
<path d="M27.2188 44.7122C26.9207 47.8426 25.7282 50.2277 23.6412 52.0165C21.5543 53.8053 18.8711 54.8487 15.5917 54.8487H10.5234C7.2439 54.8487 4.70978 53.9544 2.92098 52.0165C1.13218 50.2277 0.386846 47.6935 0.684979 44.7122L2.02657 28.3149C2.3247 25.1845 3.51723 22.7994 5.60416 20.8615C7.6911 18.9237 10.3743 18.0292 13.6538 18.0292H18.722C22.0015 18.0292 24.3866 18.9237 26.1754 20.8615C27.9642 22.7994 28.7095 25.1845 28.5605 28.3149L27.2188 44.7122ZM24.2375 -0.0078125L23.7903 4.61322H31.6908L30.7965 14.7498H2.02657L2.92098 4.61322H11.7159L12.1631 -0.0078125H24.2375ZM16.7842 43.9669L18.1258 28.762C18.1258 28.3148 18.1258 28.0167 17.8277 27.7186C17.5295 27.4204 17.2314 27.2714 16.7842 27.2714H14.8463C14.3991 27.2714 14.101 27.4204 13.8028 27.7186C13.5047 28.0167 13.3557 28.3148 13.3557 28.762L12.014 43.9669C12.014 44.4141 12.014 44.7122 12.3122 45.0104C12.6103 45.3085 12.9085 45.4575 13.3557 45.4575H15.2935C15.7407 45.4575 16.0389 45.3085 16.337 45.0104C16.4861 44.5632 16.6351 44.265 16.7842 43.9669ZM66.4234 0.737521L61.6533 5.50767L57.3303 54.8487H45.2559L47.3428 31.2962H43.318L41.2311 54.8487H29.6039L34.374 0.737521H46.0013L44.2125 20.8615H48.2373L50.0261 0.737521H66.4234Z" fill="#E6002D"/>
</svg>
