<svg width="182" height="178" viewBox="0 0 182 178" fill="none" xmlns="http://www.w3.org/2000/svg">
<path d="M110.704 65.0672C100.558 69.9519 87.5952 84.7939 85.3407 98.3207C84.4013 103.957 84.7771 108.466 86.6558 110.72C87.4073 111.848 88.5345 112.411 90.0375 112.599C93.4192 112.975 95.8616 110.345 98.4918 107.339C101.31 104.145 104.316 100.763 109.013 100.763C109.764 100.763 110.704 100.951 111.455 101.139C114.649 101.89 116.903 104.896 117.279 109.217C118.219 118.423 107.322 138.338 78.7651 146.792C108.637 146.792 134.563 128.568 143.957 108.654C156.92 81.6 142.83 66.5702 131.745 63.1885C129.303 62.437 126.673 62.0612 123.855 62.0612C119.909 61.8733 115.213 62.8127 110.704 65.0672Z" fill="url(#paint0_linear_1362_39844)"/>
<path d="M46.6387 60.3703C33.6754 81.0363 29.1665 102.266 34.6148 118.423C37.9965 128.756 45.3236 136.271 55.4687 140.216C62.7958 143.034 75.5712 144.537 86.6557 138.901C100.183 132.138 106.382 120.114 107.885 113.538C108.261 112.223 108.073 111.284 107.885 111.284C107.51 111.096 106.946 111.66 105.255 113.726C103.564 115.793 98.4917 121.241 93.0434 122.368C85.3406 123.871 79.3286 120.49 76.3227 113.726C72.9409 106.211 71.438 87.2361 90.4132 65.0671C104.316 48.91 110.516 32.7529 108.449 17.723C107.134 8.893 103.376 3.06893 101.873 0.814453C78.9529 19.6018 57.9111 42.3344 46.6387 60.3703Z" fill="url(#paint1_linear_1362_39844)"/>
<path d="M122.915 53.419C124.982 53.419 127.048 52.6675 128.551 51.1645C129.491 50.2251 130.806 48.3464 130.806 45.7162C130.806 41.2072 127.8 35.7589 121.6 29.5591C120.661 32.9408 119.346 35.3831 118.031 37.6376C116.528 40.4557 115.212 42.5223 115.212 45.7162C115.4 51.3524 119.909 53.419 122.915 53.419Z" fill="#382577"/>
<path d="M7.18482 173.094C8.12419 172.343 8.87568 171.591 9.4393 171.028C10.0029 170.464 10.5665 169.712 10.9423 169.149C12.2574 167.27 13.0089 165.579 13.0089 163.701C13.0089 161.822 12.4453 160.319 11.1302 159.379C9.81505 158.44 8.31206 157.876 6.6212 157.876C4.36673 157.876 2.48799 158.628 0.797135 159.943L0.609261 160.131L2.11224 163.513L2.48799 163.137C3.8031 162.198 4.93034 161.634 6.05758 161.634C7.93631 161.634 8.87568 162.385 8.87568 164.264C8.87568 165.391 7.74844 167.646 2.67587 172.343L0.421387 174.409V177.227H13.3846V173.47H6.80907L7.18482 173.094Z" fill="#1D2A75"/>
<path d="M21.6515 157.876C19.2092 157.876 17.3304 159.004 16.0153 161.258C15.0759 162.949 14.7002 165.204 14.7002 167.834C14.7002 170.276 15.0759 172.531 16.0153 174.221C17.1425 176.476 19.0213 177.603 21.4636 177.603C24.0939 177.603 25.9726 176.476 27.0998 174.221C28.0392 172.531 28.4149 170.276 28.4149 167.646C28.4149 165.016 28.0392 162.949 27.0998 161.258C25.7847 158.816 24.0939 157.876 21.6515 157.876ZM21.4636 173.846C20.3364 173.846 19.7728 173.094 19.2092 171.591C18.8334 170.652 18.8334 169.149 18.8334 167.646C18.8334 166.143 19.0213 164.828 19.2092 163.701C19.5849 162.198 20.3364 161.446 21.4636 161.446C23.1545 161.446 24.0939 163.513 24.0939 167.646C24.0939 171.779 23.1545 173.846 21.4636 173.846Z" fill="#1D2A75"/>
<path d="M36.1174 173.094C37.0568 172.343 37.8083 171.591 38.3719 171.028C38.9355 170.464 39.4992 169.712 39.8749 169.149C41.19 167.27 41.9415 165.579 41.9415 163.701C41.9415 161.822 41.3779 160.319 40.0628 159.379C38.7477 158.44 37.2447 157.876 35.5538 157.876C33.2993 157.876 31.4206 158.628 29.7298 159.943L29.5419 160.131L31.0449 163.513L31.4206 163.137C32.7357 162.198 33.863 161.634 34.9902 161.634C36.8689 161.634 37.8083 162.385 37.8083 164.264C37.8083 165.391 36.6811 167.646 31.6085 172.343L29.354 174.409V177.227H42.3173V173.47H35.7417L36.1174 173.094Z" fill="#1D2A75"/>
<path d="M51.523 164.076C50.2079 164.076 49.2685 164.264 48.3292 164.828C48.7049 164.264 49.0806 163.701 49.6443 163.137C50.5836 162.198 51.8987 161.822 53.4017 161.634C53.5896 161.634 53.7775 161.634 53.9654 161.634C54.1532 161.634 54.3411 161.634 54.3411 161.634H55.6562V157.876H54.9047C54.7168 157.876 54.529 157.876 54.3411 157.876C54.1532 157.876 53.7775 157.876 53.4017 158.064C50.7715 158.252 48.517 159.192 46.8262 160.882C44.5717 162.949 43.6323 165.955 43.6323 169.337C43.6323 171.779 44.1959 173.658 45.5111 175.161C46.8262 176.852 48.7049 177.603 50.9594 177.603C52.8381 177.603 54.529 176.852 55.8441 175.537C57.1592 174.221 57.7228 172.531 57.7228 170.464C57.7228 168.585 57.1592 167.082 56.032 165.955C54.9047 164.64 53.4017 164.076 51.523 164.076ZM52.6502 172.906C52.2745 173.47 51.523 173.846 50.7715 173.846C49.8321 173.846 49.0806 173.47 48.517 172.718C48.1413 171.967 47.7655 171.028 47.7655 170.088C47.7655 169.525 47.7655 169.337 47.9534 169.337C48.517 168.209 49.4564 167.646 50.5836 167.646C51.523 167.646 52.0866 168.022 52.6502 168.585C53.026 169.149 53.4017 169.9 53.4017 170.84C53.4017 171.591 53.026 172.343 52.6502 172.906Z" fill="#1D2A75"/>
<path d="M71.2492 169.712H74.631V173.47C74.2552 173.658 73.5037 173.658 72.3765 173.658C66.9282 173.658 66.3645 169.149 66.3645 167.27C66.3645 166.331 66.9282 161.446 72.0007 161.07C74.4431 160.882 76.1339 161.446 76.8854 161.822L78.3884 158.44L78.0127 158.252C76.6976 157.501 75.0067 157.313 72.7522 157.313C65.613 157.313 62.0435 162.197 62.0435 167.646C62.0435 174.597 67.4918 177.603 72.3765 177.603C74.4431 177.603 76.5097 177.227 78.5763 176.476L78.7642 176.288V165.955H71.2492V169.712Z" fill="#1D2A75"/>
<path d="M159.738 169.901C159.738 171.216 159.55 172.155 159.174 172.719C158.798 173.282 158.047 173.658 157.108 173.658C156.544 173.658 155.792 173.47 155.041 173.282L154.665 173.094L154.102 176.664L154.477 176.852C155.229 177.228 156.356 177.416 157.483 177.416C161.804 177.416 164.059 174.973 164.059 170.276V157.501H159.926V169.901H159.738Z" fill="#1D2A75"/>
<path d="M177.21 157.501V168.773C177.21 172.155 176.083 173.846 173.641 173.846C171.386 173.846 170.259 172.155 170.259 168.773V157.501H166.126V168.773C166.126 174.597 168.568 177.416 173.641 177.416C176.271 177.416 178.15 176.664 179.653 174.973C180.968 173.47 181.532 171.404 181.532 168.773V157.501H177.21Z" fill="#1D2A75"/>
<path d="M98.6791 157.501L95.861 169.713L92.855 157.501H89.6612L86.6552 169.713L83.8371 157.501H79.3281L84.2128 177.228H88.5339L91.352 165.767L94.1701 177.228H98.3033L103.188 157.501H98.6791Z" fill="#1D2A75"/>
<path d="M106.945 157.501L100.558 177.04H104.879L106.57 171.779H112.018L113.709 177.04H118.03L111.642 157.501H106.945ZM107.697 168.21L109.2 163.137L110.703 168.21H107.697Z" fill="#1D2A75"/>
<path d="M130.618 169.525L123.479 157.501H119.158V177.228H123.291V164.64L130.618 177.228H134.563V157.501H130.618V169.525Z" fill="#1D2A75"/>
<path d="M145.647 169.712H149.029V173.47C148.653 173.658 147.902 173.658 146.774 173.658C141.326 173.658 140.762 169.149 140.762 167.27C140.762 166.331 141.326 161.446 146.399 161.07C148.841 160.882 150.532 161.446 151.283 161.822L152.786 158.44L152.411 158.252C151.096 157.501 149.405 157.313 147.15 157.313C140.011 157.313 136.441 162.197 136.441 167.646C136.441 174.597 141.89 177.603 146.774 177.603C148.841 177.603 150.908 177.227 152.974 176.476L153.162 176.288V165.955H145.647V169.712Z" fill="#1D2A75"/>
<defs>
<linearGradient id="paint0_linear_1362_39844" x1="104.357" y1="127.02" x2="132.504" y2="60.5255" gradientUnits="userSpaceOnUse">
<stop stop-color="#E62B84"/>
<stop offset="1" stop-color="#1D2088"/>
</linearGradient>
<linearGradient id="paint1_linear_1362_39844" x1="96.1408" y1="41.2968" x2="57.3137" y2="132.728" gradientUnits="userSpaceOnUse">
<stop stop-color="#891080"/>
<stop offset="0.8384" stop-color="#1D2088"/>
</linearGradient>
</defs>
</svg>
