<svg width="147" height="106" viewBox="0 0 147 106" fill="none" xmlns="http://www.w3.org/2000/svg">
<path d="M9.90636 64.2901C5.2344 64.2901 1.89877 61.7314 1.82625 58.0331H6.27031C6.34283 59.5974 7.87598 60.6436 9.91672 60.6436C12.03 60.6436 13.5424 59.4731 13.5321 57.7638C13.5424 56.0338 12.0093 54.8115 9.51272 54.8115H7.54449V51.5483H9.51272C11.6156 51.5483 13.0763 50.4088 13.0659 48.7307C13.0763 47.1146 11.8228 46.0062 9.9478 46.0062C8.0728 46.0062 6.53965 47.0525 6.4775 48.6789H2.25098C2.32349 45.0325 5.61769 42.4945 9.96852 42.4945C14.3815 42.4945 17.3338 45.1153 17.3131 48.4613C17.3338 50.8439 15.6764 52.5325 13.2834 52.9572V53.1229C16.4119 53.5062 18.1315 55.4019 18.1108 58.0539C18.1315 61.6796 14.6819 64.2901 9.90636 64.2901ZM29.0665 64.2901C24.3946 64.2901 21.0589 61.7314 20.9864 58.0331H25.4305C25.503 59.5974 27.0361 60.6436 29.0769 60.6436C31.1901 60.6436 32.7026 59.4731 32.6922 57.7638C32.7026 56.0338 31.1694 54.8115 28.6729 54.8115H26.7046V51.5483H28.6729C30.7758 51.5483 32.2364 50.4088 32.2261 48.7307C32.2364 47.1146 30.983 46.0062 29.108 46.0062C27.233 46.0062 25.6998 47.0525 25.6377 48.6789H21.4111C21.4836 45.0325 24.7778 42.4945 29.1287 42.4945C33.5417 42.4945 36.494 45.1153 36.4733 48.4613C36.494 50.8439 34.8365 52.5325 32.4436 52.9572V53.1229C35.572 53.5062 37.2917 55.4019 37.2709 58.0539C37.2917 61.6796 33.8421 64.2901 29.0665 64.2901ZM59.0209 50.212V40.0186H62.5948V66.7037H59.0209V53.2576H56.6176V65.471H53.0851V40.433H56.6176V50.212H59.0209ZM43.7619 48.4199H47.3979V42.4012H50.8579V60.3743H40.2398V42.4012H43.7619V48.4199ZM43.7619 57.3805H47.3979V51.3515H43.7619V57.3805Z" fill="#020407"/>
<g clip-path="url(#clip0_632_2043)">
<path d="M98.5705 74.9937L98.6443 74.9937L98.6443 51.9244L98.6443 35.6053L86.3154 35.6053L116.658 -1.3263e-06L147 35.6053L134.671 35.6053L134.671 55.7817C134.671 85.6753 112.966 105.926 83.2148 105.926C74.7248 105.926 70 104.665 70 104.665C86.4631 102.662 97.4631 90.571 98.5705 74.9937Z" fill="url(#paint0_linear_632_2043)"/>
</g>
<defs>
<linearGradient id="paint0_linear_632_2043" x1="108.503" y1="-1.68278e-06" x2="108.503" y2="105.999" gradientUnits="userSpaceOnUse">
<stop offset="0.00537634" stop-color="#49A942"/>
<stop offset="0.9946" stop-color="#9AE994"/>
</linearGradient>
<clipPath id="clip0_632_2043">
<rect width="106" height="77" fill="white" transform="translate(147) rotate(90)"/>
</clipPath>
</defs>
</svg>
