<svg width="503" height="62" viewBox="0 0 503 62" fill="none" xmlns="http://www.w3.org/2000/svg">
<path d="M446.105 61.2505H440.237V19.6646H446.105V61.2505ZM487.306 61.2505H481.064V38.3276H473.198V32.4409H481.188V19.6646H487.306V61.2505ZM437.74 59.3716H431.622V40.8335H428.25C428.126 43.8395 427.501 46.4696 426.502 48.7241C425.504 50.8535 424.38 52.4821 423.006 53.3589C421.633 54.3607 420.135 54.737 418.637 54.6118C417.014 54.4866 415.64 53.8601 414.267 52.7329C412.894 51.6057 411.895 49.8519 411.021 47.4722C410.147 45.0923 409.772 42.2112 409.772 38.9546C409.772 35.8232 410.147 33.0669 411.021 30.687C411.895 28.3073 412.894 26.5535 414.142 25.4263C415.391 24.2991 416.764 23.5479 418.262 23.2974C419.76 23.0468 421.134 23.2975 422.507 24.1743C423.881 24.9259 425.13 26.3033 426.128 28.1821C427.127 30.061 427.876 32.3161 428.25 35.0718H431.872V20.6665H437.74V59.3716ZM502.414 59.3716H495.796V52.7329H502.414V59.3716ZM466.956 31.188C466.831 39.3297 470.326 45.4679 477.318 49.4761L473.698 53.8599C471.7 52.7326 469.702 51.2299 467.954 49.3511C466.206 47.5976 464.833 45.5933 463.709 43.5894C462.711 45.5934 461.461 47.472 459.713 49.4761C457.966 51.48 456.093 53.1083 454.22 54.3608L449.725 50.2271C453.346 47.8472 455.969 45.2169 457.841 42.0854C459.589 39.0794 460.462 35.4465 460.462 31.188V21.7944H466.956V31.188ZM418.886 28.8081C418.262 28.8083 417.762 29.1849 417.138 29.811C416.639 30.5626 416.14 31.6901 415.89 33.1929C415.516 34.6958 415.391 36.5745 415.391 38.7036C415.391 40.833 415.516 42.7122 415.89 44.2153C416.265 45.8434 416.639 46.9709 417.138 47.5972C417.637 48.3486 418.262 48.599 418.886 48.5991C419.51 48.5991 420.01 48.2233 420.634 47.5972C421.134 46.8456 421.634 45.7183 421.883 44.2153C422.258 42.7122 422.382 40.9582 422.382 38.7036C422.382 36.5745 422.258 34.6958 421.883 33.1929C421.509 31.5646 421.134 30.4373 420.634 29.811C420.135 29.0595 419.51 28.8081 418.886 28.8081ZM501.665 47.4722H496.42L495.422 20.7925H502.659L501.665 47.4722ZM502.664 20.7925H502.659L502.664 20.6665V20.7925Z" fill="#231C1C"/>
<path d="M328.493 37.7017C335.11 37.7017 340.479 43.0878 340.354 49.6011C340.354 56.1144 335.11 61.5004 328.493 61.5005H309.515C302.898 61.5005 297.904 56.2397 297.904 49.6011C297.904 43.0878 302.898 37.7017 309.515 37.7017H328.493ZM375.937 60.9995H370.444V44.4653H349.343V39.9565H375.937V60.9995ZM403.654 44.4653H382.429V60.9995H377.06V39.9565H403.654V44.4653ZM311.138 41.4595C306.519 41.4595 302.898 45.0919 302.898 49.6011C302.898 54.2356 306.643 57.8687 311.138 57.8687H326.995C331.489 57.8685 335.11 54.2355 335.235 49.6011C335.235 45.092 331.489 41.4596 326.995 41.4595H311.138ZM326.87 42.5864C330.74 42.5865 333.861 45.7182 333.861 49.6011C333.861 53.484 330.74 56.6156 326.87 56.6157H311.138C307.268 56.6157 304.146 53.484 304.146 49.6011C304.146 45.7182 307.268 42.5864 311.138 42.5864H326.87ZM319.128 46.3442C317.755 46.3442 312.511 46.4702 312.511 46.4702C310.639 46.4703 309.14 47.9727 309.14 49.7261C309.14 51.4796 310.638 52.9829 312.511 52.9829C312.511 52.9829 317.755 53.1089 319.128 53.1089C320.62 53.1089 325.574 52.9841 325.621 52.9829C327.369 52.9829 328.867 51.4797 328.992 49.7261C328.991 47.9727 327.493 46.4702 325.621 46.4702C325.573 46.4691 320.495 46.3442 319.128 46.3442ZM403.655 34.3198V38.8296H349.343V34.3198H403.655ZM346.846 22.0444H340.478V34.8208H289.289L289.164 30.938H335.484V17.7856H346.846V22.0444ZM376.561 16.0327L361.829 30.813H354.087L371.193 13.7778V11.8989H355.086V7.51514H376.561V16.0327ZM390.794 30.813H383.178L377.185 24.9253L371.193 30.813H363.452L373.315 21.0425L377.185 17.1597L390.794 30.813ZM399.285 11.8989H383.178V13.7778L400.159 30.813H392.542L377.685 16.0327V7.51514H399.285V11.8989ZM303.023 29.811H289.164V25.9272H298.153V15.9067H303.023V29.811ZM334.361 29.811H304.146V15.9067H309.015V25.9282H329.367V0.500488H334.361V29.811ZM316.256 6.51318C318.254 6.51318 319.003 7.26428 319.003 9.26807V23.1724H314.134L314.009 10.396H291.536V6.51318H316.256ZM319.378 1.62842C323.249 1.62852 325.122 3.8826 325.122 7.13916V23.1724H320.252V9.26904C320.252 6.76391 318.878 5.38525 316.256 5.38525H291.536V1.62842H319.378ZM340.479 12.2749H346.971L346.846 16.5337H335.485V0.500488H340.479V12.2749ZM399.285 6.26221H355.086V1.87842H399.285V6.26221Z" fill="#9A0F79"/>
<path d="M278.963 43.2222C278.963 44.3752 278.633 45.5288 277.973 46.5171L276.323 49.1519H274.507V40.5864H278.963V43.2222ZM146.948 47.6694H142.493V42.4116L123.35 42.728V38.6099L142.493 38.1353V20.6558H146.948V47.6694ZM268.237 47.6694H263.617V41.4106H248.599V37.4575H268.237V47.6694ZM184.243 47.3403H164.935V37.7866H184.243V47.3403ZM196.948 43.0581H211.965V47.0112H192.493V38.2808H196.948V43.0581ZM239.358 26.7505H223.846V32.5161H239.523V36.4692H231.602V41.2456H242.164V45.1987H216.255V41.2456H226.982V36.4692H219.391V22.6323H239.358V26.7505ZM169.39 43.5522H179.622V41.7397H169.39V43.5522ZM211.305 28.0688H214.606V32.186H211.305V39.4341H206.85V20.6558H211.305V28.0688ZM203.384 27.4097C203.384 28.0684 203.219 28.7271 202.724 29.2212C201.899 30.2094 200.744 31.1978 199.753 32.186L205.364 35.8101L203.219 38.7749L196.454 34.6567C194.308 36.3039 191.832 37.9513 189.687 39.269L187.542 35.9751C191.338 33.8338 195.628 30.3742 197.938 28.2329H189.192V24.6099H203.384V27.4097ZM161.634 32.6802C161.635 27.0802 176.98 26.7508 176.981 32.6802C176.981 38.61 161.634 38.4453 161.634 32.6802ZM184.407 36.9634H179.951V20.6558H184.407V36.9634ZM268.072 23.9507H271.538V27.9038H268.072V29.7153H271.538V33.6685H268.072V36.4692H263.617V20.6558H268.072V23.9507ZM124.34 29.2212C124.341 19.8329 139.852 19.8329 139.852 29.2212C139.852 38.7748 124.34 38.7748 124.34 29.2212ZM245.629 28.3979C245.629 19.0091 260.976 19.0091 260.976 28.3979C260.976 37.7868 245.629 37.7868 245.629 28.3979ZM172.526 32.6802C172.525 30.8687 166.421 30.8687 166.42 32.6802C166.42 34.4921 172.361 34.4921 172.526 32.6802ZM135.561 29.2212C135.561 24.9391 128.796 24.9391 128.795 29.2212C128.795 33.6685 135.561 33.6685 135.561 29.2212ZM256.52 28.3979C256.52 24.1153 250.084 24.1153 250.084 28.3979C250.085 32.6805 256.52 32.6805 256.52 28.3979ZM177.641 28.0688H160.974V24.6099H177.641V28.0688ZM174.011 23.9507H164.77V20.4917H174.011V23.9507ZM200.909 23.9507H191.667V20.4917H200.909V23.9507Z" fill="#231C1C"/>
<path d="M25.3286 42.8931C30.609 42.8932 34.8989 47.176 34.8989 52.4468C34.8987 57.7174 30.609 62.0003 25.3286 62.0005H13.1167C7.83629 62.0004 3.54561 57.7175 3.54541 52.4468C3.54548 47.176 7.83621 42.8932 13.1167 42.8931H25.3286ZM72.1938 61.1763H68.563V19.5034H72.1938V61.1763ZM76.6499 61.1763H73.019V19.5034H76.6499V61.1763ZM14.272 45.8579C10.6416 45.8579 7.67151 48.8231 7.67139 52.4468C7.67159 56.0704 10.6417 59.0356 14.272 59.0356H24.0083C27.6385 59.0356 30.6087 56.0703 30.6089 52.4468C30.6088 48.8232 27.6386 45.858 24.0083 45.8579H14.272ZM24.0083 46.8462C27.1436 46.8462 29.6186 49.3172 29.6187 52.4468C29.6185 55.5762 27.1435 58.0474 24.0083 58.0474H14.272C11.1368 58.0473 8.66181 55.5762 8.66162 52.4468C8.66171 49.3173 11.1368 46.8463 14.272 46.8462H24.0083ZM279.292 54.5874L277.972 57.7173H81.7651V54.5874H279.292ZM63.6128 21.8091C63.6128 37.5427 53.3638 48.2888 41.0054 56.729V51.7876C48.1012 46.8461 59.4878 35.4805 59.8179 25.2681H41.0054V21.8091H63.6128ZM15.4272 49.812C13.9422 49.812 12.7868 50.9645 12.7866 52.4468C12.7868 53.929 13.9422 55.0825 15.4272 55.0825H23.0181C24.5031 55.0825 25.6585 53.9291 25.6587 52.4468C25.6586 50.9645 24.5032 49.812 23.0181 49.812H15.4272ZM116.377 23.9712H88.6958V37.478C88.6959 39.7838 89.6856 40.9369 91.8306 40.937H100.247V53.6196H81.7651V50.4907H96.6167V44.0669H89.521C86.8807 44.0669 85.065 42.09 85.0649 39.4546V20.6763H116.377V23.9712ZM116.254 44.0659H104.868V50.4907H280.778L279.623 53.6196H101.072V40.937H116.254V44.0659ZM58.8276 25.9272C58.0025 35.1513 48.7612 45.0346 41.0054 50.4702V45.5288C47.111 40.9168 51.7313 37.2925 54.8667 29.3862H41.0054V25.9272H58.8276ZM20.7075 20.8208C20.7075 23.9504 20.0471 27.0805 18.2319 30.0454C14.6015 36.1397 7.67114 41.4106 0.0805664 43.3872V39.7632C8.33136 37.4571 15.2625 30.704 17.2427 23.9507H0.0805664V20.8208H20.7075ZM30.6099 41.9175H27.144V39.269H17.5728V36.4692H30.6099V41.9175ZM34.8999 41.9048H31.269V19.5034H34.8999V41.9048ZM116.419 28.0688H93.3159V37.1274H116.254V40.0923H91.8315C90.0163 40.0923 89.521 39.4335 89.521 37.6216V24.939H116.419V28.0688ZM15.9224 24.6099C13.6689 31.3574 7.39417 36.3584 0.740723 38.4458L0.0805664 38.6108V34.9868C4.20592 33.6691 7.67076 31.033 10.146 27.7388H0.0805664V24.6099H15.9224ZM30.6099 35.645H17.5728V32.6802H26.979V30.3745H21.3687V27.5747H30.6099V35.645ZM30.6099 26.7505H21.3687V23.9507H26.979V19.5005H30.6099V26.7505Z" fill="#1D2A75"/>
</svg>
